<?xml version="1.0" encoding="UTF-8"?> <!-- Generator: Adobe Illustrator 25.2.1, SVG Export Plug-In . SVG Version: 6.00 Build 0) --> <svg xmlns="http://www.w3.org/2000/svg" xmlns:xlink="http://www.w3.org/1999/xlink" version="1.1" id="Layer_1" x="0px" y="0px" viewBox="0 0 44.1 51.6" style="enable-background:new 0 0 44.1 51.6;" xml:space="preserve"> <style type="text/css"> .st0{fill:#DB4025;stroke:#DB4025;stroke-miterlimit:10;} .st1{fill:#DB4025;} .st2{fill:#FFFFFF;} .st3{fill:#F79146;stroke:#F79146;stroke-width:10;stroke-miterlimit:10;} .st4{fill:#DB4025;stroke:#DB4025;stroke-width:2;stroke-miterlimit:10;} </style> <g> <path class="st0" d="M-480.1,541.5l90.1-155c89,32.5,187.5-14.7,218.9-103.7c32.5-89-14.7-187.5-103.7-218.9 s-187.5,14.7-218.9,103.7c-24.1,67-4.2,142.5,51.3,189.6l-90.1,155c-2.1,4.2-1,9.4,3.1,11.5l37.7,22 C-487.4,546.7-482.2,545.7-480.1,541.5z M-486.3,225.1c0-85.9,69.1-155,155-155s154,70.2,154,155s-69.1,155-155,155l0,0 C-417.2,380.2-486.3,311-486.3,225.1L-486.3,225.1z M-428.7,366.6c7.3,5.2,14.7,9.4,23,13.6l-83.8,145.6l-23-13.6L-428.7,366.6z"></path> <g> <g> <g> <path class="st1" d="M-396.9,307.3c-22.4,0-40.6-18.2-40.6-40.6c0-6.5,1.6-12.6,5.1-19.8l-44.3-44.3c-7.1,3.5-13.3,5.1-19.8,5.1 c-18.3,0-34-12-38.3-29.3h-36.8v-0.8c0-3.2,0.3-6.6,0.5-10c0.3-3.3,0.5-6.8,0.5-9.9V157h35.8c4.5-17,20.5-29.3,38.3-29.3 c21.8,0,39.5,17.7,39.5,39.5c0,6.5-1.6,12.6-5.1,19.8l44.3,44.3c6.2-3.5,13-5.3,19.8-5.3c6.8,0,13.6,1.8,19.8,5.3l63.1-63.1 c-3.5-7.1-5.1-13.3-5.1-19.8c0-22.4,18.2-40.6,40.6-40.6c6.6,0,12.9,1.6,20.2,5.3c0.2,0.1,4,2.2,8.3,5.8c4.9,4.1,7.6,9,7.8,9.2 c3.7,7.4,5.3,13.6,5.3,20.3c0,22.4-18.2,40.6-40.6,40.6c-6.5,0-12.6-1.6-19.8-5.1l-63.1,63.1c3.5,7.1,5.1,13.3,5.1,19.8 C-356.4,289.1-374.6,307.3-396.9,307.3z M-398,246.5c-11.1,0-19.2,8.1-19.2,19.2c0,10.6,8.6,19.2,19.2,19.2 c11.1,0,19.2-8.1,19.2-19.2C-378.8,255.1-387.4,246.5-398,246.5z M-495.4,148c-10.6,0-19.2,8.6-19.2,19.2 c0,10.6,8.6,19.2,19.2,19.2c10.1,0,18.1-8.1,19.2-19.2C-476.3,156.6-484.8,148-495.4,148z M-279.6,128.1 c-10.6,0-19.2,8.6-19.2,19.2c0,10.6,8.6,19.2,19.2,19.2c10.6,0,19.2-8.6,19.2-19.2C-260.4,136.7-269,128.1-279.6,128.1z"></path> <path class="st2" d="M-279.6,108.5c7.3,0,13.6,2.1,19.9,5.2c0,0,3.9,2.1,8.1,5.7c4.9,4.1,7.6,9,7.6,9c3.1,6.3,5.2,12.6,5.2,19.9 c0,22-17.8,39.8-39.8,39.8c-7.3,0-13.6-2.1-19.9-5.2l-63.9,63.9c3.1,6.3,5.2,12.6,5.2,19.9c0,22-17.8,39.8-39.8,39.8 c-22,0-39.8-17.8-39.8-39.8c0-7.3,2.1-13.6,5.2-19.9l-45-45c-6.3,3.1-12.6,5.2-19.9,5.2c-17.8,0-33.5-11.5-37.7-29.3h-36.7 c0-6.3,1-13.6,1-19.9h35.6c4.2-16.8,19.9-29.3,37.7-29.3c21,0,38.8,16.8,38.8,38.8c0,7.3-2.1,13.6-5.2,19.9l45,45 c6.3-3.7,13.1-5.5,19.9-5.5s13.6,1.8,19.9,5.5l63.9-63.9c-3.1-6.3-5.2-12.6-5.2-19.9C-319.4,126.3-301.6,108.5-279.6,108.5 M-279.6,167.2c10.5,0,19.9-8.4,19.9-19.9s-9.4-19.9-19.9-19.9c-11.5,0-19.9,9.4-19.9,19.9 C-299.5,158.8-290.1,167.2-279.6,167.2 M-495.4,187.1c10.5,0,18.9-8.4,19.9-19.9c0-11.5-9.4-19.9-19.9-19.9 c-11.5,0-19.9,9.4-19.9,19.9C-515.3,178.7-505.9,187.1-495.4,187.1 M-398,285.6c11.5,0,19.9-8.4,19.9-19.9 c0-11.5-9.4-19.9-19.9-19.9c-11.5,0-19.9,8.4-19.9,19.9C-417.9,277.2-408.5,285.6-398,285.6 M-279.6,107 c-22.8,0-41.3,18.5-41.3,41.3c0,6.5,1.5,12.6,4.9,19.6l-62.3,62.3c-6.1-3.4-12.9-5.1-19.7-5.1c-6.7,0-13.5,1.8-19.7,5.1 l-43.5-43.5c3.4-7,4.9-13.1,4.9-19.6c0-10.9-4.3-21.1-12-28.7c-7.6-7.5-17.6-11.6-28.3-11.6c-17.9,0-34,12.3-38.9,29.3h-34.5 h-1.5v1.5c0,3.1-0.3,6.5-0.5,9.8c-0.3,3.4-0.5,6.9-0.5,10.1v1.5h1.5h35.5c2.3,8.5,7.1,15.7,14,21c7,5.4,15.8,8.3,24.9,8.3 c6.5,0,12.6-1.5,19.6-4.9l43.5,43.5c-3.4,7-4.9,13.1-4.9,19.6c0,22.8,18.5,41.3,41.3,41.3c22.8,0,41.3-18.5,41.3-41.3 c0-6.5-1.5-12.6-4.9-19.6l62.4-62.4c7,3.4,13.1,4.9,19.6,4.9c22.8,0,41.3-18.5,41.3-41.3c0-6.8-1.7-13.1-5.4-20.6l0,0l0,0 c-0.1-0.2-2.9-5.2-7.9-9.4c-4.3-3.6-8.2-5.7-8.4-5.8l0,0l0,0C-266.5,108.7-272.8,107-279.6,107L-279.6,107z M-279.6,165.7 c-10.1,0-18.4-8.3-18.4-18.4c0-10.1,8.3-18.4,18.4-18.4s18.4,8.3,18.4,18.4C-261.2,157.4-269.5,165.7-279.6,165.7L-279.6,165.7z M-495.4,185.6c-10.1,0-18.4-8.3-18.4-18.4s8.3-18.4,18.4-18.4c10.1,0,18.4,8.2,18.4,18.3C-478,177.8-485.7,185.6-495.4,185.6 L-495.4,185.6z M-398,284.1c-10.1,0-18.4-8.3-18.4-18.4c0-10.7,7.7-18.4,18.4-18.4c10.1,0,18.4,8.3,18.4,18.4 C-379.6,276.3-387.3,284.1-398,284.1L-398,284.1z"></path> </g> </g> </g> </g> <g> <g> <path class="st3" d="M152,361.2c4.1,0.4,7.2-2.2,9.2-7.7c11.1-128.2,146.3-215.2,267.3-173.4c4.4,1.5,9.2-0.8,10.8-5.2 c1.5-4.4-0.8-9.2-5.2-10.8c-14.8-5.1-30-8.6-45.5-10.4V134h9.1c4.7,0,8.5-3.8,8.5-8.5V98.1c21.5-5.4,33.2-19.7,35.1-42.8 c0-24-19.5-43.6-43.6-43.6h-70.2c-26.5,2.5-41.1,17-43.6,43.6c0,21.1,15.1,38.8,35.1,42.7v27.5c0,4.7,3.8,8.5,8.5,8.5h9.1v19.7 C234.9,165.8,153.2,250.3,144.3,352C143.9,356.7,147.4,360.8,152,361.2L152,361.2z M300.8,55.4c1.5-16.2,10.4-25.1,26.6-26.6h70.2 c14.7,0,26.6,11.9,26.6,26.6c-1,13.2-7.4,21.7-19.2,25.6c-4.4-19.5-21.8-34-42.5-34S324.4,61.6,320,81 C309,77.7,300.8,67.5,300.8,55.4L300.8,55.4z M335.9,90.5L335.9,90.5L335.9,90.5c0-14.7,12-26.7,26.6-26.7 c14.7,0,26.6,11.9,26.6,26.6l0,0l0,0V117h-53.2V90.5z M353.5,134.1h18.1v18.3c-6-0.3-12.1-0.2-18.1,0V134.1z"></path> </g> <g> <path class="st3" d="M523.3,222.5l13-13l6.4,6.4c4,3.3,8,3.3,12,0l12.4-12.4c10.1-10.1,10.1-26.7,0-36.8 c-12.3-10.2-24.5-10.2-36.8,0l-12.4,12.4c-3.3,4-3.3,8,0,12l6.4,6.4l-12.9,12.9c-12.6-11.7-26.7-22-42.1-30.6 c-4.1-2.3-9.2-0.8-11.5,3.3s-0.8,9.2,3.3,11.5c64,35.7,103.7,103.4,103.7,176.6c0,111.4-90.7,202.1-202.1,202.1 c-103.9,0-192.3-81-201.3-184.4c-0.4-4.7-4.5-8.1-9.2-7.7s-8.1,4.5-7.7,9.2c9.7,111.7,106.2,199.8,218.2,199.8 c120.8,0,219-98.3,219-219.1C581.6,315.3,560.2,262.4,523.3,222.5L523.3,222.5z M542.2,178.7c4.3-3.5,8.6-3.5,12.8,0 c3.5,3.5,3.5,9.3,0,12.8l-6.4,6.4c-4.3-4.3-8.5-8.5-12.8-12.8L542.2,178.7z"></path> </g> <g> <g> <path class="st3" d="M307.9,521.7c-1.3,4.1,1,8.4,5.1,9.7c104.6,32.3,216.9-48.6,217.3-159.3c0.3-104.6-84.3-168.6-167.7-168.6 c-91.2,0-167.7,76.9-167.7,167.7c0,59.5,33.7,117.2,85.6,146.3c3.7,2.1,8.4,0.7,10.5-2.9c2.1-3.7,0.7-8.4-2.9-10.5 c-10-5.7-19.2-12.3-27.5-19.9l17.1-17.1c3-3,3-7.9,0-10.9c-3-3-7.9-3-10.9,0l-17.1,17.1c-23.2-25.7-37.3-59-39-94.3h24.1 c4.3,0,7.8-3.5,7.8-7.8s-3.5-7.8-7.8-7.8h-24.2c1.8-36.2,16.3-69,39.2-94.3l17,17c3.6,3,7.3,3,10.9,0c3-3,3-7.9,0-10.9l-17-17 c25.3-22.8,58.1-37.3,94.3-39.1v24.1c0,4.3,3.5,7.8,7.8,7.8s7.8-3.5,7.8-7.8v-24.1c36.2,1.8,69,16.3,94.2,39.2l-16.9,16.9 c-3,3-3,7.9,0,10.9c3.6,3,7.3,3,10.9,0l16.9-16.9c22.8,25.3,37.3,58.1,39.1,94.3h-24c-4.3,0-7.8,3.5-7.8,7.8s3.5,7.8,7.8,7.8h24 c-1.8,36.1-16.3,69-39.1,94.2l-16.9-16.9c-3-3-7.9-3-10.9,0s-3,7.9,0,10.9l16.9,16.9c-25.3,22.8-58.1,37.3-94.3,39.1v-24 c0-4.3-3.5-7.8-7.8-7.8s-7.8,3.5-7.8,7.8v24c-12.7-0.6-25.2-2.8-37.3-6.6C313.4,515.3,309.1,517.7,307.9,521.7L307.9,521.7z"></path> </g> </g> <g> <path class="st3" d="M362.7,267.5c-4.3,0-7.8,3.5-7.8,7.8v65.2c-13.8,3.5-24,16-24,30.7c0,17.5,14.2,31.7,31.7,31.7 c17.5,0,31.7-14.2,31.7-31.7c0-14.9-10.2-27.4-24-30.7v-65.2C370.4,271,367,267.5,362.7,267.5L362.7,267.5z M378.9,371.2 c0,8.9-7.3,16.2-16.2,16.2s-16.2-7.3-16.2-16.2s7.3-16.2,16.2-16.2C371.6,355,378.9,362.2,378.9,371.2z"></path> </g> </g> <polygon class="st0" points="-522,513.1 -432.4,359.1 -410,368 -397.8,380.2 -486.3,534.9 "></polygon> <path class="st4" d="M10,49.7l8.9-15.3c8.8,3.2,18.5-1.4,21.6-10.3c3.2-8.8-1.4-18.5-10.3-21.6S11.8,3.9,8.7,12.7 c-2.4,6.6-0.4,14.1,5.1,18.7L4.8,46.8c-0.2,0.4-0.1,0.9,0.3,1.1l3.7,2.2C9.3,50.2,9.8,50.1,10,49.7z M9.4,18.4 c0-8.5,6.8-15.3,15.3-15.3S39.9,10,39.9,18.4s-6.8,15.3-15.3,15.3l0,0C16.2,33.7,9.4,26.9,9.4,18.4L9.4,18.4z M15.1,32.4 c0.7,0.5,1.4,0.9,2.3,1.3L9.1,48.1l-2.3-1.3L15.1,32.4z"></path> <g> <g> <g> <g> <path class="st1" d="M21.3,29c-2.5,0-4.6-1.9-4.8-4.4c0-0.5,0-0.9,0.1-1.3l-2.5-2.1c-0.4,0.1-0.8,0.2-1.3,0.3 c-0.1,0-0.3,0-0.4,0c-1.6,0-3.1-0.8-3.9-2.1l-5.7,0.5l-0.1-1.5c0-0.3,0-0.6,0-0.9c0-0.2,0-0.5,0-0.7l-0.1-1.5l5.6-0.4 c0.7-1.5,2.2-2.6,3.9-2.7c0.1,0,0.2,0,0.4,0c2.5,0,4.5,1.9,4.7,4.3c0,0.5,0,0.9-0.1,1.3l2.5,2.1c0.5-0.2,1.1-0.3,1.6-0.3 c0.3,0,0.6,0,0.9,0.1l3.5-4.1c-0.1-0.4-0.2-0.8-0.3-1.3c-0.2-2.6,1.8-4.9,4.4-5.1c0.1,0,0.2,0,0.4,0c0.6,0,1.3,0.1,2,0.4 c0.1,0.1,0.5,0.2,1,0.6c0.6,0.4,1,1,1.1,1.1c0.3,0.5,0.7,1.3,0.8,2.3c0.1,1.3-0.3,2.5-1.1,3.5s-2,1.6-3.3,1.7 c-0.1,0-0.2,0-0.4,0c-0.3,0-0.6,0-0.9-0.1l-3.6,4.2c0.1,0.4,0.2,0.8,0.3,1.3c0.1,1.3-0.3,2.5-1.1,3.5c-0.8,1-2,1.6-3.3,1.7 C21.5,29,21.4,29,21.3,29z"></path> <path class="st2" d="M30.1,10.4c0.5,0,1,0.1,1.4,0.3c0,0,0.3,0.1,0.7,0.4c0.4,0.3,0.7,0.7,0.7,0.7c0.3,0.5,0.5,1,0.6,1.6 c0.1,1.8-1.2,3.4-3,3.5c-0.1,0-0.2,0-0.2,0c-0.5,0-1-0.1-1.4-0.3L24,22.3c0.3,0.5,0.5,1,0.6,1.6c0.1,1.8-1.2,3.4-3,3.5 c-0.1,0-0.2,0-0.3,0c-1.7,0-3.1-1.3-3.3-3c0-0.6,0.1-1.1,0.3-1.7l-4-3.4c-0.5,0.3-1,0.5-1.6,0.6c-0.1,0-0.2,0-0.3,0 c-1.4,0-2.6-0.8-3-2.2l-5.2,0.4c0-0.5,0-1.1,0-1.6l5.1-0.4c0.2-1.4,1.4-2.5,2.9-2.7c0.1,0,0.2,0,0.3,0c1.6,0,3,1.2,3.2,2.9 c0,0.6-0.1,1.1-0.3,1.7l4,3.4c0.6-0.4,1.2-0.6,1.8-0.6c0.5,0,1,0.1,1.4,0.3l4.8-5.7c-0.3-0.5-0.5-1-0.6-1.6 c-0.1-1.8,1.2-3.4,3-3.5C30,10.4,30.1,10.4,30.1,10.4 M30.1,7.4c-0.2,0-0.3,0-0.5,0c-3.5,0.3-6,3.3-5.8,6.8 c0,0.3,0.1,0.5,0.1,0.8l-2.5,2.9c-0.1,0-0.2,0-0.3,0c-0.4,0-0.9,0-1.3,0.1L18.7,17c0-0.3,0-0.5,0-0.8c-0.3-3.3-2.9-5.7-6.2-5.7 c-0.2,0-0.3,0-0.5,0c-1.9,0.2-3.7,1.2-4.7,2.8l-3.4,0.3l-3,0.2l0.2,3c0,0.2,0,0.4,0,0.6c0,0.3,0,0.7,0,1.1l0.2,3l3-0.2l3.4-0.3 c1.1,1.3,2.8,2,4.6,2c0.2,0,0.3,0,0.5,0c0.3,0,0.5-0.1,0.8-0.1l1.3,1.1c0,0.3,0,0.5,0,0.8c0.3,3.2,3,5.8,6.3,5.8 c0.2,0,0.3,0,0.5,0c1.7-0.1,3.2-0.9,4.3-2.2c1.1-1.3,1.6-2.9,1.5-4.6c0-0.3-0.1-0.5-0.1-0.8L30,20c0.1,0,0.2,0,0.3,0 c0.2,0,0.3,0,0.5,0c1.7-0.1,3.2-0.9,4.3-2.2c1.1-1.3,1.6-2.9,1.5-4.6c-0.1-1-0.4-1.9-1-2.9l0-0.1l0-0.1C35.3,10,34.8,9.3,34,8.7 c-0.6-0.4-1.1-0.6-1.2-0.7l0,0l0,0C31.8,7.6,31,7.4,30.1,7.4L30.1,7.4z"></path> </g> </g> </g> <g> <g> <g> <path class="st1" d="M21.3,27.7c-1.8,0-3.4-1.4-3.5-3.2c0-0.5,0-1,0.3-1.6l-3.7-3.2c-0.5,0.3-1,0.5-1.6,0.5c-0.1,0-0.2,0-0.3,0 c-1.4,0-2.7-0.9-3.2-2.2L4,18.4l0-0.2c0-0.3,0-0.6,0-0.8c0-0.3,0-0.5,0-0.8l0-0.3l5.2-0.4c0.3-1.4,1.6-2.5,3.1-2.7 c0.1,0,0.2,0,0.3,0c1.8,0,3.3,1.4,3.4,3.2c0,0.5,0,1-0.3,1.6l3.7,3.2c0.6-0.3,1.2-0.5,1.8-0.5c0.5,0,0.9,0.1,1.4,0.3l4.6-5.4 c-0.3-0.5-0.5-1-0.5-1.6c-0.2-1.9,1.3-3.6,3.2-3.8c0.1,0,0.2,0,0.3,0c0.5,0,1,0.1,1.5,0.3c0,0,0.4,0.2,0.8,0.4 c0.5,0.3,0.7,0.7,0.7,0.8c0.4,0.6,0.6,1.1,0.6,1.7c0.1,0.9-0.2,1.9-0.8,2.6c-0.6,0.7-1.5,1.2-2.4,1.2c-0.1,0-0.2,0-0.3,0 c-0.4,0-0.9-0.1-1.3-0.3l-4.6,5.4c0.3,0.5,0.5,1,0.5,1.6c0.1,0.9-0.2,1.9-0.8,2.6s-1.5,1.2-2.4,1.2 C21.5,27.7,21.4,27.7,21.3,27.7z M21.1,22.7c-0.8,0.1-1.3,0.7-1.3,1.5c0.1,0.7,0.7,1.3,1.4,1.3l0.1,0c0.8-0.1,1.3-0.7,1.3-1.5 c-0.1-0.7-0.7-1.3-1.4-1.3L21.1,22.7z M12.5,15.3c-0.4,0-0.7,0.2-1,0.5c-0.2,0.3-0.3,0.6-0.3,1c0.1,0.7,0.7,1.3,1.4,1.3l0.1,0 c0.7-0.1,1.3-0.7,1.3-1.5c-0.1-0.7-0.7-1.3-1.4-1.3L12.5,15.3z M30,12.3c-0.8,0.1-1.3,0.7-1.3,1.5c0.1,0.7,0.7,1.3,1.4,1.3 l0.1,0c0.8-0.1,1.3-0.7,1.3-1.5c-0.1-0.7-0.7-1.3-1.4-1.3L30,12.3z"></path> <path class="st1" d="M30.1,10.4c0.5,0,1,0.1,1.4,0.3c0,0,0.3,0.1,0.7,0.4c0.4,0.3,0.7,0.7,0.7,0.7c0.3,0.5,0.5,1,0.6,1.6 c0.1,1.8-1.2,3.4-3,3.5c-0.1,0-0.2,0-0.2,0c-0.5,0-1-0.1-1.4-0.3L24,22.3c0.3,0.5,0.5,1,0.6,1.6c0.1,1.8-1.2,3.4-3,3.5 c-0.1,0-0.2,0-0.3,0c-1.7,0-3.1-1.3-3.3-3c0-0.6,0.1-1.1,0.3-1.7l-4-3.4c-0.5,0.3-1,0.5-1.6,0.6c-0.1,0-0.2,0-0.3,0 c-1.4,0-2.6-0.8-3-2.2l-5.2,0.4c0-0.5,0-1.1,0-1.6l5.2-0.4c0.2-1.4,1.4-2.5,2.9-2.7c0.1,0,0.2,0,0.3,0c1.6,0,3,1.2,3.2,2.9 c0,0.6-0.1,1.1-0.3,1.7l4,3.4c0.6-0.4,1.2-0.6,1.8-0.6c0.5,0,1,0.1,1.4,0.3l4.8-5.7c-0.3-0.5-0.5-1-0.6-1.6 c-0.1-1.8,1.2-3.4,3-3.5C30,10.4,30.1,10.4,30.1,10.4 M30.2,15.3c0,0,0.1,0,0.1,0c0.9-0.1,1.6-0.8,1.5-1.8 C31.7,12.6,31,12,30.2,12c0,0-0.1,0-0.1,0c-0.9,0.1-1.6,0.9-1.5,1.8C28.6,14.7,29.3,15.3,30.2,15.3 M12.6,18.3c0,0,0.1,0,0.1,0 c0.9-0.1,1.5-0.8,1.5-1.8c-0.1-0.9-0.8-1.5-1.6-1.5c0,0-0.1,0-0.1,0c-0.9,0.1-1.6,0.9-1.5,1.8C11,17.7,11.8,18.3,12.6,18.3 M21.2,25.8c0,0,0.1,0,0.1,0c0.9-0.1,1.6-0.8,1.5-1.8c-0.1-0.9-0.8-1.5-1.6-1.5c0,0-0.1,0-0.1,0c-0.9,0.1-1.6,0.8-1.5,1.8 C19.6,25.1,20.4,25.8,21.2,25.8 M30.1,9.9c-0.1,0-0.2,0-0.3,0c-2.1,0.2-3.6,2-3.5,4.1c0,0.5,0.2,1,0.5,1.5l-4.4,5.1 c-0.4-0.2-0.8-0.2-1.3-0.2c-0.6,0-1.2,0.2-1.8,0.5L16,17.9c0.2-0.5,0.2-1,0.2-1.6C16,14.4,14.4,13,12.5,13c-0.1,0-0.2,0-0.3,0 c-1.5,0.1-2.9,1.2-3.3,2.7L4.1,16l-0.5,0l0,0.5c0,0.2,0,0.5,0,0.8c0,0.3,0,0.6,0,0.9l0,0.5l0.5,0l4.9-0.3 c0.6,1.3,1.9,2.1,3.4,2.1c0.1,0,0.2,0,0.3,0c0.5,0,1-0.2,1.5-0.5l3.5,3c-0.2,0.5-0.2,1-0.2,1.6c0.2,2,1.8,3.5,3.8,3.5 c0.1,0,0.2,0,0.3,0c1-0.1,1.9-0.5,2.6-1.3c0.7-0.8,1-1.7,0.9-2.8c0-0.5-0.2-1-0.5-1.5l4.4-5.1c0.4,0.1,0.9,0.2,1.3,0.2 c0.1,0,0.2,0,0.3,0c1-0.1,1.9-0.5,2.6-1.3c0.7-0.8,1-1.7,0.9-2.8c0-0.6-0.2-1.2-0.6-1.8c0-0.1-0.3-0.5-0.8-0.8 c-0.4-0.3-0.8-0.5-0.8-0.5C31.2,10.1,30.7,9.9,30.1,9.9L30.1,9.9z M30.2,14.8c-0.5,0-1.1-0.4-1.1-1c0-0.5,0.3-1.2,1-1.2 c0,0,0.1,0,0.1,0c0.5,0,1.1,0.4,1.1,1C31.3,14.2,30.8,14.7,30.2,14.8C30.2,14.8,30.2,14.8,30.2,14.8L30.2,14.8z M12.6,17.8 c-0.5,0-1.1-0.4-1.1-1c0-0.5,0.3-1.2,1-1.2c0,0,0.1,0,0.1,0c0.5,0,1.1,0.4,1.1,1C13.7,17.2,13.3,17.8,12.6,17.8 C12.6,17.8,12.6,17.8,12.6,17.8L12.6,17.8z M21.2,25.3c-0.5,0-1.1-0.4-1.1-1c0-0.3,0.1-0.6,0.3-0.8c0.2-0.2,0.5-0.4,0.8-0.4 c0,0,0.1,0,0.1,0c0.5,0,1.1,0.4,1.1,1c0,0.3-0.1,0.6-0.3,0.8C21.9,25.1,21.6,25.2,21.2,25.3C21.3,25.3,21.2,25.3,21.2,25.3 L21.2,25.3z"></path> </g> </g> </g> </g> <polygon class="st0" points="6.7,45.9 14.8,31.4 18.5,33.4 9.9,48.2 "></polygon> </svg> 