<?xml version="1.0" encoding="UTF-8"?> <svg xmlns="http://www.w3.org/2000/svg" xmlns:xlink="http://www.w3.org/1999/xlink" id="a" data-name="Layer 1" viewBox="0 0 600 196.18"><defs><style> .c { fill: none; } .c, .d, .e, .f { stroke-width: 0px; } .g { clip-path: url(#b); } .h { isolation: isolate; } .d { fill: #3a6289; } .e { fill: #db4025; } .f { fill: #fff; } </style><clipPath id="b"><rect class="c" x="41.73" y="154.18" width="24.32" height="26.35"></rect></clipPath></defs><rect class="d" width="600" height="196.18"></rect><g><rect class="e" x="345.35" y="68.24" width="239.94" height="59.7" rx="3" ry="3"></rect><g><path class="f" d="M371.44,99.79h-2.57v5.73h-3.22v-15.64h5.81c1.85,0,3.27.41,4.28,1.24s1.5,1.99,1.5,3.49c0,1.07-.23,1.96-.69,2.67-.46.71-1.16,1.28-2.1,1.7l3.38,6.39v.15h-3.46l-2.93-5.73ZM368.87,97.18h2.6c.81,0,1.44-.21,1.88-.62.44-.41.67-.98.67-1.7s-.21-1.32-.63-1.74c-.42-.42-1.06-.63-1.93-.63h-2.59v4.69Z"></path><path class="f" d="M384.83,105.73c-1.7,0-3.09-.52-4.16-1.57-1.07-1.05-1.61-2.44-1.61-4.18v-.3c0-1.17.23-2.21.68-3.13.45-.92,1.09-1.63,1.92-2.13.83-.5,1.77-.75,2.83-.75,1.59,0,2.84.5,3.75,1.5.91,1,1.37,2.42,1.37,4.26v1.27h-7.4c.1.76.4,1.37.91,1.83.51.46,1.14.69,1.92.69,1.2,0,2.13-.43,2.8-1.3l1.53,1.71c-.47.66-1.1,1.17-1.89,1.54-.79.37-1.68.55-2.64.55ZM384.48,96.18c-.62,0-1.12.21-1.5.63-.38.42-.63,1.01-.74,1.79h4.32v-.25c-.01-.69-.2-1.22-.56-1.6s-.87-.57-1.53-.57Z"></path><path class="f" d="M390.89,99.6c0-1.83.41-3.27,1.22-4.33.81-1.06,1.93-1.59,3.35-1.59,1.25,0,2.24.48,2.98,1.43l.2-1.21h2.73v16.09h-3.12v-5.47c-.72.81-1.65,1.21-2.81,1.21-1.38,0-2.49-.54-3.31-1.61s-1.24-2.58-1.24-4.52ZM394,99.82c0,1.11.2,1.96.58,2.54.39.58.94.87,1.65.87.95,0,1.63-.38,2.02-1.14v-4.81c-.39-.73-1.05-1.1-2-1.1-.72,0-1.27.29-1.67.87-.39.58-.59,1.5-.59,2.77Z"></path><path class="f" d="M410.76,104.34c-.77.93-1.83,1.4-3.18,1.4-1.25,0-2.2-.36-2.85-1.07-.65-.72-.99-1.77-1-3.15v-7.62h3.1v7.52c0,1.21.55,1.82,1.65,1.82s1.78-.37,2.17-1.1v-8.24h3.12v11.62h-2.92l-.09-1.18Z"></path><path class="f" d="M421.46,105.73c-1.7,0-3.09-.52-4.16-1.57-1.07-1.05-1.61-2.44-1.61-4.18v-.3c0-1.17.23-2.21.68-3.13.45-.92,1.09-1.63,1.92-2.13.83-.5,1.77-.75,2.83-.75,1.59,0,2.84.5,3.75,1.5.91,1,1.37,2.42,1.37,4.26v1.27h-7.4c.1.76.4,1.37.91,1.83.51.46,1.14.69,1.92.69,1.2,0,2.13-.43,2.8-1.3l1.53,1.71c-.47.66-1.1,1.17-1.89,1.54-.79.37-1.68.55-2.64.55ZM421.11,96.18c-.62,0-1.12.21-1.5.63-.38.42-.63,1.01-.74,1.79h4.32v-.25c-.01-.69-.2-1.22-.56-1.6s-.87-.57-1.53-.57Z"></path><path class="f" d="M434.3,102.31c0-.38-.19-.68-.56-.9-.38-.22-.98-.41-1.81-.58-2.76-.58-4.15-1.75-4.15-3.52,0-1.03.43-1.89,1.28-2.58.86-.69,1.98-1.04,3.36-1.04,1.48,0,2.66.35,3.54,1.04.88.69,1.33,1.6,1.33,2.71h-3.1c0-.44-.14-.81-.43-1.1-.29-.29-.73-.44-1.34-.44-.52,0-.93.12-1.21.35s-.43.54-.43.9c0,.34.16.62.49.83.33.21.88.39,1.65.55.77.15,1.42.33,1.96.52,1.64.6,2.46,1.64,2.46,3.13,0,1.06-.46,1.92-1.36,2.57-.91.65-2.08.98-3.52.98-.97,0-1.84-.17-2.59-.52-.75-.35-1.35-.82-1.78-1.43-.43-.61-.64-1.26-.64-1.96h2.94c.03.55.23.97.61,1.27s.89.44,1.53.44c.59,0,1.04-.11,1.35-.34.3-.22.46-.52.46-.89Z"></path><path class="f" d="M443.03,91.04v2.86h1.99v2.28h-1.99v5.8c0,.43.08.74.25.92s.48.28.95.28c.34,0,.65-.03.91-.08v2.35c-.61.19-1.24.28-1.88.28-2.18,0-3.29-1.1-3.33-3.3v-6.26h-1.7v-2.28h1.7v-2.86h3.1Z"></path><path class="f" d="M455.86,105.52h-3.22v-15.64h3.22v15.64Z"></path><path class="f" d="M461.5,93.9l.1,1.34c.83-1.04,1.94-1.56,3.34-1.56,1.23,0,2.15.36,2.75,1.08s.91,1.8.92,3.24v7.51h-3.1v-7.43c0-.66-.14-1.14-.43-1.43-.29-.3-.76-.45-1.43-.45-.87,0-1.53.37-1.97,1.12v8.2h-3.1v-11.62h2.92Z"></path><path class="f" d="M471.81,105.52v-9.35h-1.73v-2.28h1.73v-.99c0-1.3.37-2.31,1.12-3.04.75-.72,1.79-1.08,3.14-1.08.43,0,.96.07,1.58.21l-.03,2.41c-.26-.06-.57-.1-.95-.1-1.17,0-1.75.55-1.75,1.64v.93h2.31v2.28h-2.31v9.35h-3.12Z"></path><path class="f" d="M478.36,99.6c0-1.15.22-2.18.67-3.08s1.08-1.6,1.92-2.09c.83-.49,1.8-.74,2.91-.74,1.57,0,2.85.48,3.84,1.44.99.96,1.54,2.26,1.66,3.91l.02.79c0,1.78-.5,3.21-1.49,4.29-1,1.08-2.33,1.62-4.01,1.62s-3.01-.54-4.01-1.61c-1-1.07-1.5-2.54-1.5-4.38v-.14ZM481.47,99.82c0,1.1.21,1.95.62,2.53.42.58,1.01.88,1.78.88s1.34-.29,1.76-.87.63-1.5.63-2.77c0-1.08-.21-1.92-.63-2.52-.42-.59-1.02-.89-1.78-.89s-1.35.3-1.76.89-.62,1.51-.62,2.75Z"></path><path class="f" d="M497.82,96.81c-.42-.06-.79-.09-1.12-.09-1.17,0-1.94.4-2.31,1.19v7.61h-3.1v-11.62h2.93l.09,1.39c.62-1.07,1.49-1.6,2.59-1.6.34,0,.67.05.97.14l-.04,2.99Z"></path><path class="f" d="M502.22,93.9l.1,1.3c.82-1.01,1.94-1.51,3.34-1.51,1.5,0,2.52.59,3.08,1.77.82-1.18,1.98-1.77,3.49-1.77,1.26,0,2.2.37,2.81,1.1.62.73.92,1.84.92,3.31v7.42h-3.12v-7.41c0-.66-.13-1.14-.39-1.45-.26-.3-.71-.46-1.36-.46-.93,0-1.58.44-1.93,1.33v7.98s-3.09,0-3.09,0v-7.4c0-.67-.13-1.16-.4-1.46s-.72-.45-1.35-.45c-.88,0-1.52.37-1.91,1.1v8.22h-3.1v-11.62h2.91Z"></path><path class="f" d="M525.09,105.52c-.14-.28-.25-.63-.31-1.04-.75.84-1.73,1.26-2.93,1.26-1.14,0-2.08-.33-2.83-.99-.75-.66-1.12-1.49-1.12-2.49,0-1.23.46-2.18,1.37-2.84.91-.66,2.23-.99,3.96-1h1.43v-.67c0-.54-.14-.97-.41-1.29-.28-.32-.71-.48-1.31-.48-.52,0-.93.12-1.23.38-.3.25-.45.59-.45,1.03h-3.1c0-.67.21-1.3.62-1.87s1-1.02,1.76-1.35c.76-.33,1.61-.49,2.56-.49,1.43,0,2.57.36,3.41,1.08.84.72,1.26,1.73,1.26,3.03v5.04c0,1.1.16,1.94.46,2.5v.18h-3.14ZM522.53,103.36c.46,0,.88-.1,1.27-.31.39-.21.67-.48.86-.82v-2h-1.16c-1.55,0-2.38.54-2.48,1.61v.18c-.01.39.12.71.4.96s.64.38,1.12.38Z"></path><path class="f" d="M533.87,91.04v2.86h1.99v2.28h-1.99v5.8c0,.43.08.74.25.92s.48.28.95.28c.34,0,.65-.03.91-.08v2.35c-.61.19-1.24.28-1.88.28-2.18,0-3.29-1.1-3.33-3.3v-6.26h-1.7v-2.28h1.7v-2.86h3.1Z"></path><path class="f" d="M537.56,90.89c0-.47.16-.85.47-1.15.31-.3.74-.45,1.27-.45s.95.15,1.27.45.47.68.47,1.15-.16.86-.48,1.16c-.32.3-.74.45-1.26.45s-.94-.15-1.26-.45c-.32-.3-.48-.69-.48-1.16ZM540.86,105.52h-3.12v-11.62h3.12v11.62Z"></path><path class="f" d="M542.94,99.6c0-1.15.22-2.18.67-3.08s1.08-1.6,1.92-2.09c.83-.49,1.8-.74,2.91-.74,1.57,0,2.85.48,3.84,1.44.99.96,1.54,2.26,1.66,3.91l.02.79c0,1.78-.5,3.21-1.49,4.29-1,1.08-2.33,1.62-4.01,1.62s-3.01-.54-4.01-1.61c-1-1.07-1.5-2.54-1.5-4.38v-.14ZM546.04,99.82c0,1.1.21,1.95.62,2.53.42.58,1.01.88,1.78.88s1.34-.29,1.76-.87.63-1.5.63-2.77c0-1.08-.21-1.92-.63-2.52-.42-.59-1.02-.89-1.78-.89s-1.35.3-1.76.89-.62,1.51-.62,2.75Z"></path><path class="f" d="M558.72,93.9l.1,1.34c.83-1.04,1.94-1.56,3.34-1.56,1.23,0,2.15.36,2.75,1.08s.91,1.8.92,3.24v7.51h-3.1v-7.43c0-.66-.14-1.14-.43-1.43-.29-.3-.76-.45-1.43-.45-.87,0-1.53.37-1.97,1.12v8.2h-3.1v-11.62h2.92Z"></path></g></g><g class="h"><path class="f" d="M48.52,46.63l7.02,19.82,6.98-19.82h7.39v27.32h-5.65v-7.47l.56-12.89-7.38,20.36h-3.87l-7.36-20.34.56,12.87v7.47h-5.63v-27.32h7.36Z"></path><path class="f" d="M86.24,73.95c-.25-.49-.43-1.09-.54-1.82-1.31,1.46-3.02,2.2-5.12,2.2-1.99,0-3.64-.58-4.94-1.73-1.31-1.15-1.96-2.6-1.96-4.35,0-2.15.8-3.8,2.39-4.95s3.9-1.73,6.92-1.75h2.5v-1.16c0-.94-.24-1.69-.72-2.25-.48-.56-1.24-.84-2.28-.84-.91,0-1.63.22-2.15.66-.52.44-.78,1.04-.78,1.8h-5.42c0-1.18.36-2.26,1.09-3.27.73-1,1.75-1.79,3.08-2.36,1.33-.57,2.81-.85,4.47-.85,2.5,0,4.49.63,5.96,1.89,1.47,1.26,2.21,3.03,2.21,5.3v8.8c.01,1.93.28,3.38.81,4.37v.32h-5.48ZM81.76,70.18c.8,0,1.54-.18,2.21-.53.67-.36,1.18-.83,1.5-1.44v-3.49h-2.03c-2.71,0-4.16.94-4.33,2.82l-.02.32c0,.67.24,1.23.71,1.67.48.44,1.13.66,1.95.66Z"></path><path class="f" d="M106.49,58.73c-.74-.1-1.39-.15-1.95-.15-2.05,0-3.4.69-4.04,2.08v13.29h-5.42v-20.31h5.12l.15,2.42c1.09-1.86,2.6-2.8,4.52-2.8.6,0,1.16.08,1.69.24l-.08,5.22Z"></path><path class="f" d="M116.48,65.81l-1.95,1.95v6.19h-5.42v-28.83h5.42v15.97l1.05-1.35,5.2-6.1h6.51l-7.34,8.46,7.97,11.84h-6.23l-5.22-8.14Z"></path><path class="f" d="M138.6,74.33c-2.98,0-5.4-.91-7.27-2.74-1.87-1.83-2.8-4.26-2.8-7.3v-.53c0-2.04.39-3.86,1.18-5.47.79-1.61,1.91-2.85,3.35-3.72,1.45-.87,3.09-1.3,4.95-1.3,2.78,0,4.96.88,6.56,2.63,1.6,1.75,2.39,4.24,2.39,7.45v2.21h-12.93c.18,1.33.7,2.39,1.59,3.19s2,1.2,3.35,1.2c2.09,0,3.72-.76,4.9-2.27l2.66,2.98c-.81,1.15-1.91,2.05-3.3,2.69-1.39.64-2.93.97-4.62.97ZM137.98,57.65c-1.08,0-1.95.36-2.62,1.09-.67.73-1.1,1.77-1.29,3.13h7.54v-.43c-.03-1.21-.35-2.14-.98-2.8-.63-.66-1.51-.99-2.67-.99Z"></path><path class="f" d="M156.52,48.66v4.99h3.47v3.98h-3.47v10.13c0,.75.14,1.29.43,1.61s.84.49,1.65.49c.6,0,1.13-.04,1.6-.13v4.11c-1.06.33-2.16.49-3.29.49-3.8,0-5.74-1.92-5.82-5.76v-10.94h-2.97v-3.98h2.97v-4.99h5.42Z"></path><path class="f" d="M172.94,73.95v-27.32h8.41c2.4,0,4.55.54,6.45,1.62,1.89,1.08,3.38,2.62,4.44,4.62,1.06,2,1.6,4.26,1.6,6.8v1.26c0,2.54-.52,4.8-1.57,6.77-1.04,1.98-2.52,3.51-4.42,4.6-1.9,1.09-4.05,1.64-6.44,1.65h-8.46ZM178.57,51.19v18.24h2.72c2.2,0,3.88-.72,5.05-2.16,1.16-1.44,1.76-3.5,1.78-6.17v-1.44c0-2.78-.58-4.88-1.73-6.32-1.15-1.43-2.83-2.15-5.05-2.15h-2.78Z"></path><path class="f" d="M209.33,73.95c-.25-.49-.43-1.09-.54-1.82-1.31,1.46-3.02,2.2-5.12,2.2-1.99,0-3.64-.58-4.95-1.73-1.31-1.15-1.96-2.6-1.96-4.35,0-2.15.8-3.8,2.39-4.95s3.9-1.73,6.92-1.75h2.5v-1.16c0-.94-.24-1.69-.72-2.25-.48-.56-1.24-.84-2.28-.84-.91,0-1.63.22-2.15.66-.52.44-.78,1.04-.78,1.8h-5.42c0-1.18.36-2.26,1.09-3.27.72-1,1.75-1.79,3.08-2.36,1.33-.57,2.82-.85,4.47-.85,2.5,0,4.49.63,5.96,1.89,1.47,1.26,2.21,3.03,2.21,5.3v8.8c.01,1.93.28,3.38.81,4.37v.32h-5.48ZM204.85,70.18c.8,0,1.54-.18,2.21-.53s1.18-.83,1.5-1.44v-3.49h-2.03c-2.71,0-4.16.94-4.34,2.82l-.02.32c0,.67.24,1.23.71,1.67.47.44,1.12.66,1.95.66Z"></path><path class="f" d="M224.66,48.66v4.99h3.47v3.98h-3.47v10.13c0,.75.14,1.29.43,1.61.29.33.84.49,1.65.49.6,0,1.13-.04,1.6-.13v4.11c-1.06.33-2.16.49-3.29.49-3.8,0-5.74-1.92-5.82-5.76v-10.94h-2.96v-3.98h2.96v-4.99h5.42Z"></path><path class="f" d="M242.92,73.95c-.25-.49-.43-1.09-.54-1.82-1.31,1.46-3.02,2.2-5.12,2.2-1.99,0-3.64-.58-4.95-1.73-1.31-1.15-1.96-2.6-1.96-4.35,0-2.15.8-3.8,2.39-4.95,1.59-1.15,3.9-1.73,6.91-1.75h2.5v-1.16c0-.94-.24-1.69-.72-2.25-.48-.56-1.24-.84-2.28-.84-.91,0-1.63.22-2.15.66-.52.44-.78,1.04-.78,1.8h-5.42c0-1.18.36-2.26,1.09-3.27.72-1,1.75-1.79,3.08-2.36,1.33-.57,2.82-.85,4.47-.85,2.5,0,4.49.63,5.96,1.89,1.47,1.26,2.21,3.03,2.21,5.3v8.8c.01,1.93.28,3.38.81,4.37v.32h-5.48ZM238.44,70.18c.8,0,1.54-.18,2.21-.53s1.18-.83,1.5-1.44v-3.49h-2.03c-2.71,0-4.16.94-4.34,2.82l-.02.32c0,.67.24,1.23.71,1.67.47.44,1.12.66,1.95.66Z"></path><path class="f" d="M277.12,68.32h-9.87l-1.88,5.63h-5.99l10.17-27.32h5.22l10.23,27.32h-5.99l-1.89-5.63ZM268.76,63.76h6.83l-3.44-10.23-3.4,10.23Z"></path><path class="f" d="M293.18,64.33v9.63h-5.63v-27.32h10.66c2.05,0,3.86.38,5.41,1.13,1.56.75,2.76,1.82,3.59,3.2s1.26,2.96,1.26,4.72c0,2.68-.92,4.79-2.75,6.33-1.83,1.54-4.37,2.32-7.61,2.32h-4.94ZM293.18,59.77h5.03c1.49,0,2.62-.35,3.41-1.05.78-.7,1.17-1.7,1.17-3s-.39-2.42-1.18-3.25c-.79-.83-1.88-1.25-3.27-1.28h-5.16v8.58Z"></path><path class="f" d="M318.33,73.95h-5.63v-27.32h5.63v27.32Z"></path></g><g class="h"><path class="f" d="M49.8,33.91c0-.66-.23-1.17-.7-1.53s-1.31-.73-2.53-1.12-2.18-.78-2.89-1.17c-1.94-1.05-2.91-2.46-2.91-4.23,0-.92.26-1.74.78-2.47s1.27-1.29,2.24-1.69,2.06-.61,3.28-.61,2.3.22,3.26.66,1.69,1.06,2.22,1.87.79,1.72.79,2.74h-3.52c0-.78-.25-1.39-.74-1.82s-1.18-.65-2.07-.65-1.53.18-2,.54-.71.84-.71,1.44c0,.55.28,1.02.84,1.39s1.38.73,2.47,1.05c2,.6,3.46,1.35,4.37,2.24s1.37,2,1.37,3.33c0,1.48-.56,2.63-1.68,3.47s-2.62,1.26-4.51,1.26c-1.31,0-2.51-.24-3.59-.72s-1.9-1.14-2.47-1.97-.85-1.8-.85-2.91h3.53c0,1.88,1.12,2.82,3.38,2.82.84,0,1.49-.17,1.96-.51s.7-.81.7-1.42Z"></path><path class="f" d="M66.9,32.17c0,1.95-.44,3.52-1.33,4.69s-2.08,1.76-3.59,1.76c-1.28,0-2.32-.45-3.11-1.34v5.98h-3.39v-17.55h3.14l.12,1.24c.82-.98,1.89-1.48,3.21-1.48,1.56,0,2.78.58,3.64,1.73s1.3,2.75,1.3,4.78v.18ZM63.51,31.92c0-1.18-.21-2.09-.63-2.73s-1.03-.96-1.82-.96c-1.06,0-1.79.41-2.19,1.22v5.19c.41.84,1.15,1.25,2.21,1.25,1.62,0,2.43-1.32,2.43-3.97Z"></path><path class="f" d="M68.97,22.43c0-.51.17-.93.51-1.25s.8-.49,1.39-.49,1.04.16,1.38.49.52.75.52,1.25-.17.94-.52,1.27-.81.49-1.38.49-1.03-.16-1.38-.49-.52-.75-.52-1.27ZM72.57,38.39h-3.4v-12.68h3.4v12.68Z"></path><path class="f" d="M74.83,31.96c0-1.98.44-3.55,1.33-4.72s2.1-1.76,3.64-1.76c1.23,0,2.25.46,3.06,1.38v-6.47h3.4v18h-3.06l-.16-1.35c-.84,1.05-1.93,1.58-3.26,1.58-1.49,0-2.69-.59-3.59-1.76s-1.35-2.81-1.35-4.9ZM78.22,32.21c0,1.19.21,2.1.62,2.73.41.63,1.02.95,1.8.95,1.05,0,1.79-.44,2.21-1.33v-5.01c-.42-.88-1.15-1.33-2.19-1.33-1.63,0-2.45,1.33-2.45,3.98Z"></path><path class="f" d="M94.72,38.63c-1.86,0-3.37-.57-4.54-1.71s-1.75-2.66-1.75-4.56v-.33c0-1.27.25-2.41.74-3.42s1.19-1.78,2.09-2.32,1.93-.81,3.09-.81c1.73,0,3.1.55,4.1,1.64s1.49,2.64,1.49,4.65v1.38h-8.07c.11.83.44,1.49.99,1.99s1.25.75,2.09.75c1.3,0,2.32-.47,3.06-1.42l1.66,1.86c-.51.72-1.2,1.28-2.06,1.68s-1.83.6-2.88.6ZM94.33,28.21c-.67,0-1.22.23-1.63.68s-.69,1.11-.8,1.95h4.71v-.27c-.02-.75-.22-1.34-.61-1.75s-.95-.62-1.66-.62Z"></path><path class="f" d="M108.98,28.89c-.46-.06-.87-.09-1.22-.09-1.28,0-2.12.43-2.52,1.3v8.3h-3.39v-12.68h3.2l.09,1.51c.68-1.16,1.62-1.75,2.82-1.75.38,0,.73.05,1.05.15l-.05,3.26Z"></path><path class="f" d="M119.68,33.91c0-.66-.23-1.17-.7-1.53s-1.31-.73-2.53-1.12-2.18-.78-2.89-1.17c-1.94-1.05-2.91-2.46-2.91-4.23,0-.92.26-1.74.78-2.47s1.27-1.29,2.24-1.69,2.06-.61,3.28-.61,2.3.22,3.26.66,1.69,1.06,2.22,1.87.79,1.72.79,2.74h-3.52c0-.78-.25-1.39-.74-1.82s-1.18-.65-2.07-.65-1.53.18-2,.54-.71.84-.71,1.44c0,.55.28,1.02.84,1.39s1.38.73,2.47,1.05c2,.6,3.46,1.35,4.37,2.24s1.37,2,1.37,3.33c0,1.48-.56,2.63-1.68,3.47s-2.62,1.26-4.51,1.26c-1.31,0-2.51-.24-3.59-.72s-1.9-1.14-2.47-1.97-.85-1.8-.85-2.91h3.53c0,1.88,1.12,2.82,3.38,2.82.84,0,1.49-.17,1.96-.51s.7-.81.7-1.42Z"></path><path class="f" d="M129.42,22.59v3.12h2.17v2.48h-2.17v6.33c0,.47.09.8.27,1.01s.52.3,1.03.3c.38,0,.71-.03,1-.08v2.57c-.66.2-1.35.3-2.05.3-2.38,0-3.59-1.2-3.63-3.6v-6.83h-1.85v-2.48h1.85v-3.12h3.39Z"></path><path class="f" d="M140.6,28.89c-.46-.06-.87-.09-1.22-.09-1.28,0-2.12.43-2.52,1.3v8.3h-3.39v-12.68h3.2l.09,1.51c.68-1.16,1.62-1.75,2.82-1.75.38,0,.73.05,1.05.15l-.05,3.26Z"></path><path class="f" d="M147.84,38.63c-1.86,0-3.37-.57-4.54-1.71s-1.75-2.66-1.75-4.56v-.33c0-1.27.25-2.41.74-3.42s1.19-1.78,2.09-2.32,1.93-.81,3.09-.81c1.73,0,3.1.55,4.1,1.64s1.49,2.64,1.49,4.65v1.38h-8.07c.11.83.44,1.49.99,1.99s1.25.75,2.09.75c1.3,0,2.32-.47,3.06-1.42l1.66,1.86c-.51.72-1.2,1.28-2.06,1.68s-1.83.6-2.88.6ZM147.45,28.21c-.67,0-1.22.23-1.63.68s-.69,1.11-.8,1.95h4.71v-.27c-.02-.75-.22-1.34-.61-1.75s-.95-.62-1.66-.62Z"></path><path class="f" d="M162.32,38.39c-.16-.3-.27-.68-.34-1.14-.82.91-1.89,1.37-3.2,1.37-1.24,0-2.27-.36-3.09-1.08s-1.22-1.62-1.22-2.72c0-1.34.5-2.38,1.49-3.09s2.44-1.08,4.32-1.09h1.56v-.73c0-.59-.15-1.05-.45-1.41s-.78-.53-1.42-.53c-.57,0-1.02.14-1.34.41s-.49.65-.49,1.12h-3.39c0-.73.23-1.41.68-2.04s1.09-1.12,1.92-1.47,1.76-.53,2.79-.53c1.56,0,2.8.39,3.72,1.18s1.38,1.89,1.38,3.31v5.5c0,1.2.18,2.11.5,2.73v.2h-3.42ZM159.52,36.04c.5,0,.96-.11,1.38-.33s.73-.52.94-.9v-2.18h-1.27c-1.7,0-2.6.59-2.71,1.76v.2c-.01.42.14.77.43,1.04s.7.41,1.22.41Z"></path><path class="f" d="M171.02,25.71l.11,1.42c.9-1.1,2.11-1.65,3.64-1.65,1.63,0,2.75.64,3.36,1.93.89-1.29,2.16-1.93,3.81-1.93,1.38,0,2.4.4,3.07,1.2s1.01,2.01,1.01,3.62v8.1h-3.4v-8.09c0-.72-.14-1.24-.42-1.58s-.78-.5-1.49-.5c-1.02,0-1.72.48-2.11,1.45v8.71s-3.38,0-3.38,0v-8.07c0-.73-.14-1.27-.43-1.59s-.78-.49-1.48-.49c-.96,0-1.66.4-2.09,1.2v8.96h-3.39v-12.68h3.18Z"></path></g><g class="h"><path class="f" d="M85.2,106.47h-2.34v-11.38h2.34v11.38Z"></path><path class="f" d="M89.3,98.01l.07.98c.6-.75,1.41-1.13,2.43-1.13.9,0,1.56.26,2,.79s.66,1.31.67,2.36v5.46h-2.26v-5.41c0-.48-.1-.83-.31-1.04s-.55-.32-1.04-.32c-.64,0-1.11.27-1.43.81v5.96h-2.26v-8.45h2.12Z"></path><path class="f" d="M100.76,104.13c0-.28-.14-.49-.41-.65s-.71-.3-1.32-.43c-2.01-.42-3.02-1.28-3.02-2.56,0-.75.31-1.38.93-1.88s1.44-.75,2.44-.75c1.07,0,1.93.25,2.57.76s.96,1.16.96,1.97h-2.26c0-.32-.1-.59-.31-.8s-.53-.32-.98-.32c-.38,0-.67.09-.88.26s-.31.39-.31.66c0,.25.12.45.36.61s.64.29,1.2.4,1.04.24,1.42.38c1.19.44,1.79,1.2,1.79,2.27,0,.77-.33,1.39-.99,1.87s-1.52.71-2.56.71c-.71,0-1.34-.13-1.89-.38s-.98-.6-1.29-1.04-.47-.92-.47-1.43h2.14c.02.4.17.71.45.92s.65.32,1.11.32c.43,0,.76-.08.98-.25s.33-.38.33-.64Z"></path><path class="f" d="M107.12,95.93v2.08h1.45v1.66h-1.45v4.22c0,.31.06.54.18.67s.35.2.69.2c.25,0,.47-.02.66-.05v1.71c-.44.14-.9.2-1.37.2-1.58,0-2.39-.8-2.42-2.4v-4.55h-1.23v-1.66h1.23v-2.08h2.26Z"></path><path class="f" d="M109.8,95.82c0-.34.11-.62.34-.84s.54-.33.93-.33.69.11.92.33.34.5.34.84-.12.62-.35.84-.54.33-.92.33-.69-.11-.92-.33-.35-.5-.35-.84ZM112.2,106.47h-2.27v-8.45h2.27v8.45Z"></path><path class="f" d="M116.76,95.93v2.08h1.45v1.66h-1.45v4.22c0,.31.06.54.18.67s.35.2.69.2c.25,0,.47-.02.66-.05v1.71c-.44.14-.9.2-1.37.2-1.58,0-2.39-.8-2.42-2.4v-4.55h-1.23v-1.66h1.23v-2.08h2.26Z"></path><path class="f" d="M124.53,105.61c-.56.68-1.33,1.02-2.31,1.02-.91,0-1.6-.26-2.07-.78s-.72-1.28-.73-2.29v-5.54h2.26v5.47c0,.88.4,1.32,1.2,1.32s1.29-.27,1.58-.8v-5.99h2.27v8.45h-2.12l-.06-.86Z"></path><path class="f" d="M131.12,95.93v2.08h1.45v1.66h-1.45v4.22c0,.31.06.54.18.67s.35.2.69.2c.25,0,.47-.02.66-.05v1.71c-.44.14-.9.2-1.37.2-1.58,0-2.39-.8-2.42-2.4v-4.55h-1.23v-1.66h1.23v-2.08h2.26Z"></path><path class="f" d="M133.81,95.82c0-.34.11-.62.34-.84s.54-.33.93-.33.69.11.92.33.34.5.34.84-.12.62-.35.84-.54.33-.92.33-.69-.11-.92-.33-.35-.5-.35-.84ZM136.21,106.47h-2.27v-8.45h2.27v8.45Z"></path><path class="f" d="M137.72,102.16c0-.84.16-1.59.48-2.24s.79-1.16,1.39-1.52,1.31-.54,2.11-.54c1.14,0,2.07.35,2.79,1.05s1.12,1.65,1.21,2.84l.02.58c0,1.3-.36,2.34-1.09,3.12s-1.7,1.18-2.91,1.18-2.19-.39-2.92-1.17-1.09-1.84-1.09-3.19v-.1ZM139.97,102.32c0,.8.15,1.42.45,1.84s.73.64,1.3.64.97-.21,1.28-.63.46-1.09.46-2.01c0-.79-.15-1.4-.46-1.83s-.74-.65-1.3-.65-.98.21-1.28.65-.45,1.1-.45,2Z"></path><path class="f" d="M149.19,98.01l.07.98c.6-.75,1.41-1.13,2.43-1.13.9,0,1.56.26,2,.79s.66,1.31.67,2.36v5.46h-2.26v-5.41c0-.48-.1-.83-.31-1.04s-.55-.32-1.04-.32c-.64,0-1.11.27-1.43.81v5.96h-2.26v-8.45h2.12Z"></path><path class="f" d="M160.97,106.47c-.1-.2-.18-.46-.23-.76-.55.61-1.26.91-2.13.91-.83,0-1.51-.24-2.06-.72s-.82-1.08-.82-1.81c0-.9.33-1.58,1-2.06s1.62-.72,2.88-.73h1.04v-.48c0-.39-.1-.7-.3-.94s-.52-.35-.95-.35c-.38,0-.68.09-.89.27s-.32.43-.32.75h-2.26c0-.49.15-.94.45-1.36s.73-.74,1.28-.98,1.17-.36,1.86-.36c1.04,0,1.87.26,2.48.79s.92,1.26.92,2.21v3.66c0,.8.12,1.41.34,1.82v.13h-2.28ZM159.11,104.9c.33,0,.64-.07.92-.22s.49-.35.62-.6v-1.45h-.84c-1.13,0-1.73.39-1.8,1.17v.13c0,.28.09.51.29.7s.47.27.81.27Z"></path><path class="f" d="M167.04,106.47h-2.27v-12h2.27v12Z"></path><path class="f" d="M173.29,102.5h-4.4v-1.82h4.4v1.82Z"></path><path class="f" d="M184.25,105.03c-.42.5-1.02.9-1.79,1.18s-1.62.42-2.56.42c-.98,0-1.85-.21-2.59-.64s-1.32-1.05-1.72-1.87-.61-1.78-.62-2.88v-.77c0-1.14.19-2.12.57-2.95s.93-1.47,1.66-1.91,1.57-.66,2.54-.66c1.35,0,2.4.32,3.16.96s1.21,1.58,1.35,2.81h-2.28c-.1-.65-.33-1.13-.69-1.43s-.85-.45-1.47-.45c-.8,0-1.4.3-1.82.9s-.63,1.49-.63,2.67v.73c0,1.19.23,2.09.68,2.7s1.12.91,1.99.91,1.51-.19,1.88-.56v-1.96h-2.13v-1.73h4.48v4.54Z"></path><path class="f" d="M190.75,100.13c-.31-.04-.58-.06-.81-.06-.85,0-1.41.29-1.68.87v5.53h-2.26v-8.45h2.13l.06,1.01c.45-.78,1.08-1.16,1.88-1.16.25,0,.48.03.7.1l-.03,2.17Z"></path><path class="f" d="M196.5,106.47c-.1-.2-.18-.46-.23-.76-.55.61-1.26.91-2.13.91-.83,0-1.51-.24-2.06-.72s-.82-1.08-.82-1.81c0-.9.33-1.58,1-2.06s1.62-.72,2.88-.73h1.04v-.48c0-.39-.1-.7-.3-.94s-.52-.35-.95-.35c-.38,0-.68.09-.89.27s-.32.43-.32.75h-2.26c0-.49.15-.94.45-1.36s.73-.74,1.28-.98,1.17-.36,1.86-.36c1.04,0,1.87.26,2.48.79s.92,1.26.92,2.21v3.66c0,.8.12,1.41.34,1.82v.13h-2.28ZM194.63,104.9c.33,0,.64-.07.92-.22s.49-.35.62-.6v-1.45h-.84c-1.13,0-1.73.39-1.8,1.17v.13c0,.28.09.51.29.7s.47.27.81.27Z"></path><path class="f" d="M199.83,102.18c0-1.32.3-2.37.89-3.15s1.4-1.17,2.43-1.17c.82,0,1.5.31,2.04.92v-4.31h2.27v12h-2.04l-.11-.9c-.56.7-1.29,1.05-2.17,1.05-1,0-1.79-.39-2.39-1.18s-.9-1.87-.9-3.27ZM202.08,102.34c0,.79.14,1.4.41,1.82s.68.63,1.2.63c.7,0,1.19-.29,1.48-.88v-3.34c-.28-.59-.77-.88-1.46-.88-1.09,0-1.63.88-1.63,2.65Z"></path><path class="f" d="M213.08,106.62c-1.24,0-2.25-.38-3.03-1.14s-1.17-1.77-1.17-3.04v-.22c0-.85.16-1.61.49-2.28s.79-1.18,1.39-1.55,1.29-.54,2.06-.54c1.16,0,2.07.36,2.73,1.09s1,1.76,1,3.1v.92h-5.38c.07.55.29,1,.66,1.33s.83.5,1.39.5c.87,0,1.55-.32,2.04-.95l1.11,1.24c-.34.48-.8.85-1.38,1.12s-1.22.4-1.92.4ZM212.83,99.68c-.45,0-.81.15-1.09.46s-.46.74-.54,1.3h3.14v-.18c-.01-.5-.15-.89-.41-1.17s-.63-.41-1.11-.41Z"></path><path class="f" d="M221.97,106.47v-11.38h3.5c1,0,1.89.23,2.68.68s1.41,1.09,1.85,1.92.66,1.77.66,2.83v.52c0,1.06-.22,2-.65,2.82s-1.05,1.46-1.84,1.91-1.68.68-2.68.69h-3.52ZM224.32,96.99v7.59h1.13c.92,0,1.62-.3,2.1-.9s.73-1.46.74-2.57v-.6c0-1.16-.24-2.03-.72-2.63s-1.18-.89-2.1-.89h-1.16Z"></path><path class="f" d="M237.12,106.47c-.1-.2-.18-.46-.23-.76-.55.61-1.26.91-2.13.91-.83,0-1.51-.24-2.06-.72s-.82-1.08-.82-1.81c0-.9.33-1.58,1-2.06s1.62-.72,2.88-.73h1.04v-.48c0-.39-.1-.7-.3-.94s-.52-.35-.95-.35c-.38,0-.68.09-.89.27s-.32.43-.32.75h-2.26c0-.49.15-.94.45-1.36s.73-.74,1.28-.98,1.17-.36,1.86-.36c1.04,0,1.87.26,2.48.79s.92,1.26.92,2.21v3.66c0,.8.12,1.41.34,1.82v.13h-2.28ZM235.26,104.9c.33,0,.64-.07.92-.22s.49-.35.62-.6v-1.45h-.84c-1.13,0-1.73.39-1.8,1.17v.13c0,.28.09.51.29.7s.47.27.81.27Z"></path><path class="f" d="M243.51,95.93v2.08h1.45v1.66h-1.45v4.22c0,.31.06.54.18.67s.35.2.69.2c.25,0,.47-.02.66-.05v1.71c-.44.14-.9.2-1.37.2-1.58,0-2.39-.8-2.42-2.4v-4.55h-1.23v-1.66h1.23v-2.08h2.26Z"></path><path class="f" d="M251.11,106.47c-.11-.2-.18-.46-.23-.76-.55.61-1.26.91-2.13.91-.83,0-1.51-.24-2.06-.72s-.82-1.08-.82-1.81c0-.9.33-1.58,1-2.06s1.62-.72,2.88-.73h1.04v-.48c0-.39-.1-.7-.3-.94s-.52-.35-.95-.35c-.38,0-.68.09-.89.27s-.32.43-.32.75h-2.26c0-.49.15-.94.45-1.36s.73-.74,1.28-.98,1.17-.36,1.86-.36c1.04,0,1.87.26,2.48.79.61.52.92,1.26.92,2.21v3.66c0,.8.12,1.41.34,1.82v.13h-2.28ZM249.24,104.9c.33,0,.64-.07.92-.22s.49-.35.62-.6v-1.45h-.84c-1.13,0-1.73.39-1.8,1.17v.13c0,.28.09.51.29.7s.47.27.81.27Z"></path></g><g class="h"><path class="f" d="M86.37,139.49h-2.34v-11.38h2.34v11.38Z"></path><path class="f" d="M90.47,131.04l.07.98c.6-.75,1.41-1.13,2.43-1.13.9,0,1.56.26,2,.79s.66,1.31.67,2.36v5.46h-2.26v-5.41c0-.48-.1-.83-.31-1.04-.21-.22-.55-.32-1.04-.32-.64,0-1.11.27-1.43.81v5.96h-2.26v-8.45h2.12Z"></path><path class="f" d="M100.05,128.96v2.08h1.45v1.66h-1.45v4.22c0,.31.06.54.18.67.12.14.35.2.69.2.25,0,.47-.02.66-.05v1.71c-.44.14-.9.2-1.37.2-1.58,0-2.39-.8-2.42-2.4v-4.55h-1.23v-1.66h1.23v-2.08h2.26Z"></path><path class="f" d="M106.65,139.65c-1.24,0-2.25-.38-3.03-1.14-.78-.76-1.17-1.77-1.17-3.04v-.22c0-.85.16-1.61.49-2.28s.79-1.18,1.39-1.55,1.29-.54,2.06-.54c1.16,0,2.07.36,2.73,1.09s1,1.76,1,3.1v.92h-5.38c.07.55.29,1,.66,1.33s.83.5,1.39.5c.87,0,1.55-.32,2.04-.95l1.11,1.24c-.34.48-.8.85-1.38,1.12s-1.22.4-1.92.4ZM106.39,132.71c-.45,0-.81.15-1.09.46-.28.3-.46.74-.54,1.3h3.14v-.18c-.01-.5-.15-.89-.41-1.17-.26-.27-.63-.41-1.11-.41Z"></path><path class="f" d="M113.79,139.49h-2.27v-12h2.27v12Z"></path><path class="f" d="M118.03,139.49h-2.27v-12h2.27v12Z"></path><path class="f" d="M119.87,128.85c0-.34.11-.62.34-.84s.54-.33.93-.33.69.11.92.33c.23.22.34.5.34.84s-.12.62-.35.84c-.23.22-.54.33-.92.33s-.69-.11-.92-.33c-.23-.22-.35-.5-.35-.84ZM122.27,139.49h-2.27v-8.45h2.27v8.45Z"></path><path class="f" d="M123.8,135.21c0-1.3.31-2.34.93-3.13s1.45-1.19,2.5-1.19c.93,0,1.65.32,2.16.95l.09-.8h2.05v8.17c0,.74-.17,1.38-.5,1.93s-.81.96-1.42,1.25-1.32.43-2.14.43c-.62,0-1.22-.12-1.81-.37-.59-.25-1.03-.57-1.34-.96l1-1.38c.56.63,1.24.95,2.05.95.6,0,1.06-.16,1.4-.48.33-.32.5-.77.5-1.36v-.45c-.52.59-1.21.88-2.05.88-1.02,0-1.84-.4-2.46-1.19-.63-.79-.94-1.85-.94-3.16v-.09ZM126.06,135.37c0,.77.15,1.37.46,1.8.31.44.73.65,1.27.65.69,0,1.18-.26,1.48-.77v-3.56c-.3-.52-.79-.77-1.46-.77-.54,0-.97.22-1.28.67-.31.44-.46,1.11-.46,1.99Z"></path><path class="f" d="M137.15,139.65c-1.24,0-2.25-.38-3.03-1.14-.78-.76-1.17-1.77-1.17-3.04v-.22c0-.85.16-1.61.49-2.28s.79-1.18,1.39-1.55,1.29-.54,2.06-.54c1.16,0,2.07.36,2.73,1.09s1,1.76,1,3.1v.92h-5.38c.07.55.29,1,.66,1.33s.83.5,1.39.5c.87,0,1.55-.32,2.04-.95l1.11,1.24c-.34.48-.8.85-1.38,1.12s-1.22.4-1.92.4ZM136.9,132.71c-.45,0-.81.15-1.09.46-.28.3-.46.74-.54,1.3h3.14v-.18c-.01-.5-.15-.89-.41-1.17-.26-.27-.63-.41-1.11-.41Z"></path><path class="f" d="M143.99,131.04l.07.98c.6-.75,1.41-1.13,2.43-1.13.9,0,1.56.26,2,.79s.66,1.31.67,2.36v5.46h-2.26v-5.41c0-.48-.1-.83-.31-1.04-.21-.22-.55-.32-1.04-.32-.64,0-1.11.27-1.43.81v5.96h-2.26v-8.45h2.12Z"></path><path class="f" d="M153.58,128.96v2.08h1.45v1.66h-1.45v4.22c0,.31.06.54.18.67.12.14.35.2.69.2.25,0,.47-.02.66-.05v1.71c-.44.14-.9.2-1.37.2-1.58,0-2.39-.8-2.42-2.4v-4.55h-1.23v-1.66h1.23v-2.08h2.26Z"></path><path class="f" d="M158.66,139.49h-2.27v-12h2.27v12Z"></path><path class="f" d="M163.68,136.3l1.56-5.26h2.42l-3.4,9.77-.19.45c-.51,1.1-1.34,1.66-2.5,1.66-.33,0-.66-.05-1-.15v-1.71h.34c.43,0,.75-.06.96-.19s.38-.35.5-.65l.27-.7-2.96-8.48h2.43l1.57,5.26Z"></path><path class="f" d="M178.58,136.51c0-.44-.16-.78-.47-1.02s-.88-.49-1.69-.75-1.46-.52-1.93-.78c-1.29-.7-1.94-1.64-1.94-2.82,0-.61.17-1.16.52-1.64.35-.48.84-.86,1.49-1.13s1.38-.41,2.18-.41,1.54.15,2.17.44c.63.29,1.13.71,1.48,1.25s.53,1.15.53,1.83h-2.34c0-.52-.16-.93-.49-1.21s-.79-.43-1.38-.43-1.02.12-1.34.36c-.32.24-.48.56-.48.96,0,.37.19.68.56.93.37.25.92.48,1.64.7,1.33.4,2.3.9,2.91,1.49s.91,1.33.91,2.22c0,.98-.37,1.76-1.12,2.32-.75.56-1.75.84-3.01.84-.88,0-1.67-.16-2.39-.48s-1.27-.76-1.64-1.32c-.38-.56-.57-1.2-.57-1.94h2.35c0,1.25.75,1.88,2.25,1.88.56,0,.99-.11,1.3-.34s.47-.54.47-.95Z"></path><path class="f" d="M185.08,128.96v2.08h1.45v1.66h-1.45v4.22c0,.31.06.54.18.67.12.14.35.2.69.2.25,0,.47-.02.66-.05v1.71c-.44.14-.9.2-1.37.2-1.58,0-2.39-.8-2.42-2.4v-4.55h-1.23v-1.66h1.23v-2.08h2.26Z"></path><path class="f" d="M192.53,133.16c-.31-.04-.58-.06-.81-.06-.85,0-1.41.29-1.68.87v5.53h-2.26v-8.45h2.13l.06,1.01c.45-.78,1.08-1.16,1.88-1.16.25,0,.48.03.7.1l-.03,2.17Z"></path><path class="f" d="M198.68,138.64c-.56.68-1.33,1.02-2.31,1.02-.91,0-1.6-.26-2.07-.78s-.72-1.28-.73-2.29v-5.54h2.26v5.47c0,.88.4,1.32,1.2,1.32s1.29-.27,1.58-.8v-5.99h2.27v8.45h-2.12l-.06-.86Z"></path><path class="f" d="M206.08,137.83c.42,0,.75-.11,1.02-.34.26-.23.4-.53.41-.91h2.12c0,.57-.16,1.1-.47,1.57-.31.48-.73.85-1.26,1.11-.53.26-1.12.39-1.77.39-1.21,0-2.16-.38-2.86-1.15-.7-.77-1.05-1.83-1.05-3.18v-.15c0-1.3.35-2.34,1.04-3.12.69-.78,1.64-1.16,2.85-1.16,1.06,0,1.9.3,2.54.9.64.6.96,1.4.97,2.4h-2.12c-.01-.44-.15-.8-.41-1.07-.26-.27-.6-.41-1.03-.41-.53,0-.92.19-1.19.58-.27.38-.4,1-.4,1.87v.23c0,.87.13,1.5.4,1.88s.67.57,1.21.57Z"></path><path class="f" d="M213.62,128.96v2.08h1.45v1.66h-1.45v4.22c0,.31.06.54.18.67.12.14.35.2.69.2.25,0,.47-.02.66-.05v1.71c-.44.14-.9.2-1.37.2-1.58,0-2.39-.8-2.42-2.4v-4.55h-1.23v-1.66h1.23v-2.08h2.26Z"></path><path class="f" d="M221.38,138.64c-.56.68-1.33,1.02-2.31,1.02-.91,0-1.6-.26-2.07-.78s-.72-1.28-.73-2.29v-5.54h2.26v5.47c0,.88.4,1.32,1.2,1.32s1.29-.27,1.58-.8v-5.99h2.27v8.45h-2.12l-.06-.86Z"></path><path class="f" d="M230.02,133.16c-.31-.04-.58-.06-.81-.06-.85,0-1.41.29-1.68.87v5.53h-2.26v-8.45h2.13l.06,1.01c.45-.78,1.08-1.16,1.88-1.16.25,0,.48.03.7.1l-.03,2.17Z"></path><path class="f" d="M234.85,139.65c-1.24,0-2.25-.38-3.03-1.14-.78-.76-1.17-1.77-1.17-3.04v-.22c0-.85.16-1.61.49-2.28s.79-1.18,1.39-1.55,1.29-.54,2.06-.54c1.16,0,2.07.36,2.73,1.09s1,1.76,1,3.1v.92h-5.38c.07.55.29,1,.66,1.33s.83.5,1.39.5c.87,0,1.55-.32,2.04-.95l1.11,1.24c-.34.48-.8.85-1.38,1.12s-1.22.4-1.92.4ZM234.59,132.71c-.45,0-.81.15-1.09.46-.28.3-.46.74-.54,1.3h3.14v-.18c-.01-.5-.15-.89-.41-1.17-.26-.27-.63-.41-1.11-.41Z"></path><path class="f" d="M239.26,135.21c0-1.32.29-2.37.89-3.15.59-.78,1.4-1.17,2.43-1.17.82,0,1.5.31,2.04.92v-4.31h2.27v12h-2.04l-.11-.9c-.56.7-1.29,1.05-2.17,1.05-1,0-1.79-.39-2.39-1.18s-.9-1.87-.9-3.27ZM241.51,135.37c0,.79.14,1.4.41,1.82.28.42.68.63,1.2.63.7,0,1.19-.29,1.48-.88v-3.34c-.28-.59-.77-.88-1.46-.88-1.09,0-1.63.88-1.63,2.65Z"></path></g><g class="h"><path class="f" d="M89.77,169.05c0-.44-.16-.78-.47-1.02s-.88-.49-1.69-.75-1.46-.52-1.93-.78c-1.29-.7-1.94-1.64-1.94-2.82,0-.61.17-1.16.52-1.64.35-.48.84-.86,1.49-1.13s1.38-.41,2.18-.41,1.54.15,2.17.44c.63.29,1.13.71,1.48,1.25s.53,1.15.53,1.83h-2.34c0-.52-.16-.93-.49-1.21s-.79-.43-1.38-.43-1.02.12-1.34.36c-.32.24-.48.56-.48.96,0,.37.19.68.56.93.37.25.92.48,1.64.7,1.33.4,2.3.9,2.91,1.49s.91,1.33.91,2.22c0,.98-.37,1.76-1.12,2.32-.75.56-1.75.84-3.01.84-.88,0-1.67-.16-2.39-.48s-1.27-.76-1.64-1.32c-.38-.56-.57-1.2-.57-1.94h2.35c0,1.25.75,1.88,2.25,1.88.56,0,.99-.11,1.3-.34s.47-.54.47-.95Z"></path><path class="f" d="M93.55,161.39c0-.34.11-.62.34-.84s.54-.33.93-.33.69.11.92.33c.23.22.34.5.34.84s-.12.62-.35.84c-.23.22-.54.33-.92.33s-.69-.11-.92-.33c-.23-.22-.35-.5-.35-.84ZM95.94,172.03h-2.27v-8.45h2.27v8.45Z"></path><path class="f" d="M99.92,163.58l.07.95c.6-.73,1.41-1.1,2.43-1.1,1.09,0,1.84.43,2.24,1.29.59-.86,1.44-1.29,2.54-1.29.92,0,1.6.27,2.05.8.45.53.67,1.34.67,2.41v5.4h-2.27v-5.39c0-.48-.09-.83-.28-1.05s-.52-.33-.99-.33c-.68,0-1.15.32-1.41.97v5.8s-2.25,0-2.25,0v-5.38c0-.49-.1-.84-.29-1.06-.19-.22-.52-.33-.98-.33-.64,0-1.1.27-1.39.8v5.98h-2.26v-8.45h2.12Z"></path><path class="f" d="M119.26,167.89c0,1.3-.3,2.34-.89,3.13-.59.78-1.39,1.18-2.39,1.18-.85,0-1.54-.3-2.07-.89v3.98h-2.26v-11.7h2.09l.08.83c.55-.66,1.26-.98,2.14-.98,1.04,0,1.85.39,2.43,1.16s.87,1.83.87,3.19v.12ZM117.01,167.72c0-.79-.14-1.39-.42-1.82-.28-.43-.68-.64-1.21-.64-.71,0-1.2.27-1.46.81v3.46c.28.56.77.84,1.48.84,1.08,0,1.62-.88,1.62-2.65Z"></path><path class="f" d="M123.05,172.03h-2.27v-12h2.27v12Z"></path><path class="f" d="M128.8,172.19c-1.24,0-2.25-.38-3.03-1.14-.78-.76-1.17-1.77-1.17-3.04v-.22c0-.85.16-1.61.49-2.28s.79-1.18,1.39-1.55,1.29-.54,2.06-.54c1.16,0,2.07.36,2.73,1.09s1,1.76,1,3.1v.92h-5.38c.07.55.29,1,.66,1.33s.83.5,1.39.5c.87,0,1.55-.32,2.04-.95l1.11,1.24c-.34.48-.8.85-1.38,1.12s-1.22.4-1.92.4ZM128.54,165.25c-.45,0-.81.15-1.09.46-.28.3-.46.74-.54,1.3h3.14v-.18c-.01-.5-.15-.89-.41-1.17-.26-.27-.63-.41-1.11-.41Z"></path><path class="f" d="M140.18,172.03h-2.34v-11.38h2.34v11.38Z"></path><path class="f" d="M144.28,163.58l.07.98c.6-.75,1.41-1.13,2.43-1.13.9,0,1.56.26,2,.79s.66,1.31.67,2.36v5.46h-2.26v-5.41c0-.48-.1-.83-.31-1.04-.21-.22-.55-.32-1.04-.32-.64,0-1.11.27-1.43.81v5.96h-2.26v-8.45h2.12Z"></path><path class="f" d="M153.87,161.5v2.08h1.45v1.66h-1.45v4.22c0,.31.06.54.18.67.12.14.35.2.69.2.25,0,.47-.02.66-.05v1.71c-.44.14-.9.2-1.37.2-1.58,0-2.39-.8-2.42-2.4v-4.55h-1.23v-1.66h1.23v-2.08h2.26Z"></path><path class="f" d="M160.46,172.19c-1.24,0-2.25-.38-3.03-1.14-.78-.76-1.17-1.77-1.17-3.04v-.22c0-.85.16-1.61.49-2.28s.79-1.18,1.39-1.55,1.29-.54,2.06-.54c1.16,0,2.07.36,2.73,1.09s1,1.76,1,3.1v.92h-5.38c.07.55.29,1,.66,1.33s.83.5,1.39.5c.87,0,1.55-.32,2.04-.95l1.11,1.24c-.34.48-.8.85-1.38,1.12s-1.22.4-1.92.4ZM160.2,165.25c-.45,0-.81.15-1.09.46-.28.3-.46.74-.54,1.3h3.14v-.18c-.01-.5-.15-.89-.41-1.17-.26-.27-.63-.41-1.11-.41Z"></path><path class="f" d="M164.89,167.75c0-1.3.31-2.34.93-3.13s1.45-1.19,2.5-1.19c.93,0,1.65.32,2.16.95l.09-.8h2.05v8.17c0,.74-.17,1.38-.5,1.93s-.81.96-1.42,1.25-1.32.43-2.14.43c-.62,0-1.22-.12-1.81-.37-.59-.25-1.03-.57-1.34-.96l1-1.38c.56.63,1.24.95,2.05.95.6,0,1.06-.16,1.4-.48.33-.32.5-.77.5-1.36v-.45c-.52.59-1.21.88-2.05.88-1.02,0-1.84-.4-2.46-1.19-.63-.79-.94-1.85-.94-3.16v-.09ZM167.15,167.91c0,.77.15,1.37.46,1.8.31.44.73.65,1.27.65.69,0,1.18-.26,1.48-.77v-3.56c-.3-.52-.79-.77-1.46-.77-.54,0-.97.22-1.28.67-.31.44-.46,1.11-.46,1.99Z"></path><path class="f" d="M179.1,165.7c-.31-.04-.58-.06-.81-.06-.85,0-1.41.29-1.68.87v5.53h-2.26v-8.45h2.13l.06,1.01c.45-.78,1.08-1.16,1.88-1.16.25,0,.48.03.7.1l-.03,2.17Z"></path><path class="f" d="M184.85,172.03c-.1-.2-.18-.46-.23-.76-.55.61-1.26.91-2.13.91-.83,0-1.51-.24-2.06-.72-.54-.48-.82-1.08-.82-1.81,0-.9.33-1.58,1-2.06s1.62-.72,2.88-.73h1.04v-.48c0-.39-.1-.7-.3-.94-.2-.23-.52-.35-.95-.35-.38,0-.68.09-.89.27-.22.18-.32.43-.32.75h-2.26c0-.49.15-.94.45-1.36.3-.42.73-.74,1.28-.98.55-.24,1.17-.36,1.86-.36,1.04,0,1.87.26,2.48.79.61.52.92,1.26.92,2.21v3.66c0,.8.12,1.41.34,1.82v.13h-2.28ZM182.98,170.46c.33,0,.64-.07.92-.22s.49-.35.62-.6v-1.45h-.84c-1.13,0-1.73.39-1.8,1.17v.13c0,.28.09.51.29.7.2.18.47.27.81.27Z"></path><path class="f" d="M191.23,161.5v2.08h1.45v1.66h-1.45v4.22c0,.31.06.54.18.67.12.14.35.2.69.2.25,0,.47-.02.66-.05v1.71c-.44.14-.9.2-1.37.2-1.58,0-2.39-.8-2.42-2.4v-4.55h-1.23v-1.66h1.23v-2.08h2.26Z"></path><path class="f" d="M193.92,161.39c0-.34.11-.62.34-.84s.54-.33.93-.33.69.11.92.33c.23.22.34.5.34.84s-.12.62-.35.84c-.23.22-.54.33-.92.33s-.69-.11-.92-.33c-.23-.22-.35-.5-.35-.84ZM196.32,172.03h-2.27v-8.45h2.27v8.45Z"></path><path class="f" d="M197.83,167.73c0-.84.16-1.59.48-2.24.32-.66.79-1.16,1.39-1.52.61-.36,1.31-.54,2.11-.54,1.14,0,2.07.35,2.79,1.05.72.7,1.12,1.65,1.21,2.84l.02.58c0,1.3-.36,2.34-1.09,3.12-.72.78-1.7,1.18-2.91,1.18s-2.19-.39-2.92-1.17-1.09-1.84-1.09-3.19v-.1ZM200.08,167.89c0,.8.15,1.42.45,1.84.3.42.73.64,1.3.64s.97-.21,1.28-.63c.31-.42.46-1.09.46-2.01,0-.79-.15-1.4-.46-1.83-.31-.43-.74-.65-1.3-.65s-.98.21-1.28.65c-.3.43-.45,1.1-.45,2Z"></path><path class="f" d="M209.3,163.58l.07.98c.6-.75,1.41-1.13,2.43-1.13.9,0,1.56.26,2,.79s.66,1.31.67,2.36v5.46h-2.26v-5.41c0-.48-.1-.83-.31-1.04-.21-.22-.55-.32-1.04-.32-.64,0-1.11.27-1.43.81v5.96h-2.26v-8.45h2.12Z"></path></g><g class="g"><g><path class="f" d="M64.03,174.64v-11.34c0-2.79-2.28-5.07-5.07-5.07h-5.07v-4.05l-5.07,5.07,5.07,5.07v-4.05h5.07c1.69,0,3.04,1.35,3.04,3.04v11.34c-1.17.42-2.03,1.54-2.03,2.85,0,1.67,1.37,3.04,3.04,3.04s3.04-1.37,3.04-3.04c0-1.31-.85-2.43-2.03-2.85ZM63.01,178.51c-.57,0-1.01-.44-1.01-1.01s.44-1.01,1.01-1.01,1.01.44,1.01,1.01-.44,1.01-1.01,1.01Z"></path><path class="f" d="M47.81,159.25c0-1.67-1.37-3.04-3.04-3.04s-3.04,1.37-3.04,3.04c0,1.31.85,2.43,2.03,2.85v12.54c-1.17.42-2.03,1.54-2.03,2.85,0,1.67,1.37,3.04,3.04,3.04s3.04-1.37,3.04-3.04c0-1.31-.85-2.43-2.03-2.85v-12.54c1.17-.42,2.03-1.54,2.03-2.85ZM44.77,178.51c-.57,0-1.01-.44-1.01-1.01s.44-1.01,1.01-1.01,1.01.44,1.01,1.01-.44,1.01-1.01,1.01ZM44.77,160.27c-.57,0-1.01-.44-1.01-1.01s.44-1.01,1.01-1.01,1.01.44,1.01,1.01-.44,1.01-1.01,1.01Z"></path></g></g><g><g><path class="f" d="M67.4,142.56h-12.04v-15.48h9.89l2.15,2.15v13.33ZM56.84,141.08h9.09v-11.24l-1.29-1.29h-7.8v12.53Z"></path><rect class="f" x="58.19" y="138.5" width="6.63" height=".98"></rect><rect class="f" x="58.19" y="136.54" width="6.63" height=".98"></rect><rect class="f" x="58.19" y="134.33" width="6.63" height=".98"></rect></g><g><g><g><path class="f" d="M49.96,147.35h-9.58v-11.3h6.94l2.64,2.64v8.66ZM41.85,145.87h6.63v-6.57l-1.78-1.78h-4.85v8.35Z"></path><rect class="f" x="43.2" y="143.54" width="4.42" height=".98"></rect><rect class="f" x="43.2" y="141.58" width="4.42" height=".98"></rect></g><g><rect class="f" x="49.84" y="139.86" width="3.5" height=".98"></rect><polygon class="f" points="52.17 141.35 53.17 140.35 52.17 139.35 53.01 139.35 54.01 140.35 53.01 141.35 52.17 141.35"></polygon></g></g><g><g><rect class="f" x="43.2" y="130.03" width="4.42" height=".98"></rect><path class="f" d="M49.96,133.59h-9.58v-11.3h6.94l2.64,2.64v8.66ZM41.85,132.12h6.63v-6.57l-1.78-1.78h-4.85v8.35Z"></path></g><g><rect class="f" x="49.84" y="129.29" width="3.5" height=".98"></rect><polygon class="f" points="52.17 130.78 53.17 129.78 52.17 128.78 53.01 128.78 54.01 129.78 53.01 130.78 52.17 130.78"></polygon></g></g></g></g><g><path class="f" d="M40.26,88.16v27.26h27.26v-27.26h-27.26ZM48.25,91.35v-1.6h1.6v1.6h-1.6ZM45.05,91.35v-1.6h1.6v1.6h-1.6ZM41.86,89.76h1.6v1.6h-1.6v-1.6ZM65.93,113.82h-24.07v-20.87h24.07v20.87ZM51.44,91.35v-1.6h14.48v1.6h-14.48Z"></path><path class="f" d="M49.43,105.55c.14.23.3.43.48.62l-1.59,5.13,2.54-.11,2.03,1.53,1-3.22,1,3.22,2.03-1.53,2.54.11-1.59-5.13c.18-.18.34-.39.48-.62.99-.6,1.61-1.67,1.63-2.83.56-1.01.56-2.25,0-3.27-.02-1.16-.64-2.23-1.63-2.83-.6-.99-1.67-1.61-2.83-1.63-1.01-.56-2.25-.56-3.27,0-1.16.02-2.23.64-2.83,1.63-.99.6-1.61,1.67-1.63,2.83-.56,1.01-.56,2.25,0,3.27.02,1.16.64,2.23,1.63,2.83ZM51.36,109.57l-.85.04.8-2.58c.3.1.62.15.94.16.19.11.39.19.6.26l-.82,2.64-.68-.51ZM56.42,109.57l-.68.51-.82-2.64c.21-.07.41-.15.6-.26.32,0,.64-.06.94-.16l.8,2.58-.85-.04ZM49.22,100.19l.18-.31v-.36c0-.64.34-1.23.9-1.55l.31-.18.18-.31c.32-.55.91-.9,1.55-.9h.36l.31-.18c.55-.32,1.24-.32,1.79,0l.31.18h.36c.64,0,1.23.34,1.55.9l.18.31.31.18c.55.32.9.91.9,1.55v.36l.18.31c.32.55.32,1.24,0,1.79l-.18.31v.36c0,.64-.34,1.23-.9,1.55l-.31.18-.18.31c-.32.55-.91.9-1.55.9h-.36l-.31.18c-.55.32-1.24.32-1.79,0l-.31-.18h-.36c-.64,0-1.23-.34-1.55-.9l-.18-.31-.31-.18c-.55-.32-.9-.91-.9-1.55v-.36l-.18-.31c-.32-.55-.32-1.24,0-1.79h0Z"></path><path class="f" d="M56.88,100.09l-1.13-1.13-2.56,2.56-1.16-1.16-1.13,1.13,2.29,2.29,3.69-3.69Z"></path></g></svg> 