<?xml version="1.0" encoding="UTF-8"?> <svg xmlns="http://www.w3.org/2000/svg" id="Layer_1" data-name="Layer 1" viewBox="0 0 46.93 39.11"><defs><style> .cls-1 { fill: #941b0c; } </style></defs><path class="cls-1" d="M43.02,16.09c-1.83,0-3.55,.71-4.85,2.01-.63,.64-1.13,1.38-1.47,2.21l-5.51,13.3-3.22-7.77c1.19-1.07,1.95-2.61,1.95-4.34,0-3.24-2.63-5.87-5.87-5.87-.1,0-.2,.03-.3,.03l-3.13-7.55c-.35-.83-.84-1.57-1.48-2.21-2.58-2.59-7.09-2.6-9.69,0-.64,.64-1.13,1.38-1.48,2.21L3.26,19.55H0v3.91H3.91c.81,0,1.54-.32,2.07-.86,.27-.27,.48-.59,.63-.95l4.98-12.02c.15-.35,.36-.68,.63-.95,.53-.53,1.26-.86,2.07-.86h0c.81,0,1.54,.33,2.07,.86,.27,.27,.49,.6,.64,.95l3.12,7.54c-1.19,1.07-1.95,2.61-1.95,4.34,0,3.24,2.63,5.86,5.87,5.86,.1,0,.2-.02,.3-.03l4.12,9.95c.15,.36,.37,.68,.64,.95,.53,.53,1.26,.86,2.07,.86h0c.81,0,1.54-.33,2.07-.86,.27-.27,.49-.59,.64-.95l6.41-15.48c.15-.36,.36-.68,.63-.95,.53-.53,1.26-.86,2.07-.86h3.91v-3.91h-3.91Zm-18.97,7.37c-1.08,0-1.96-.87-1.96-1.96s.87-1.96,1.96-1.96,1.96,.87,1.96,1.96-.87,1.96-1.96,1.96Z"></path><rect class="cls-1" x="35.2" width="7.82" height="3.91"></rect><rect class="cls-1" x="27.38" y="7.82" width="15.64" height="3.91"></rect><rect class="cls-1" x="3.91" y="35.2" width="11.73" height="3.91"></rect><rect class="cls-1" x="3.91" y="27.38" width="3.91" height="3.91"></rect></svg> 