<?xml version="1.0" encoding="UTF-8"?>
<svg id="Layer_1" xmlns="http://www.w3.org/2000/svg" version="1.1" viewBox="0 0 252 54.1">
  <!-- Generator: Adobe Illustrator 30.2.1, SVG Export Plug-In . SVG Version: 2.1.1 Build 1)  -->
  <defs>
    <style>
      .st0 {
        isolation: isolate;
      }

      .st1 {
        fill: #16283d;
      }

      .st2 {
        fill: #0c71c3;
      }
    </style>
  </defs>
  <g>
    <path class="st2" d="M14.6,51.1l1.6-32.2v-.2c0-.2-.2-.4-.5-.4H6.1c-.3,0-.5.2-.5.4l-1.5,32c0,.2.2.5.5.5h10Z"/>
    <path class="st1" d="M27.1,5.7h-8.5c-.3,0-.5.2-.5.4l-2.2,45h13.5c.3,0,.5-.2.5-.4l-2.2-44.6c0-.2-.2-.4-.5-.4"/>
  </g>
  <g>
    <g class="st0">
      <g class="st0">
        <path class="st1" d="M44.2,46.5c-1.1,0-2.2-.2-3.2-.5-1-.3-1.9-.8-2.8-1.5-.8-.6-1.6-1.4-2.2-2.4l1.2-1.2c1,1.4,2,2.4,3.2,3,1.2.6,2.5.9,3.8.9s2.2-.2,3.1-.6c.9-.4,1.7-1,2.2-1.7.5-.7.8-1.5.8-2.4s-.1-1.1-.3-1.6c-.2-.4-.5-.8-.9-1.2-.4-.3-.8-.6-1.4-.9s-1.1-.5-1.8-.7c-.7-.2-1.4-.4-2.2-.6-1.1-.3-2-.6-2.8-1-.8-.3-1.5-.7-2.1-1.2-.6-.5-1-1-1.3-1.6-.3-.6-.4-1.4-.4-2.3s.2-1.7.5-2.5c.4-.7.9-1.4,1.5-1.9.7-.5,1.4-1,2.3-1.3.9-.3,1.8-.4,2.8-.4s2.2.2,3.1.5c.9.3,1.7.8,2.4,1.4.7.6,1.3,1.3,1.8,2.2l-1.2,1.2c-.5-.7-1-1.4-1.6-1.9-.6-.5-1.3-1-2-1.3-.7-.3-1.6-.4-2.5-.4s-2,.2-2.8.6c-.8.4-1.5.9-2,1.6-.5.7-.7,1.5-.7,2.3s.1,1.2.3,1.6.6.9,1.1,1.2c.5.3,1.1.6,1.9.9.8.3,1.7.5,2.7.8,1.1.3,2.1.6,2.9.9.9.4,1.6.8,2.3,1.3.6.5,1.1,1.1,1.5,1.7.3.7.5,1.5.5,2.5s-.3,2.3-1,3.3c-.7,1-1.6,1.7-2.8,2.3-1.2.6-2.5.8-4.1.8Z"/>
        <path class="st1" d="M57.4,46.1v-23.1h8.9c1.2,0,2.2.3,3.1.9.9.6,1.6,1.4,2.2,2.4.5,1,.8,2.2.8,3.4s-.3,2.6-.8,3.7c-.5,1.1-1.2,1.9-2.2,2.5-.9.6-2,.9-3.1.9h-7.2v9.3h-1.6ZM59.1,35.1h7.5c.8,0,1.5-.2,2.1-.7.6-.5,1.1-1.1,1.4-1.9.4-.8.5-1.8.5-2.9s-.2-1.8-.5-2.5c-.4-.7-.8-1.3-1.4-1.8-.6-.4-1.3-.6-2.1-.6h-7.5v10.5Z"/>
        <path class="st1" d="M76.3,46.1v-1.7h3.7v-19.8h-3.7v-1.6h9.1v1.6h-3.7v19.8h3.7v1.7h-9.1Z"/>
        <path class="st1" d="M91.2,46.1v-23.1h8.4c1.5,0,2.9.3,4.2.9,1.3.6,2.4,1.4,3.4,2.4,1,1,1.7,2.2,2.3,3.6.6,1.4.8,3,.8,4.7s-.3,3.2-.8,4.6-1.3,2.6-2.3,3.7c-1,1-2.1,1.8-3.4,2.4-1.3.6-2.7.9-4.2.9h-8.4ZM92.8,45l-.5-.6h7.1c1.3,0,2.4-.2,3.5-.7,1.1-.5,2.1-1.2,2.9-2.1.8-.9,1.5-1.9,2-3.1.5-1.2.7-2.5.7-4s-.2-2.8-.7-4c-.5-1.2-1.1-2.2-2-3.1-.8-.9-1.8-1.6-2.9-2.1-1.1-.5-2.3-.7-3.5-.7h-7.2l.6-.5v20.9Z"/>
        <path class="st1" d="M115.6,46.1v-23.1h13.4v1.6h-11.8v19.8h11.6v1.7h-13.3ZM116.4,35v-1.6h10.8v1.6h-10.8Z"/>
        <path class="st1" d="M134.9,46.1v-23.1h8.3c1.4,0,2.6.3,3.6.9s1.9,1.4,2.5,2.5c.6,1,.9,2.2.9,3.5s-.3,2.5-.9,3.5c-.6,1-1.4,1.8-2.4,2.3-1,.6-2.2.8-3.5.8h-7v9.5h-1.6ZM136.5,35h7.2c.9,0,1.8-.2,2.5-.6s1.3-1,1.7-1.7.6-1.6.6-2.5-.2-2-.7-2.8-1.1-1.5-1.9-1.9c-.8-.5-1.8-.7-2.8-.7h-6.6v10.3ZM149.3,46.1l-5.7-9.9,1.4-.9,6.3,10.8h-1.9Z"/>
        <path class="st2" d="M155.6,46.1v-23.1h8.3c1.4,0,2.6.3,3.6.9s1.9,1.4,2.5,2.5c.6,1,.9,2.2.9,3.5s-.3,2.5-.9,3.5c-.6,1-1.4,1.8-2.4,2.3-1,.6-2.2.8-3.5.8h-7v9.5h-1.6ZM157.2,35h7.2c.9,0,1.8-.2,2.5-.6s1.3-1,1.7-1.7.6-1.6.6-2.5-.2-2-.7-2.8-1.1-1.5-1.9-1.9c-.8-.5-1.8-.7-2.8-.7h-6.6v10.3ZM170,46.1l-5.7-9.9,1.4-.9,6.3,10.8h-1.9Z"/>
        <path class="st2" d="M185.3,46.5c-1.6,0-3.2-.3-4.5-.9-1.4-.6-2.6-1.4-3.6-2.4-1-1-1.8-2.3-2.4-3.7-.5-1.4-.8-3-.8-4.7s.3-3.3.8-4.7c.5-1.4,1.3-2.7,2.4-3.7,1-1.1,2.2-1.9,3.6-2.5,1.4-.6,2.9-.9,4.5-.9s3.2.3,4.6.9c1.4.6,2.6,1.4,3.6,2.5,1,1.1,1.8,2.3,2.4,3.7.6,1.4.8,3,.8,4.7s-.3,3.3-.8,4.7c-.6,1.4-1.3,2.7-2.4,3.7-1,1-2.2,1.9-3.6,2.4-1.4.6-2.9.9-4.6.9ZM185.3,44.8c1.4,0,2.7-.2,3.8-.7s2.2-1.2,3.1-2.1c.9-.9,1.5-2,2-3.2.5-1.2.7-2.6.7-4.1s-.2-2.8-.7-4.1c-.5-1.2-1.1-2.3-2-3.2-.9-.9-1.9-1.6-3.1-2.1-1.2-.5-2.5-.8-3.8-.8s-2.7.3-3.8.8c-1.2.5-2.2,1.2-3,2.1-.8.9-1.5,2-2,3.2-.5,1.2-.7,2.6-.7,4.1s.2,2.8.7,4.1c.5,1.2,1.1,2.3,2,3.2.8.9,1.9,1.6,3,2.1s2.5.7,3.8.7Z"/>
        <path class="st2" d="M211.6,46.5c-1.7,0-3.2-.3-4.7-.9-1.4-.6-2.7-1.4-3.7-2.5-1-1.1-1.9-2.3-2.4-3.8s-.9-3-.9-4.8.3-3.3.8-4.7,1.3-2.7,2.4-3.7c1-1.1,2.2-1.9,3.6-2.4,1.4-.6,2.9-.9,4.5-.9s2.1.2,3.1.5c1.1.3,2,.8,2.9,1.4.9.6,1.7,1.3,2.2,2l-1.2,1.3c-.5-.7-1.1-1.3-1.9-1.9-.8-.5-1.6-1-2.5-1.3s-1.8-.5-2.7-.5c-1.4,0-2.7.2-3.8.7s-2.2,1.2-3,2.1c-.8.9-1.5,2-2,3.2-.5,1.2-.7,2.6-.7,4s.2,2.8.7,4.1c.5,1.3,1.2,2.3,2.1,3.3s1.9,1.6,3.1,2.1c1.2.5,2.5.8,4,.8s1.8-.1,2.6-.4c.9-.3,1.7-.6,2.4-1.1.7-.5,1.3-1,1.7-1.5l.9,1.5c-.5.6-1.2,1.2-2,1.6-.8.5-1.7.8-2.7,1.1-1,.3-1.9.4-2.9.4Z"/>
        <path class="st2" d="M224.1,46.1v-23.1h1.6v23.1h-1.6ZM225.1,39v-2.2l14-13.7h2.3l-16.3,15.9ZM239.7,46.1l-9.7-12.8,1.2-1.1,10.6,13.9h-2.1Z"/>
      </g>
    </g>
    <path class="st2" d="M246.1,21.7c-.6,0-1.1-.1-1.6-.4-.5-.3-.8-.6-1.1-1.1-.3-.5-.4-1-.4-1.5s0-.8.2-1.2c.2-.4.4-.7.7-1s.6-.5,1-.7c.4-.2.8-.2,1.2-.2s.8,0,1.2.2.7.4,1,.7c.3.3.5.6.7,1,.2.4.2.8.2,1.2s0,.8-.2,1.2c-.2.4-.4.7-.7,1-.3.3-.6.5-1,.7s-.8.2-1.2.2ZM246.1,21.2c.5,0,.9-.1,1.3-.3.4-.2.7-.5.9-.9s.4-.8.4-1.3-.1-.9-.4-1.3c-.2-.4-.5-.7-.9-.9-.4-.2-.8-.3-1.3-.3s-.9.1-1.3.3-.7.5-.9.9c-.2.4-.4.8-.4,1.3s.1.9.4,1.3.5.7.9.9.8.3,1.3.3ZM245.1,20.2v-3.2h1.3c.3,0,.6,0,.8.3.2.2.3.4.3.7s-.1.5-.3.7c-.2.2-.5.3-.8.3h-1.1l.3-.2v1.4h-.5ZM245.6,18.7l-.3-.2h.9c.2,0,.4,0,.5-.2.1-.1.2-.2.2-.4s0-.3-.2-.4c-.1,0-.3-.1-.5-.1h-1l.3-.2v1.5ZM246.9,20.2l-.7-1.3.5-.2.8,1.5h-.6Z"/>
  </g>
</svg>