<?xml version="1.0" encoding="UTF-8"?>
<svg id="Layer_1" xmlns="http://www.w3.org/2000/svg" version="1.1" viewBox="0 0 265.4 50">
  <!-- Generator: Adobe Illustrator 30.2.1, SVG Export Plug-In . SVG Version: 2.1.1 Build 1)  -->
  <defs>
    <style>
      .st0 {
        isolation: isolate;
      }

      .st1 {
        fill: #557187;
      }

      .st2 {
        fill: #16283d;
      }

      .st3 {
        fill: #0c71c3;
      }
    </style>
  </defs>
  <g>
    <path class="st3" d="M16.6,41l1.2-23.9v-.2c0-.2-.2-.3-.4-.3h-7.1c-.2,0-.3.1-.3.3l-1.1,23.7c0,.2.1.3.3.3h7.4Z"/>
    <path class="st2" d="M25.9,7.3h-6.3c-.2,0-.4.1-.4.3l-1.7,33.4h10c.2,0,.4-.1.4-.3l-1.6-33c0-.2-.2-.3-.4-.3"/>
  </g>
  <g>
    <g class="st0">
      <g class="st0">
        <path class="st2" d="M53.5,36.8c-1.2,0-2.3-.2-3.3-.5-1-.3-1.9-.8-2.8-1.4s-1.6-1.4-2.2-2.4l2.3-2.7c1,1.5,2,2.5,2.9,3,.9.6,2.1.8,3.4.8s1.5-.1,2.2-.4c.6-.2,1.2-.6,1.5-1,.4-.4.6-.9.6-1.5s0-.7-.2-1.1c-.1-.3-.3-.6-.6-.9-.3-.3-.6-.5-1-.8-.4-.2-.9-.4-1.4-.6-.5-.2-1.2-.3-1.9-.5-1.1-.2-2.1-.5-2.9-.9-.8-.4-1.5-.8-2.1-1.4-.6-.6-1-1.2-1.3-1.9-.3-.7-.4-1.5-.4-2.4s.2-1.7.6-2.4.9-1.4,1.6-2c.7-.6,1.5-1,2.4-1.3.9-.3,1.9-.5,3-.5s2.2.1,3.1.4c.9.3,1.8.7,2.5,1.3.7.6,1.3,1.3,1.8,2.1l-2.4,2.3c-.4-.7-.9-1.3-1.4-1.7-.5-.5-1.1-.8-1.7-1.1-.6-.2-1.3-.4-2-.4s-1.5.1-2.1.4c-.6.3-1.1.6-1.4,1-.3.4-.5,1-.5,1.6s0,.8.3,1.2c.2.4.4.7.8,1s.8.5,1.4.8,1.3.4,2.1.6c1.1.3,2.2.6,3.1,1,.9.4,1.7.8,2.3,1.4.6.5,1.1,1.1,1.4,1.8.3.6.5,1.3.5,2.1,0,1.4-.3,2.6-1,3.6-.6,1-1.6,1.8-2.8,2.4s-2.6.8-4.3.8Z"/>
        <path class="st2" d="M66.3,36.5V14.6h8.9c1.2,0,2.3.3,3.2.9,1,.6,1.7,1.4,2.3,2.4.6,1,.9,2.2.9,3.4s-.3,2.4-.9,3.4c-.6,1-1.4,1.8-2.3,2.5-1,.6-2.1.9-3.2.9h-5.5v8.4h-3.4ZM69.7,24.9h5.5c.6,0,1.1-.2,1.5-.5.5-.3.8-.8,1.1-1.3.3-.5.4-1.1.4-1.8s-.1-1.2-.4-1.8c-.3-.5-.7-.9-1.1-1.3-.5-.3-1-.5-1.5-.5h-5.5v7Z"/>
        <path class="st2" d="M85.3,36.5v-3.1h3.5v-15.7h-3.5v-3.1h10.5v3.1h-3.5v15.7h3.5v3.1h-10.5Z"/>
        <path class="st2" d="M101.1,36.5V14.6h8.6c1.6,0,3,.3,4.2.8,1.3.5,2.3,1.3,3.2,2.3s1.6,2.1,2.1,3.5c.5,1.3.7,2.8.7,4.4s-.2,3.1-.7,4.5c-.5,1.3-1.2,2.5-2.1,3.5s-2,1.7-3.2,2.2c-1.3.5-2.7.8-4.3.8h-8.6ZM104.5,33.6v-.3c0,0,5,0,5,0,1.1,0,2.1-.2,3-.5s1.6-.9,2.2-1.5,1-1.5,1.4-2.4c.3-1,.5-2,.5-3.2s-.2-2.3-.5-3.2-.8-1.8-1.4-2.4c-.6-.7-1.3-1.2-2.2-1.5-.9-.4-1.8-.5-2.9-.5h-5.2l.2-.3v16Z"/>
        <path class="st2" d="M124.5,36.5V14.6h13.8v3.3h-10.4v15.4h10.4v3.3h-13.8ZM126.1,26.9v-3.3h10.6v3.3h-10.6Z"/>
        <path class="st2" d="M143.7,36.5V14.6h9.3c1.3,0,2.4.3,3.5.9,1.1.6,1.9,1.5,2.5,2.5.6,1.1.9,2.2.9,3.6s-.3,2.3-.9,3.3c-.6,1-1.5,1.8-2.5,2.5-1,.6-2.2.9-3.5.9h-5.9v8.2h-3.4ZM147.1,25h6.3c.6,0,1.1-.2,1.6-.5.5-.3.9-.7,1.1-1.3.3-.5.4-1.1.4-1.8s-.2-1.4-.5-1.9c-.3-.6-.8-1-1.4-1.3-.6-.3-1.3-.5-2.1-.5h-5.4v7.2ZM156.8,36.5l-5.6-9.9,3.5-.8,6.2,10.7h-4.1Z"/>
        <path class="st1" d="M165.5,36.5V14.6h9.3c1.3,0,2.4.3,3.5.9,1.1.6,1.9,1.5,2.5,2.5.6,1.1.9,2.2.9,3.6s-.3,2.3-.9,3.3c-.6,1-1.5,1.8-2.5,2.5-1,.6-2.2.9-3.5.9h-5.9v8.2h-3.4ZM168.9,25h6.3c.6,0,1.1-.2,1.6-.5.5-.3.9-.7,1.1-1.3.3-.5.4-1.1.4-1.8s-.2-1.4-.5-1.9c-.3-.6-.8-1-1.4-1.3-.6-.3-1.3-.5-2.1-.5h-5.4v7.2ZM178.5,36.5l-5.6-9.9,3.5-.8,6.2,10.7h-4.1Z"/>
        <path class="st1" d="M196.1,36.8c-1.5,0-3-.3-4.3-.8s-2.4-1.4-3.4-2.4c-1-1-1.7-2.2-2.3-3.6s-.8-2.9-.8-4.5.3-3.1.8-4.5,1.3-2.6,2.3-3.6c1-1,2.1-1.8,3.4-2.4s2.7-.8,4.3-.8,3,.3,4.3.8c1.3.6,2.4,1.4,3.4,2.4,1,1,1.7,2.2,2.3,3.6.5,1.4.8,2.9.8,4.5s-.3,3.1-.8,4.5-1.3,2.6-2.3,3.6c-1,1-2.1,1.8-3.4,2.4-1.3.6-2.7.8-4.3.8ZM196.1,33.5c1.1,0,2-.2,2.9-.6.9-.4,1.7-1,2.3-1.7.6-.7,1.2-1.6,1.5-2.5.4-1,.5-2,.5-3.2s-.2-2.2-.5-3.2c-.4-1-.9-1.8-1.5-2.5-.6-.7-1.4-1.3-2.3-1.7-.9-.4-1.9-.6-2.9-.6s-2,.2-2.9.6c-.9.4-1.7.9-2.3,1.7-.7.7-1.2,1.5-1.5,2.5-.4,1-.5,2-.5,3.2s.2,2.2.5,3.2c.4,1,.9,1.8,1.5,2.5.7.7,1.4,1.3,2.3,1.7.9.4,1.9.6,2.9.6Z"/>
        <path class="st1" d="M220.3,36.8c-1.5,0-2.9-.3-4.2-.8-1.3-.5-2.4-1.3-3.3-2.3-.9-1-1.7-2.2-2.2-3.6-.5-1.4-.8-2.9-.8-4.5s.3-3,.8-4.4c.6-1.3,1.3-2.5,2.3-3.6,1-1,2.1-1.8,3.4-2.4,1.3-.6,2.7-.8,4.2-.8s2.1.2,3.1.5c1,.3,1.9.8,2.8,1.3.8.6,1.5,1.2,2,2l-2.3,2.3c-.6-.6-1.2-1.1-1.8-1.5-.6-.4-1.2-.7-1.9-.9-.6-.2-1.3-.3-1.9-.3-1,0-2,.2-2.9.6-.9.4-1.7.9-2.3,1.6-.7.7-1.2,1.5-1.5,2.5-.4,1-.6,2-.6,3.1s.2,2.3.5,3.2c.4,1,.9,1.8,1.5,2.5.7.7,1.5,1.2,2.4,1.6s2,.5,3.1.5,1.4,0,2-.3c.7-.2,1.3-.5,1.9-.8.6-.4,1.1-.8,1.6-1.3l1.7,2.8c-.5.6-1.1,1.1-2,1.5-.8.5-1.7.8-2.8,1.1-1,.3-2,.4-3.1.4Z"/>
        <path class="st1" d="M232.7,36.5V14.6h3.4v21.9h-3.4ZM235.5,29.9l-.2-3.8,11.5-11.5h4.4l-15.7,15.3ZM247.2,36.5l-8.4-11.2,2.5-2.2,10.1,13.4h-4.2Z"/>
      </g>
    </g>
    <path class="st2" d="M256.2,13.4c-.5,0-1-.1-1.5-.4s-.8-.6-1.1-1c-.3-.4-.4-.9-.4-1.5s0-.8.2-1.1.4-.7.6-.9.6-.5.9-.6c.4-.1.7-.2,1.1-.2s.8,0,1.1.2c.4.2.7.4.9.6.3.3.5.6.6.9s.2.7.2,1.1,0,.8-.2,1.1-.4.7-.6.9-.6.5-.9.6c-.4.1-.7.2-1.1.2ZM256.2,12.9c.4,0,.9-.1,1.2-.3.4-.2.7-.5.9-.9.2-.4.3-.8.3-1.2s-.1-.8-.3-1.2c-.2-.4-.5-.6-.9-.9-.4-.2-.8-.3-1.2-.3s-.9.1-1.2.3c-.4.2-.7.5-.9.9-.2.4-.3.8-.3,1.2s.1.8.3,1.2c.2.4.5.6.9.9.4.2.8.3,1.2.3ZM255.1,12v-3.1h1.2c.3,0,.6,0,.8.3.2.2.3.4.3.7s-.1.5-.3.7c-.2.2-.5.3-.8.3h-1l.3-.2v1.3h-.5ZM255.6,10.6l-.3-.2h.9c.2,0,.4,0,.5-.1.1,0,.2-.2.2-.4s0-.3-.2-.4-.3-.1-.5-.1h-.9l.3-.2v1.4ZM256.9,12l-.6-1.3.4-.2.7,1.4h-.5Z"/>
  </g>
</svg>