<?xml version="1.0" encoding="UTF-8"?>
<svg id="Layer_1" xmlns="http://www.w3.org/2000/svg" version="1.1" viewBox="0 0 268.5 54.1">
  <!-- Generator: Adobe Illustrator 30.2.1, SVG Export Plug-In . SVG Version: 2.1.1 Build 1)  -->
  <defs>
    <style>
      .st0 {
        isolation: isolate;
      }

      .st1 {
        fill: #557187;
      }

      .st2 {
        fill: #16283d;
      }

      .st3 {
        fill: #0c71c3;
      }
    </style>
  </defs>
  <g>
    <path class="st3" d="M17.1,46.5l1.3-25.1v-.2c0-.2-.2-.3-.4-.3h-7.5c-.2,0-.4.1-.4.3l-1.2,25c0,.2.2.4.4.4h7.8Z"/>
    <path class="st2" d="M26.8,11h-6.6c-.2,0-.4.1-.4.3l-1.8,35.2h10.5c.2,0,.4-.1.4-.3l-1.7-34.8c0-.2-.2-.3-.4-.3"/>
  </g>
  <g>
    <g class="st0">
      <g class="st0">
        <path class="st2" d="M46.4,43.1c-1.2,0-2.3-.2-3.3-.5-1-.3-2-.8-2.8-1.5-.9-.7-1.6-1.5-2.3-2.4l1.8-2c1,1.5,2.1,2.5,3.2,3.1,1.1.6,2.3.9,3.7.9s1.9-.2,2.7-.5,1.5-.8,1.9-1.4.7-1.3.7-2,0-1-.2-1.4c-.2-.4-.4-.7-.7-1.1-.3-.3-.7-.6-1.2-.8-.5-.2-1-.5-1.7-.7-.6-.2-1.3-.4-2.1-.6-1.1-.3-2.1-.6-3-.9-.8-.4-1.6-.8-2.1-1.3-.6-.5-1-1.1-1.3-1.8-.3-.7-.4-1.5-.4-2.5s.2-1.7.6-2.5c.4-.8.9-1.4,1.6-2,.7-.6,1.5-1,2.4-1.3.9-.3,1.9-.5,3-.5s2.2.2,3.2.5c.9.3,1.8.8,2.5,1.4.7.6,1.4,1.4,1.9,2.2l-1.8,1.8c-.5-.7-1-1.4-1.6-1.9-.6-.5-1.2-.9-1.9-1.2-.7-.3-1.5-.4-2.3-.4s-1.8.2-2.6.5c-.7.3-1.3.8-1.7,1.4s-.6,1.2-.6,2,0,1,.3,1.5c.2.4.5.8.9,1.1.4.3,1,.6,1.7.9.7.3,1.5.5,2.5.7,1.1.3,2.2.6,3.1,1,.9.4,1.7.8,2.3,1.3.6.5,1.1,1.1,1.5,1.8.3.7.5,1.5.5,2.3,0,1.4-.3,2.6-1,3.6-.7,1-1.6,1.8-2.9,2.4-1.2.6-2.6.9-4.3.9Z"/>
        <path class="st2" d="M59.7,42.8v-23.1h9.1c1.2,0,2.3.3,3.3.9,1,.6,1.7,1.4,2.3,2.5.6,1,.9,2.2.9,3.5s-.3,2.6-.9,3.6c-.6,1.1-1.3,1.9-2.3,2.5-1,.6-2.1.9-3.3.9h-6.6v9.1h-2.6ZM62.3,31.1h6.7c.7,0,1.3-.2,1.8-.6.5-.4,1-1,1.3-1.6s.5-1.5.5-2.4-.2-1.5-.5-2.2-.8-1.2-1.3-1.6c-.5-.4-1.1-.6-1.8-.6h-6.7v9Z"/>
        <path class="st2" d="M79.2,42.8v-2.4h3.7v-18.2h-3.7v-2.4h10v2.4h-3.7v18.2h3.7v2.4h-10Z"/>
        <path class="st2" d="M94.9,42.8v-23.1h8.7c1.6,0,3,.3,4.3.8,1.3.6,2.4,1.4,3.4,2.4,1,1,1.7,2.3,2.2,3.7.5,1.4.8,3,.8,4.7s-.3,3.2-.8,4.7c-.5,1.4-1.3,2.6-2.2,3.7-1,1-2.1,1.8-3.4,2.4-1.3.6-2.8.8-4.4.8h-8.7ZM97.5,40.7l-.3-.5h6.3c1.2,0,2.3-.2,3.3-.6s1.9-1,2.6-1.8c.7-.8,1.3-1.8,1.7-2.9.4-1.1.6-2.3.6-3.7s-.2-2.6-.6-3.7c-.4-1.1-1-2.1-1.7-2.9-.7-.8-1.6-1.4-2.6-1.8-1-.4-2.1-.6-3.3-.6h-6.4l.4-.4v18.9Z"/>
        <path class="st2" d="M119.4,42.8v-23.1h14v2.5h-11.4v18.1h11.4v2.5h-13.9ZM120.6,32.1v-2.5h11v2.5h-11Z"/>
        <path class="st2" d="M139.2,42.8v-23.1h9c1.3,0,2.6.3,3.6.9,1.1.6,2,1.5,2.6,2.6.6,1.1,1,2.3,1,3.7s-.3,2.4-.9,3.5c-.6,1-1.5,1.9-2.5,2.5-1.1.6-2.2.9-3.6.9h-6.7v9.1h-2.6ZM141.8,31.1h6.9c.8,0,1.5-.2,2.1-.6s1.1-.9,1.5-1.5.5-1.4.5-2.2-.2-1.7-.6-2.4c-.4-.7-1-1.3-1.7-1.6-.7-.4-1.6-.6-2.5-.6h-6.1v9ZM153.3,42.8l-5.8-10.2,2.5-.9,6.4,11h-3.1Z"/>
        <path class="st1" d="M161,42.8v-23.1h9c1.3,0,2.6.3,3.6.9,1.1.6,2,1.5,2.6,2.6.6,1.1,1,2.3,1,3.7s-.3,2.4-.9,3.5c-.6,1-1.5,1.9-2.5,2.5-1.1.6-2.2.9-3.6.9h-6.7v9.1h-2.6ZM163.6,31.1h6.9c.8,0,1.5-.2,2.1-.6s1.1-.9,1.5-1.5.5-1.4.5-2.2-.2-1.7-.6-2.4c-.4-.7-1-1.3-1.7-1.6-.7-.4-1.6-.6-2.5-.6h-6.1v9ZM175.1,42.8l-5.8-10.2,2.5-.9,6.4,11h-3.1Z"/>
        <path class="st1" d="M192,43.1c-1.6,0-3.1-.3-4.5-.9-1.4-.6-2.6-1.4-3.6-2.5-1-1.1-1.8-2.3-2.4-3.7-.6-1.4-.8-3-.8-4.7s.3-3.3.8-4.7c.6-1.4,1.4-2.7,2.4-3.8,1-1.1,2.2-1.9,3.6-2.5,1.4-.6,2.9-.9,4.5-.9s3.2.3,4.5.9c1.4.6,2.6,1.4,3.6,2.5,1,1.1,1.8,2.3,2.4,3.8.6,1.4.8,3,.8,4.7s-.3,3.3-.8,4.7c-.6,1.4-1.4,2.7-2.4,3.8-1,1.1-2.2,1.9-3.6,2.5-1.4.6-2.9.9-4.5.9ZM192,40.5c1.3,0,2.4-.2,3.5-.7,1.1-.5,2-1.1,2.8-1.9.8-.8,1.4-1.8,1.8-3,.4-1.1.6-2.4.6-3.7s-.2-2.6-.6-3.7c-.4-1.1-1-2.1-1.8-3-.8-.8-1.7-1.5-2.8-1.9-1.1-.5-2.2-.7-3.5-.7s-2.4.2-3.5.7-2,1.1-2.8,1.9c-.8.8-1.4,1.8-1.8,3-.4,1.1-.6,2.4-.6,3.7s.2,2.6.6,3.7c.4,1.1,1,2.1,1.8,3,.8.8,1.7,1.5,2.8,1.9,1.1.5,2.2.7,3.5.7Z"/>
        <path class="st1" d="M217.9,43.1c-1.6,0-3.2-.3-4.6-.9-1.4-.6-2.6-1.4-3.6-2.5-1-1.1-1.8-2.3-2.4-3.8-.6-1.5-.8-3-.8-4.8s.3-3.3.8-4.7c.6-1.4,1.4-2.7,2.4-3.7,1-1.1,2.2-1.9,3.6-2.5,1.4-.6,2.9-.9,4.5-.9s2.1.2,3.2.5c1.1.3,2,.8,2.9,1.4.9.6,1.6,1.3,2.2,2l-1.8,1.8c-.5-.7-1.2-1.2-1.9-1.7s-1.5-.9-2.3-1.1-1.6-.4-2.4-.4c-1.2,0-2.4.2-3.4.7-1.1.5-2,1.1-2.8,1.9-.8.8-1.4,1.8-1.8,2.9s-.6,2.3-.6,3.7.2,2.6.6,3.8c.4,1.1,1,2.1,1.8,3,.8.8,1.7,1.5,2.8,1.9,1.1.5,2.3.7,3.6.7s1.6-.1,2.4-.3c.8-.2,1.5-.6,2.2-1,.7-.4,1.2-.9,1.7-1.4l1.3,2.1c-.5.6-1.2,1.2-2,1.6-.8.5-1.8.8-2.8,1.1-1,.3-2,.4-3,.4Z"/>
        <path class="st1" d="M230.6,42.8v-23.1h2.6v23.1h-2.6ZM232.6,35.7v-3.1c0,0,13-12.9,13-12.9h3.5l-16.4,16ZM246.1,42.8l-9.3-12.3,1.9-1.7,10.6,14h-3.2Z"/>
      </g>
    </g>
    <path class="st2" d="M254.7,18.3c-.6,0-1.1-.1-1.6-.4-.5-.3-.8-.6-1.1-1.1-.3-.5-.4-1-.4-1.5s0-.8.2-1.2c.2-.4.4-.7.7-1s.6-.5,1-.7c.4-.2.8-.2,1.2-.2s.8,0,1.2.2.7.4,1,.7c.3.3.5.6.7,1,.2.4.2.8.2,1.2s0,.8-.2,1.2c-.2.4-.4.7-.7,1-.3.3-.6.5-1,.7s-.8.2-1.2.2ZM254.7,17.8c.5,0,.9-.1,1.3-.3.4-.2.7-.5.9-.9s.4-.8.4-1.3-.1-.9-.4-1.3c-.2-.4-.5-.7-.9-.9-.4-.2-.8-.3-1.3-.3s-.9.1-1.3.3-.7.5-.9.9c-.2.4-.4.8-.4,1.3s.1.9.4,1.3.5.7.9.9.8.3,1.3.3ZM253.6,16.8v-3.2h1.3c.3,0,.6,0,.8.3.2.2.3.4.3.7s-.1.5-.3.7c-.2.2-.5.3-.8.3h-1.1l.3-.2v1.4h-.5ZM254.1,15.3l-.3-.2h.9c.2,0,.4,0,.5-.2.1-.1.2-.2.2-.4s0-.3-.2-.4c-.1,0-.3-.1-.5-.1h-1l.3-.2v1.5ZM255.4,16.8l-.7-1.3.5-.2.8,1.5h-.6Z"/>
  </g>
</svg>