<?xml version="1.0" encoding="UTF-8"?>
<svg id="Layer_1" xmlns="http://www.w3.org/2000/svg" version="1.1" viewBox="0 0 252 54.1">
  <!-- Generator: Adobe Illustrator 30.2.1, SVG Export Plug-In . SVG Version: 2.1.1 Build 1)  -->
  <defs>
    <style>
      .st0 {
        isolation: isolate;
      }

      .st1 {
        fill: #16283d;
      }

      .st2 {
        fill: #0c71c3;
      }
    </style>
  </defs>
  <g>
    <path class="st2" d="M14.6,51.1l1.6-32.2v-.2c0-.2-.2-.4-.5-.4H6.1c-.3,0-.5.2-.5.4l-1.5,32c0,.2.2.5.5.5h10Z"/>
    <path class="st1" d="M27.1,5.7h-8.5c-.3,0-.5.2-.5.4l-2.2,45h13.5c.3,0,.5-.2.5-.4l-2.2-44.6c0-.2-.2-.4-.5-.4"/>
  </g>
  <g>
    <g class="st0">
      <g class="st0">
        <path class="st1" d="M44,46.4c-1.1,0-2.2-.2-3.2-.5-1-.3-1.9-.8-2.7-1.4-.8-.6-1.5-1.4-2.2-2.3l1.7-1.9c1,1.4,2,2.4,3,3,1,.6,2.2.9,3.5.9s1.8-.2,2.6-.5c.8-.3,1.4-.8,1.8-1.3.4-.6.7-1.2.7-2s0-.9-.2-1.3c-.2-.4-.4-.7-.7-1s-.7-.6-1.2-.8c-.5-.2-1-.4-1.6-.6s-1.3-.4-2-.6c-1.1-.3-2-.6-2.8-.9-.8-.3-1.5-.8-2.1-1.3-.6-.5-1-1.1-1.3-1.8-.3-.7-.4-1.4-.4-2.4s.2-1.7.6-2.4c.4-.7.9-1.4,1.5-1.9.7-.5,1.4-1,2.3-1.2.9-.3,1.8-.4,2.8-.4s2.2.2,3,.5c.9.3,1.7.8,2.4,1.3.7.6,1.3,1.3,1.8,2.1l-1.7,1.7c-.4-.7-.9-1.3-1.5-1.8-.6-.5-1.2-.9-1.8-1.2-.7-.3-1.4-.4-2.2-.4s-1.7.2-2.4.5c-.7.3-1.3.8-1.7,1.3-.4.6-.6,1.2-.6,1.9s0,1,.3,1.4c.2.4.5.8.9,1.1.4.3.9.6,1.6.8s1.5.5,2.4.7c1.1.3,2.1.6,3,.9.9.4,1.6.8,2.2,1.3.6.5,1.1,1.1,1.4,1.7.3.7.5,1.4.5,2.2,0,1.3-.3,2.4-1,3.4-.7,1-1.6,1.7-2.7,2.3s-2.5.8-4.1.8Z"/>
        <path class="st1" d="M56.8,46.1v-22.1h8.8c1.2,0,2.2.3,3.1.9.9.6,1.7,1.4,2.2,2.4.5,1,.8,2.1.8,3.4s-.3,2.5-.8,3.5c-.5,1-1.3,1.8-2.2,2.4-.9.6-2,.9-3.1.9h-6.3v8.7h-2.5ZM59.2,35h6.4c.7,0,1.2-.2,1.8-.6.5-.4.9-.9,1.2-1.6.3-.7.5-1.4.5-2.3s-.2-1.5-.5-2.1c-.3-.6-.7-1.1-1.2-1.5-.5-.4-1.1-.6-1.8-.6h-6.4v8.6Z"/>
        <path class="st1" d="M75.4,46.1v-2.3h3.6v-17.4h-3.6v-2.3h9.6v2.3h-3.6v17.4h3.6v2.3h-9.6Z"/>
        <path class="st1" d="M90.4,46.1v-22.1h8.3c1.5,0,2.9.3,4.2.8,1.3.5,2.3,1.3,3.3,2.3.9,1,1.6,2.2,2.1,3.5.5,1.3.8,2.8.8,4.5s-.3,3.1-.8,4.5c-.5,1.4-1.2,2.5-2.1,3.5s-2,1.7-3.3,2.3-2.7.8-4.2.8h-8.3ZM92.9,44.2l-.3-.4h6c1.2,0,2.2-.2,3.2-.6,1-.4,1.8-1,2.5-1.8.7-.8,1.3-1.7,1.6-2.7.4-1.1.6-2.2.6-3.5s-.2-2.5-.6-3.5c-.4-1.1-.9-2-1.7-2.7-.7-.8-1.6-1.4-2.5-1.8-1-.4-2-.6-3.2-.6h-6.1l.4-.4v18.1Z"/>
        <path class="st1" d="M113.9,46.1v-22.1h13.4v2.4h-10.9v17.3h10.9v2.4h-13.3ZM115.1,36v-2.4h10.5v2.4h-10.5Z"/>
        <path class="st1" d="M132.9,46.1v-22.1h8.7c1.3,0,2.4.3,3.5.9,1,.6,1.9,1.4,2.5,2.4.6,1,.9,2.2.9,3.5s-.3,2.3-.9,3.3c-.6,1-1.4,1.8-2.4,2.4-1,.6-2.1.9-3.4.9h-6.4v8.7h-2.5ZM135.3,35h6.6c.8,0,1.5-.2,2.1-.5s1.1-.8,1.4-1.5c.3-.6.5-1.3.5-2.1s-.2-1.6-.6-2.3-1-1.2-1.7-1.6c-.7-.4-1.5-.6-2.4-.6h-5.9v8.6ZM146.4,46.1l-5.6-9.7,2.4-.8,6.1,10.6h-2.9Z"/>
        <path class="st2" d="M153.7,46.1v-22.1h8.7c1.3,0,2.4.3,3.5.9,1,.6,1.9,1.4,2.5,2.4.6,1,.9,2.2.9,3.5s-.3,2.3-.9,3.3c-.6,1-1.4,1.8-2.4,2.4-1,.6-2.1.9-3.4.9h-6.4v8.7h-2.5ZM156.2,35h6.6c.8,0,1.5-.2,2.1-.5s1.1-.8,1.4-1.5c.3-.6.5-1.3.5-2.1s-.2-1.6-.6-2.3-1-1.2-1.7-1.6c-.7-.4-1.5-.6-2.4-.6h-5.9v8.6ZM167.2,46.1l-5.6-9.7,2.4-.8,6.1,10.6h-2.9Z"/>
        <path class="st2" d="M183.4,46.4c-1.6,0-3-.3-4.3-.8s-2.5-1.3-3.4-2.4c-1-1-1.7-2.2-2.3-3.6s-.8-2.9-.8-4.5.3-3.2.8-4.5c.5-1.4,1.3-2.6,2.3-3.6,1-1,2.1-1.8,3.4-2.4,1.3-.6,2.8-.8,4.3-.8s3,.3,4.3.8c1.3.6,2.5,1.3,3.4,2.4,1,1,1.7,2.2,2.3,3.6.5,1.4.8,2.9.8,4.5s-.3,3.1-.8,4.5c-.5,1.4-1.3,2.6-2.3,3.6-1,1-2.1,1.8-3.4,2.4s-2.8.8-4.3.8ZM183.4,44c1.2,0,2.3-.2,3.3-.6,1-.4,1.9-1,2.6-1.8.7-.8,1.3-1.7,1.7-2.8.4-1.1.6-2.3.6-3.6s-.2-2.5-.6-3.6c-.4-1.1-1-2-1.7-2.8-.7-.8-1.6-1.4-2.6-1.9-1-.4-2.1-.7-3.3-.7s-2.3.2-3.3.7c-1,.4-1.9,1.1-2.6,1.9-.7.8-1.3,1.7-1.7,2.8-.4,1.1-.6,2.3-.6,3.6s.2,2.5.6,3.6c.4,1.1,1,2,1.7,2.8.7.8,1.6,1.4,2.6,1.8,1,.4,2.1.6,3.3.6Z"/>
        <path class="st2" d="M208.2,46.4c-1.6,0-3-.3-4.4-.8s-2.5-1.3-3.4-2.4c-1-1-1.7-2.2-2.3-3.6s-.8-2.9-.8-4.6.3-3.1.8-4.5,1.3-2.5,2.3-3.6,2.1-1.8,3.4-2.4,2.7-.8,4.3-.8,2.1.2,3.1.5c1,.3,1.9.8,2.8,1.3.9.6,1.6,1.2,2.1,2l-1.7,1.8c-.5-.6-1.1-1.2-1.8-1.6s-1.4-.8-2.2-1.1c-.8-.3-1.5-.4-2.3-.4-1.2,0-2.3.2-3.3.6-1,.4-1.9,1-2.6,1.8-.7.8-1.3,1.7-1.7,2.8s-.6,2.2-.6,3.5.2,2.5.6,3.6,1,2,1.8,2.8c.8.8,1.7,1.4,2.7,1.8s2.2.6,3.5.6,1.5-.1,2.3-.3c.8-.2,1.5-.5,2.1-.9s1.2-.9,1.6-1.4l1.3,2.1c-.5.6-1.1,1.1-1.9,1.6-.8.5-1.7.8-2.7,1.1-1,.3-1.9.4-2.9.4Z"/>
        <path class="st2" d="M220.4,46.1v-22.1h2.5v22.1h-2.5ZM222.3,39.3v-2.9c0,0,12.4-12.4,12.4-12.4h3.3l-15.7,15.3ZM235.3,46.1l-8.9-11.8,1.8-1.6,10.2,13.4h-3.1Z"/>
      </g>
    </g>
    <path class="st2" d="M244.1,23.7c-.6,0-1.1-.1-1.6-.4-.5-.3-.8-.6-1.1-1.1s-.4-1-.4-1.5,0-.8.2-1.2.4-.7.7-1c.3-.3.6-.5,1-.7s.8-.2,1.2-.2.8,0,1.2.2c.4.2.7.4,1,.6.3.3.5.6.7,1s.2.8.2,1.2,0,.8-.2,1.2-.4.7-.7,1c-.3.3-.6.5-1,.7-.4.2-.8.2-1.2.2ZM244.1,23c.4,0,.8-.1,1.2-.3.4-.2.7-.5.9-.8.2-.4.3-.7.3-1.2s-.1-.8-.3-1.2c-.2-.4-.5-.6-.9-.8-.4-.2-.8-.3-1.2-.3s-.9.1-1.2.3c-.4.2-.7.5-.9.8s-.3.7-.3,1.2.1.8.3,1.2.5.6.9.8c.4.2.8.3,1.2.3ZM243,22.2v-3.2h1.4c.3,0,.6,0,.8.3.2.2.3.4.3.7s-.1.5-.3.7c-.2.2-.5.3-.7.3h-1l.3-.2v1.4h-.6ZM243.6,20.6h-.3c0-.1.8-.1.8-.1.2,0,.3,0,.5-.1.1,0,.2-.2.2-.3s0-.3-.2-.3c-.1,0-.3-.1-.5-.1h-.8.3c0-.1,0,1,0,1ZM244.7,22.2l-.6-1.3.6-.2.7,1.5h-.7Z"/>
  </g>
</svg>