<?xml version="1.0" encoding="UTF-8"?>
<svg id="Layer_1" xmlns="http://www.w3.org/2000/svg" version="1.1" viewBox="0 0 252 81">
  <!-- Generator: Adobe Illustrator 29.5.1, SVG Export Plug-In . SVG Version: 2.1.0 Build 141)  -->
  <defs>
    <style>
      .st0 {
        isolation: isolate;
      }

      .st1 {
        fill: #fff;
      }
    </style>
  </defs>
  <g class="st0">
    <g class="st0">
      <g class="st0">
        <path class="st1" d="M52.3,75.5c-1.3-.5-2.4-1.2-3.1-2l.7-1.1c.7.7,1.7,1.3,2.8,1.8,1.2.5,2.4.7,3.8.7,1.9,0,3.3-.4,4.3-1.1,1-.7,1.5-1.7,1.5-2.8s-.3-1.6-.8-2.1c-.5-.5-1.2-.9-1.9-1.2-.8-.3-1.8-.6-3.1-.9-1.5-.4-2.6-.7-3.5-1.1-.9-.3-1.6-.9-2.3-1.6-.6-.7-.9-1.7-.9-2.9s.3-1.9.8-2.7c.5-.8,1.3-1.5,2.4-1.9,1.1-.5,2.4-.7,4-.7s2.2.2,3.3.5c1.1.3,2,.8,2.8,1.3l-.5,1.2c-.8-.6-1.7-1-2.6-1.3-1-.3-1.9-.4-2.8-.4-1.8,0-3.2.4-4.2,1.1-1,.7-1.4,1.7-1.4,2.9s.3,1.6.8,2.1c.5.5,1.2.9,1.9,1.2s1.8.6,3.1.9c1.5.4,2.6.7,3.5,1.1.9.3,1.6.9,2.2,1.6.6.7.9,1.6.9,2.8s-.3,1.9-.8,2.7c-.5.8-1.3,1.4-2.4,1.9s-2.4.7-4,.7-2.9-.3-4.2-.8Z"/>
      </g>
      <g class="st0">
        <path class="st1" d="M81.7,57.9c1.4,1.2,2.1,2.8,2.1,5s-.7,3.7-2.1,4.9c-1.4,1.2-3.4,1.8-5.9,1.8h-5.7v6.5h-1.5v-20h7.2c2.5,0,4.5.6,5.9,1.8ZM80.7,66.9c1.1-.9,1.7-2.3,1.7-4s-.6-3.1-1.7-4c-1.1-.9-2.8-1.4-4.9-1.4h-5.7v10.8h5.7c2.1,0,3.8-.5,4.9-1.4Z"/>
      </g>
      <g class="st0">
        <path class="st1" d="M88.8,56.1h1.5v20h-1.5v-20Z"/>
        <path class="st1" d="M97.2,56.1h7.9c2.1,0,3.9.4,5.5,1.3,1.6.9,2.9,2,3.8,3.6.9,1.5,1.3,3.2,1.3,5.2s-.4,3.6-1.3,5.2c-.9,1.5-2.1,2.7-3.8,3.6-1.6.9-3.5,1.3-5.5,1.3h-7.9v-20ZM105,74.8c1.8,0,3.5-.4,4.9-1.1,1.4-.7,2.5-1.8,3.3-3.1.8-1.3,1.1-2.8,1.1-4.5s-.4-3.2-1.1-4.5c-.8-1.3-1.8-2.3-3.3-3.1-1.4-.7-3-1.1-4.9-1.1h-6.3v17.4h6.3Z"/>
        <path class="st1" d="M134.6,74.8v1.3h-13.8v-20h13.4v1.3h-11.9v7.9h10.7v1.3h-10.7v8.2h12.3Z"/>
        <path class="st1" d="M153.8,76.1l-4.8-6.7c-.7,0-1.4.1-1.9.1h-5.7v6.5h-1.5v-20h7.2c2.5,0,4.5.6,5.9,1.8,1.4,1.2,2.1,2.8,2.1,5s-.4,2.9-1.2,4c-.8,1.1-2,1.8-3.5,2.3l5,7h-1.7ZM147.1,68.3c2.1,0,3.8-.5,4.9-1.4,1.1-.9,1.7-2.3,1.7-4s-.6-3.1-1.7-4c-1.1-.9-2.8-1.4-4.9-1.4h-5.7v10.9h5.7Z"/>
        <path class="st1" d="M174.4,76.1l-4.8-6.7c-.7,0-1.4.1-1.9.1h-5.7v6.5h-1.5v-20h7.2c2.5,0,4.5.6,5.9,1.8,1.4,1.2,2.1,2.8,2.1,5s-.4,2.9-1.2,4c-.8,1.1-2,1.8-3.5,2.3l5,7h-1.7ZM167.7,68.3c2.1,0,3.8-.5,4.9-1.4,1.1-.9,1.7-2.3,1.7-4s-.6-3.1-1.7-4c-1.1-.9-2.8-1.4-4.9-1.4h-5.7v10.9h5.7Z"/>
        <path class="st1" d="M184.3,74.9c-1.6-.9-2.8-2.1-3.7-3.6-.9-1.5-1.4-3.3-1.4-5.2s.5-3.6,1.4-5.2c.9-1.5,2.1-2.8,3.7-3.6,1.6-.9,3.4-1.3,5.3-1.3s3.7.4,5.3,1.3c1.6.9,2.8,2.1,3.7,3.6.9,1.5,1.4,3.3,1.4,5.2s-.5,3.7-1.4,5.2c-.9,1.5-2.1,2.8-3.7,3.6-1.6.9-3.4,1.3-5.3,1.3s-3.7-.4-5.3-1.3ZM194.1,73.8c1.4-.8,2.4-1.8,3.2-3.2.8-1.3,1.2-2.8,1.2-4.5s-.4-3.2-1.2-4.5c-.8-1.3-1.8-2.4-3.2-3.2-1.4-.8-2.9-1.1-4.5-1.1s-3.2.4-4.6,1.1c-1.4.8-2.4,1.8-3.2,3.2-.8,1.3-1.2,2.8-1.2,4.5s.4,3.2,1.2,4.5c.8,1.3,1.9,2.4,3.2,3.2,1.4.8,2.9,1.1,4.6,1.1s3.2-.4,4.5-1.1Z"/>
        <path class="st1" d="M208.2,74.9c-1.6-.9-2.8-2.1-3.7-3.6-.9-1.5-1.4-3.3-1.4-5.2s.5-3.7,1.4-5.2c.9-1.5,2.1-2.8,3.7-3.6s3.3-1.3,5.3-1.3,2.8.2,4,.7,2.3,1.2,3.1,2.1l-.9.9c-1.6-1.6-3.6-2.4-6.1-2.4s-3.2.4-4.6,1.1-2.4,1.8-3.2,3.2c-.8,1.3-1.2,2.8-1.2,4.5s.4,3.2,1.2,4.5c.8,1.3,1.9,2.4,3.2,3.2,1.4.8,2.9,1.1,4.6,1.1,2.5,0,4.5-.8,6.1-2.4l.9.9c-.9.9-1.9,1.6-3.1,2.1-1.2.5-2.6.7-4,.7s-3.7-.4-5.3-1.3Z"/>
        <path class="st1" d="M231.4,66.2l-4.5,4.6v5.3h-1.5v-20h1.5v12.9l12.5-12.9h1.8l-8.8,9.1,9.4,10.9h-1.8l-8.6-9.9Z"/>
      </g>
    </g>
  </g>
  <g>
    <path class="st1" d="M17,77.4l2.4-48.5v-.3c0-.3-.4-.6-.7-.6H4.2c-.4,0-.7.3-.7.6l-2.3,48.2c0,.4.3.7.7.7h15.1Z"/>
    <path class="st1" d="M35.8,9h-12.7c-.4,0-.8.3-.8.6l-3.4,67.8h20.3c.5,0,.8-.3.8-.6l-3.3-67.2c0-.3-.4-.6-.8-.6"/>
  </g>
  <g class="st0">
    <g class="st0">
      <path class="st1" d="M247,50.3c.5.3.9.7,1.1,1.1.3.5.4,1,.4,1.6s-.1,1.1-.4,1.6c-.3.5-.7.9-1.2,1.2-.5.3-1,.4-1.6.4s-1.1-.1-1.6-.4c-.5-.3-.9-.7-1.1-1.2s-.4-1-.4-1.6.1-1.1.4-1.6.7-.9,1.1-1.2c.5-.3,1-.4,1.6-.4s1.1.1,1.6.4ZM246.8,55.6c.4-.3.8-.6,1.1-1.1s.4-.9.4-1.5-.1-1-.4-1.5c-.3-.4-.6-.8-1-1-.4-.3-.9-.4-1.5-.4s-1,.1-1.5.4c-.4.3-.8.6-1,1.1-.3.4-.4.9-.4,1.5s.1,1,.4,1.5c.3.4.6.8,1,1.1.4.3.9.4,1.5.4s1-.1,1.5-.4ZM246.7,53.1c-.1.2-.4.3-.6.4l.9,1.4h-.4l-.8-1.3s-.1,0-.2,0h-1v1.3h-.4v-3.7h1.4c.4,0,.8.1,1,.3.3.2.4.5.4.9s0,.5-.2.7ZM246.3,53.1c.2-.2.3-.4.3-.7s0-.5-.3-.7c-.2-.2-.5-.2-.8-.2h-1v1.8h1c.3,0,.6,0,.8-.2Z"/>
    </g>
  </g>
</svg>