<?xml version="1.0" encoding="UTF-8"?> <svg xmlns="http://www.w3.org/2000/svg" id="Layer_1" data-name="Layer 1" viewBox="0 0 241.76 71.94"><defs><style> .cls-1 { fill: #db4025; } .cls-2 { fill: #414344; } .cls-3 { fill: #3d6489; } </style></defs><g><g><path class="cls-2" d="M56.86,59.45c.71,.59,1.06,1.41,1.06,2.45s-.35,1.85-1.06,2.44c-.71,.59-1.68,.88-2.92,.88h-2.62v3.07h-1.03v-9.74h3.64c1.24,0,2.22,.3,2.92,.89Zm-.74,4.24c.51-.42,.76-1.02,.76-1.79s-.25-1.39-.76-1.82c-.51-.42-1.25-.63-2.21-.63h-2.59v4.87h2.59c.96,0,1.7-.21,2.21-.63Z"></path><path class="cls-2" d="M64.4,58.56h1.03v8.85h5.45v.89h-6.48v-9.74Z"></path><path class="cls-2" d="M83.32,65.7h-5.43l-1.17,2.6h-1.07l4.45-9.74h1.02l4.45,9.74h-1.09l-1.17-2.6Zm-.38-.83l-2.34-5.23-2.34,5.23h4.67Z"></path><path class="cls-2" d="M92.27,59.45h-3.42v-.89h7.88v.89h-3.42v8.85h-1.03v-8.85Z"></path><path class="cls-2" d="M103.43,59.45v3.83h5.04v.89h-5.04v4.13h-1.03v-9.74h6.68v.89h-5.65Z"></path><path class="cls-2" d="M117.04,67.73c-.78-.43-1.4-1.02-1.84-1.77-.44-.75-.66-1.6-.66-2.53s.22-1.78,.66-2.53c.44-.75,1.05-1.34,1.84-1.77s1.66-.65,2.62-.65,1.83,.21,2.61,.64c.78,.43,1.38,1.02,1.83,1.77s.67,1.6,.67,2.54-.22,1.78-.67,2.54-1.05,1.35-1.83,1.77c-.77,.43-1.64,.64-2.61,.64s-1.84-.22-2.62-.65Zm4.71-.79c.62-.35,1.11-.83,1.46-1.45,.35-.62,.53-1.31,.53-2.07s-.18-1.45-.53-2.07c-.35-.62-.84-1.1-1.46-1.45s-1.32-.52-2.09-.52-1.47,.17-2.09,.52c-.63,.35-1.12,.83-1.47,1.45-.36,.62-.54,1.31-.54,2.07s.18,1.45,.54,2.07,.85,1.1,1.47,1.45c.62,.35,1.32,.52,2.09,.52s1.46-.17,2.09-.52Z"></path><path class="cls-2" d="M137.89,68.3l-2.23-3.13c-.25,.03-.51,.04-.78,.04h-2.62v3.09h-1.03v-9.74h3.64c1.24,0,2.22,.3,2.92,.89,.71,.59,1.06,1.41,1.06,2.45,0,.76-.19,1.4-.58,1.93s-.94,.9-1.65,1.13l2.38,3.34h-1.13Zm-.82-4.6c.51-.43,.76-1.02,.76-1.79s-.25-1.39-.76-1.82c-.51-.42-1.25-.63-2.21-.63h-2.59v4.88h2.59c.96,0,1.7-.21,2.21-.64Z"></path><path class="cls-2" d="M155.4,58.56v9.74h-.99v-7.79l-3.82,6.55h-.49l-3.83-6.51v7.75h-.99v-9.74h.85l4.23,7.22,4.19-7.22h.85Z"></path></g><g><path class="cls-2" d="M52.12,50.72c-1.32-.5-2.36-1.16-3.1-1.96l.66-1.09c.7,.74,1.65,1.35,2.84,1.81,1.19,.47,2.44,.7,3.76,.7,1.9,0,3.34-.36,4.31-1.09,.97-.72,1.46-1.67,1.46-2.83,0-.9-.26-1.61-.77-2.14-.51-.53-1.15-.94-1.91-1.23-.76-.29-1.79-.58-3.09-.89-1.47-.36-2.64-.71-3.53-1.06-.89-.34-1.64-.87-2.26-1.59-.62-.71-.93-1.67-.93-2.87,0-.97,.26-1.86,.77-2.67,.52-.81,1.3-1.45,2.36-1.93,1.06-.48,2.38-.71,3.96-.71,1.11,0,2.19,.16,3.26,.49,1.07,.32,1.99,.76,2.77,1.31l-.54,1.17c-.8-.55-1.68-.97-2.64-1.26-.96-.29-1.91-.43-2.84-.43-1.85,0-3.25,.37-4.2,1.11s-1.43,1.71-1.43,2.89c0,.9,.26,1.61,.77,2.14,.52,.53,1.15,.94,1.92,1.23,.76,.29,1.8,.59,3.12,.91,1.47,.36,2.64,.71,3.52,1.06,.88,.34,1.62,.86,2.24,1.56,.62,.7,.93,1.63,.93,2.81,0,.97-.26,1.86-.79,2.66-.52,.8-1.33,1.44-2.41,1.91-1.09,.48-2.42,.71-4,.71-1.47,0-2.86-.25-4.19-.76Z"></path><path class="cls-2" d="M81.54,33.12c1.43,1.19,2.14,2.84,2.14,4.96s-.71,3.74-2.14,4.93c-1.43,1.19-3.4,1.79-5.92,1.79h-5.72v6.54h-1.46V31.33h7.17c2.51,0,4.49,.6,5.92,1.79Zm-1.03,8.96c1.12-.93,1.69-2.27,1.69-4s-.56-3.07-1.69-4.02c-1.12-.94-2.75-1.41-4.89-1.41h-5.72v10.83h5.72c2.13,0,3.76-.47,4.89-1.4Z"></path><path class="cls-2" d="M88.89,31.33h1.46v20.01h-1.46V31.33Z"></path><path class="cls-2" d="M97.32,31.33h7.92c2.08,0,3.92,.43,5.53,1.29,1.61,.86,2.86,2.04,3.76,3.56,.89,1.51,1.34,3.23,1.34,5.16s-.45,3.64-1.34,5.16c-.9,1.51-2.15,2.7-3.76,3.56-1.61,.86-3.46,1.29-5.53,1.29h-7.92V31.33Zm7.8,18.69c1.85,0,3.48-.37,4.89-1.1,1.41-.73,2.5-1.76,3.26-3.07s1.14-2.82,1.14-4.52-.38-3.2-1.14-4.52c-.76-1.31-1.85-2.34-3.26-3.07-1.41-.73-3.04-1.1-4.89-1.1h-6.35v17.38h6.35Z"></path><path class="cls-2" d="M134.73,50.02v1.31h-13.8V31.33h13.38v1.31h-11.92v7.89h10.66v1.29h-10.66v8.2h12.35Z"></path><path class="cls-2" d="M153.93,51.34l-4.77-6.69c-.71,.1-1.35,.14-1.94,.14h-5.72v6.54h-1.46V31.33h7.17c2.51,0,4.49,.6,5.92,1.79,1.43,1.19,2.14,2.84,2.14,4.96,0,1.58-.4,2.91-1.21,3.99-.81,1.08-1.97,1.83-3.47,2.27l5,7h-1.66Zm-6.71-7.83c2.13,0,3.76-.47,4.89-1.42,1.12-.94,1.69-2.28,1.69-4.02s-.56-3.07-1.69-4.02c-1.12-.94-2.75-1.41-4.89-1.41h-5.72v10.86h5.72Z"></path><path class="cls-2" d="M174.51,51.34l-4.77-6.69c-.71,.1-1.35,.14-1.94,.14h-5.72v6.54h-1.46V31.33h7.17c2.51,0,4.49,.6,5.92,1.79,1.43,1.19,2.14,2.84,2.14,4.96,0,1.58-.4,2.91-1.21,3.99-.81,1.08-1.97,1.83-3.47,2.27l5,7h-1.66Zm-6.71-7.83c2.13,0,3.76-.47,4.89-1.42,1.12-.94,1.69-2.28,1.69-4.02s-.56-3.07-1.69-4.02c-1.12-.94-2.75-1.41-4.89-1.41h-5.72v10.86h5.72Z"></path><path class="cls-2" d="M184.37,50.15c-1.58-.89-2.83-2.1-3.73-3.64-.9-1.54-1.36-3.27-1.36-5.17s.45-3.63,1.36-5.17,2.15-2.76,3.73-3.64c1.58-.89,3.35-1.33,5.31-1.33s3.73,.44,5.32,1.31c1.58,.88,2.82,2.09,3.73,3.63,.9,1.54,1.36,3.28,1.36,5.2s-.45,3.66-1.36,5.2c-.91,1.54-2.15,2.75-3.73,3.63-1.58,.88-3.35,1.31-5.32,1.31s-3.73-.44-5.31-1.33Zm9.86-1.16c1.35-.76,2.42-1.81,3.2-3.16s1.17-2.84,1.17-4.5-.39-3.16-1.17-4.5c-.78-1.34-1.85-2.4-3.2-3.16-1.35-.76-2.87-1.14-4.54-1.14s-3.2,.38-4.56,1.14c-1.36,.76-2.43,1.81-3.21,3.16-.78,1.34-1.17,2.84-1.17,4.5s.39,3.16,1.17,4.5,1.85,2.4,3.21,3.16c1.36,.76,2.88,1.14,4.56,1.14s3.19-.38,4.54-1.14Z"></path><path class="cls-2" d="M207.85,50.17c-1.57-.88-2.81-2.09-3.71-3.63-.9-1.54-1.36-3.28-1.36-5.2s.45-3.66,1.36-5.2c.9-1.54,2.14-2.75,3.71-3.63,1.57-.88,3.34-1.31,5.3-1.31,1.45,0,2.78,.23,4,.7s2.26,1.16,3.12,2.07l-.91,.94c-1.6-1.58-3.65-2.37-6.14-2.37-1.68,0-3.2,.38-4.57,1.14-1.37,.76-2.45,1.81-3.23,3.16-.78,1.34-1.17,2.84-1.17,4.5s.39,3.16,1.17,4.5,1.86,2.4,3.23,3.16c1.37,.76,2.89,1.14,4.57,1.14,2.48,0,4.53-.8,6.14-2.4l.91,.94c-.86,.91-1.9,1.61-3.13,2.09-1.23,.48-2.56,.71-3.99,.71-1.96,0-3.73-.44-5.3-1.31Z"></path><path class="cls-2" d="M231.1,41.48l-4.49,4.6v5.26h-1.46V31.33h1.46v12.86l12.49-12.86h1.77l-8.8,9.09,9.4,10.92h-1.77l-8.6-9.86Z"></path></g></g><g><path class="cls-3" d="M15.85,68.4l2.42-48.52-.02-.33c-.02-.34-.33-.61-.71-.61H3.03c-.38,0-.69,.27-.71,.62L0,67.72c-.02,.37,.3,.68,.71,.68H15.85Z"></path><path class="cls-1" d="M34.64,0h-12.74c-.44,0-.79,.26-.81,.58l-3.38,67.82h20.28c.46,0,.82-.28,.81-.62L35.45,.58c-.02-.32-.37-.58-.81-.58"></path></g></svg> 