<?xml version="1.0" encoding="UTF-8"?>
<svg id="Layer_1" xmlns="http://www.w3.org/2000/svg" version="1.1" viewBox="0 0 250 140">
  <!-- Generator: Adobe Illustrator 29.5.1, SVG Export Plug-In . SVG Version: 2.1.0 Build 141)  -->
  <defs>
    <style>
      .st0 {
        isolation: isolate;
      }

      .st1 {
        fill: #fff;
      }
    </style>
  </defs>
  <g>
    <g class="st0">
      <g class="st0">
        <path class="st1" d="M17.6,130.4c-1.5-.6-2.7-1.3-3.6-2.3l.8-1.3c.8.9,1.9,1.6,3.3,2.1,1.4.5,2.8.8,4.4.8,2.2,0,3.9-.4,5-1.3,1.1-.8,1.7-1.9,1.7-3.3s-.3-1.9-.9-2.5c-.6-.6-1.3-1.1-2.2-1.4-.9-.3-2.1-.7-3.6-1-1.7-.4-3.1-.8-4.1-1.2-1-.4-1.9-1-2.6-1.8-.7-.8-1.1-1.9-1.1-3.3s.3-2.2.9-3.1c.6-.9,1.5-1.7,2.7-2.2,1.2-.6,2.8-.8,4.6-.8s2.5.2,3.8.6c1.2.4,2.3.9,3.2,1.5l-.6,1.4c-.9-.6-2-1.1-3.1-1.5-1.1-.3-2.2-.5-3.3-.5-2.1,0-3.8.4-4.9,1.3-1.1.9-1.7,2-1.7,3.4s.3,1.9.9,2.5,1.3,1.1,2.2,1.4c.9.3,2.1.7,3.6,1.1,1.7.4,3.1.8,4.1,1.2,1,.4,1.9,1,2.6,1.8.7.8,1.1,1.9,1.1,3.3s-.3,2.2-.9,3.1c-.6.9-1.5,1.7-2.8,2.2-1.3.6-2.8.8-4.6.8s-3.3-.3-4.9-.9Z"/>
        <path class="st1" d="M51.8,110c1.7,1.4,2.5,3.3,2.5,5.8s-.8,4.3-2.5,5.7c-1.7,1.4-3.9,2.1-6.9,2.1h-6.6v7.6h-1.7v-23.2h8.3c2.9,0,5.2.7,6.9,2.1ZM50.6,120.4c1.3-1.1,2-2.6,2-4.6s-.7-3.6-2-4.7c-1.3-1.1-3.2-1.6-5.7-1.6h-6.6v12.6h6.6c2.5,0,4.4-.5,5.7-1.6Z"/>
        <path class="st1" d="M60,107.9h1.7v23.2h-1.7v-23.2Z"/>
        <path class="st1" d="M69.7,107.9h9.2c2.4,0,4.5.5,6.4,1.5,1.9,1,3.3,2.4,4.4,4.1,1,1.8,1.6,3.8,1.6,6s-.5,4.2-1.6,6c-1,1.8-2.5,3.1-4.4,4.1-1.9,1-4,1.5-6.4,1.5h-9.2v-23.2ZM78.8,129.6c2.1,0,4-.4,5.7-1.3,1.6-.9,2.9-2,3.8-3.6.9-1.5,1.3-3.3,1.3-5.2s-.4-3.7-1.3-5.2c-.9-1.5-2.1-2.7-3.8-3.6-1.6-.9-3.5-1.3-5.7-1.3h-7.4v20.2h7.4Z"/>
        <path class="st1" d="M113.2,129.6v1.5h-16v-23.2h15.5v1.5h-13.8v9.2h12.4v1.5h-12.4v9.5h14.3Z"/>
        <path class="st1" d="M135.4,131.1l-5.5-7.8c-.8.1-1.6.2-2.3.2h-6.6v7.6h-1.7v-23.2h8.3c2.9,0,5.2.7,6.9,2.1s2.5,3.3,2.5,5.8-.5,3.4-1.4,4.6c-.9,1.2-2.3,2.1-4,2.6l5.8,8.1h-1.9ZM127.7,122c2.5,0,4.4-.5,5.7-1.6s2-2.6,2-4.7-.7-3.6-2-4.7c-1.3-1.1-3.2-1.6-5.7-1.6h-6.6v12.6h6.6Z"/>
        <path class="st1" d="M159.3,131.1l-5.5-7.8c-.8.1-1.6.2-2.3.2h-6.6v7.6h-1.7v-23.2h8.3c2.9,0,5.2.7,6.9,2.1s2.5,3.3,2.5,5.8-.5,3.4-1.4,4.6c-.9,1.2-2.3,2.1-4,2.6l5.8,8.1h-1.9ZM151.5,122c2.5,0,4.4-.5,5.7-1.6s2-2.6,2-4.7-.7-3.6-2-4.7c-1.3-1.1-3.2-1.6-5.7-1.6h-6.6v12.6h6.6Z"/>
      </g>
      <g class="st0">
        <path class="st1" d="M171.1,129.7c-1.8-1-3.3-2.4-4.3-4.2-1-1.8-1.6-3.8-1.6-6s.5-4.2,1.6-6c1.1-1.8,2.5-3.2,4.3-4.2,1.8-1,3.9-1.5,6.2-1.5s4.3.5,6.2,1.5c1.8,1,3.3,2.4,4.3,4.2,1,1.8,1.6,3.8,1.6,6s-.5,4.2-1.6,6c-1.1,1.8-2.5,3.2-4.3,4.2-1.8,1-3.9,1.5-6.2,1.5s-4.3-.5-6.2-1.5ZM182.5,128.4c1.6-.9,2.8-2.1,3.7-3.7.9-1.6,1.4-3.3,1.4-5.2s-.5-3.7-1.4-5.2c-.9-1.6-2.1-2.8-3.7-3.7-1.6-.9-3.3-1.3-5.3-1.3s-3.7.4-5.3,1.3c-1.6.9-2.8,2.1-3.7,3.7-.9,1.6-1.4,3.3-1.4,5.2s.5,3.7,1.4,5.2c.9,1.6,2.2,2.8,3.7,3.7s3.3,1.3,5.3,1.3,3.7-.4,5.3-1.3Z"/>
      </g>
      <g class="st0">
        <path class="st1" d="M198.3,129.7c-1.8-1-3.3-2.4-4.3-4.2-1-1.8-1.6-3.8-1.6-6s.5-4.2,1.6-6c1.1-1.8,2.5-3.2,4.3-4.2,1.8-1,3.9-1.5,6.2-1.5s3.2.3,4.6.8c1.4.5,2.6,1.3,3.6,2.4l-1.1,1.1c-1.9-1.8-4.2-2.8-7.1-2.8s-3.7.4-5.3,1.3c-1.6.9-2.8,2.1-3.7,3.7-.9,1.6-1.4,3.3-1.4,5.2s.5,3.7,1.4,5.2c.9,1.6,2.2,2.8,3.7,3.7s3.4,1.3,5.3,1.3c2.9,0,5.3-.9,7.1-2.8l1.1,1.1c-1,1.1-2.2,1.9-3.6,2.4-1.4.6-3,.8-4.6.8s-4.3-.5-6.2-1.5Z"/>
        <path class="st1" d="M225.3,119.7l-5.2,5.3v6.1h-1.7v-23.2h1.7v14.9l14.5-14.9h2.1l-10.2,10.5,10.9,12.7h-2.1l-10-11.4Z"/>
      </g>
    </g>
    <g>
      <path class="st1" d="M120.9,96.1l2.8-56.3v-.4c0-.4-.4-.7-.8-.7h-16.8c-.4,0-.8.3-.8.7l-2.7,55.9c0,.4.3.8.8.8h17.6Z"/>
      <path class="st1" d="M142.7,16.8h-14.8c-.5,0-.9.3-.9.7l-3.9,78.7h23.5c.5,0,1-.3.9-.7l-3.9-78c0-.4-.4-.7-.9-.7"/>
    </g>
  </g>
  <g class="st0">
    <g class="st0">
      <path class="st1" d="M242.3,101.8c.5.3.9.7,1.1,1.1.3.5.4,1,.4,1.6s-.1,1.1-.4,1.6c-.3.5-.7.9-1.2,1.2-.5.3-1,.4-1.6.4s-1.1-.1-1.6-.4c-.5-.3-.9-.7-1.1-1.2s-.4-1-.4-1.6.1-1.1.4-1.6.7-.9,1.1-1.2c.5-.3,1-.4,1.6-.4s1.1.1,1.6.4ZM242.1,107.1c.4-.3.8-.6,1.1-1.1s.4-.9.4-1.5-.1-1-.4-1.5c-.3-.4-.6-.8-1-1-.4-.3-.9-.4-1.5-.4s-1,.1-1.5.4c-.4.3-.8.6-1,1.1-.3.4-.4.9-.4,1.5s.1,1,.4,1.5c.3.4.6.8,1,1.1.4.3.9.4,1.5.4s1-.1,1.5-.4ZM242,104.6c-.1.2-.4.3-.6.4l.9,1.4h-.4l-.8-1.3s-.1,0-.2,0h-1v1.3h-.4v-3.7h1.4c.4,0,.8.1,1,.3.3.2.4.5.4.9s0,.5-.2.7ZM241.6,104.6c.2-.2.3-.4.3-.7s0-.5-.3-.7c-.2-.2-.5-.2-.8-.2h-1v1.8h1c.3,0,.6,0,.8-.2Z"/>
    </g>
  </g>
</svg>