<?xml version="1.0" encoding="UTF-8"?> <!-- Generator: Adobe Illustrator 25.2.1, SVG Export Plug-In . SVG Version: 6.00 Build 0) --> <svg xmlns="http://www.w3.org/2000/svg" xmlns:xlink="http://www.w3.org/1999/xlink" version="1.1" id="Layer_1" x="0px" y="0px" viewBox="0 0 496 537" style="enable-background:new 0 0 496 537;" xml:space="preserve"> <style type="text/css"> .st0{fill:#941B0C;stroke:#941B0C;stroke-width:6;stroke-miterlimit:10;} .st1{fill:#941B0C;stroke:#941B0C;stroke-width:10;stroke-miterlimit:10;} </style> <path class="st0" d="M60.5,363.1c-1.3,1.3-2,3.1-2,5v131.6c0,1.9,0.7,3.6,2,5c1.3,1.3,3,2,5,2h56.4l0,0c1.9,0,3.6-0.7,4.9-2 c1.3-1.3,2-3.1,2-5V368c0-1.9-0.7-3.6-2-5c-1.3-1.3-3.1-2-4.9-2l0,0H65.4C63.5,361,61.8,361.8,60.5,363.1z M72.4,375h42.4v117.6 H72.4V375z"></path> <path class="st0" d="M171.2,292.9v206.7c0,1.9,0.7,3.6,2,4.9c1.3,1.3,3.1,2.1,5,2.1h56.4c1.9,0,3.6-0.7,5-2.1c1.3-1.3,2-3.1,2-4.9 V292.9c0-3.8-3.2-7-7-7h-56.4C177,285.9,171.2,286.3,171.2,292.9z M185.2,299.9h42.4v192.7h-42.4L185.2,299.9z"></path> <path class="st0" d="M290.9,210.7c-1.9,0-3.6,0.7-4.9,2s-2.1,3.1-2.1,5v281.9c0,1.9,0.7,3.6,2,5c1.3,1.3,3.1,2,4.9,2l0,0h56.4 c1.9,0,3.6-0.7,5-2.1c1.3-1.3,2-3.1,2-4.9V217.7c0-3.8-3.2-7-7-7H290.9L290.9,210.7z M297.9,224.7h42.4v267.9h-42.4V224.7z"></path> <path class="st0" d="M403.7,506.6h56.4l0,0c1.9,0,3.6-0.7,4.9-2s2-3.1,2-5V142.5c0-1.9-0.7-3.6-2-5c-1.3-1.3-3.1-2-4.9-2l0,0h-56.4 c-1.9,0-3.6,0.7-5,2.1c-1.3,1.3-2,3.1-2,4.9v357.1c0,1.9,0.7,3.6,2,4.9C400.1,505.8,401.8,506.6,403.7,506.6z M410.7,149.5h42.4 v343.1h-42.4V149.5z"></path> <path class="st1" d="M131.2,243.5c60.9,0,110.4-49.5,110.4-110.4S192.1,22.7,131.2,22.7S20.8,72.2,20.8,133.1 C20.8,194,70.3,243.5,131.2,243.5z M63,64.9c18.2-18.2,42.4-28.2,68.2-28.2s50,10,68.2,28.2s28.2,42.4,28.2,68.2s-10,50-28.2,68.2 s-42.4,28.2-68.2,28.2s-50-10-68.2-28.2s-28.2-42.4-28.2-68.2S44.8,83.1,63,64.9z"></path> <path class="st1" d="M124.2,133.1c0,1.9,0.7,3.6,2,4.9l47,47c2,2,5,2.1,5,2.1c6.8,0,7-6.3,7-7c0,0-0.1-3-2-4.9l-45-45V67.3 c0-4.1-2.9-7-7-7c-4,0-7,3.7-7,7l0,0V133.1z"></path> <rect x="410.7" y="385.1" class="st0" width="51.3" height="112.2"></rect> <rect x="283.9" y="411.3" class="st0" width="61.1" height="88.3"></rect> <rect x="178" y="433.3" class="st0" width="56" height="66.3"></rect> <rect x="67" y="457.7" class="st0" width="57.2" height="41.9"></rect> </svg> 