<?xml version="1.0" encoding="UTF-8"?> <svg xmlns="http://www.w3.org/2000/svg" id="Layer_1" data-name="Layer 1" viewBox="0 0 249.65 71.94"><defs><style> .cls-1 { fill: #db4025; } .cls-2 { fill: #414344; } .cls-3 { fill: #3d6489; } </style></defs><g><g><path class="cls-2" d="M50.3,58.56h3.96c1.03,0,1.94,.21,2.73,.62,.79,.41,1.4,.99,1.84,1.73,.44,.74,.65,1.58,.65,2.52s-.22,1.79-.65,2.52c-.44,.74-1.05,1.31-1.84,1.73-.79,.41-1.7,.62-2.73,.62h-3.96v-9.74Zm3.91,8.85c.85,0,1.6-.17,2.24-.51,.64-.34,1.14-.81,1.49-1.41s.53-1.29,.53-2.07-.18-1.47-.53-2.07-.85-1.07-1.49-1.4c-.64-.34-1.39-.51-2.24-.51h-2.88v7.96h2.88Z"></path><path class="cls-2" d="M72.01,65.7h-5.43l-1.17,2.6h-1.07l4.45-9.74h1.02l4.45,9.74h-1.09l-1.17-2.6Zm-.38-.83l-2.34-5.23-2.34,5.23h4.67Z"></path><path class="cls-2" d="M81.89,59.45h-3.42v-.89h7.87v.89h-3.42v8.85h-1.03v-8.85Z"></path><path class="cls-2" d="M98.21,65.7h-5.43l-1.17,2.6h-1.07l4.45-9.74h1.02l4.45,9.74h-1.09l-1.17-2.6Zm-.38-.83l-2.34-5.23-2.34,5.23h4.67Z"></path><path class="cls-2" d="M120.93,68.45l-1.35-1.39c-.83,.88-1.91,1.32-3.25,1.32-.63,0-1.19-.1-1.69-.31s-.88-.5-1.16-.88-.42-.8-.42-1.29c0-.58,.19-1.11,.56-1.57,.37-.46,1-.95,1.89-1.46-.46-.48-.78-.89-.96-1.23-.18-.34-.26-.7-.26-1.08,0-.62,.22-1.12,.67-1.5,.45-.38,1.04-.57,1.79-.57,.7,0,1.25,.17,1.66,.51,.41,.34,.61,.82,.61,1.42,0,.48-.16,.92-.49,1.3-.33,.38-.89,.81-1.68,1.27l2.67,2.75c.3-.53,.51-1.15,.65-1.88l.81,.25c-.18,.87-.46,1.62-.86,2.24l1.39,1.43-.57,.65Zm-1.93-1.99l-2.94-3.02c-.77,.44-1.3,.83-1.59,1.18-.29,.35-.44,.75-.44,1.18,0,.53,.22,.95,.65,1.27,.43,.32,1,.48,1.7,.48,1.08,0,1.95-.37,2.62-1.1Zm-3.39-6.87c-.27,.24-.41,.56-.41,.96,0,.29,.07,.56,.22,.82,.15,.26,.44,.61,.88,1.06,.71-.41,1.19-.76,1.46-1.04,.27-.29,.4-.6,.4-.95,0-.37-.12-.67-.38-.88-.25-.22-.6-.33-1.04-.33-.48,0-.86,.12-1.13,.36Z"></path><path class="cls-2" d="M141.25,65.7h-5.43l-1.17,2.6h-1.07l4.45-9.74h1.02l4.45,9.74h-1.09l-1.17-2.6Zm-.38-.83l-2.34-5.23-2.34,5.23h4.67Z"></path><path class="cls-2" d="M157.37,58.56v9.74h-.85l-6.26-7.9v7.9h-1.03v-9.74h.85l6.27,7.9v-7.9h1.02Z"></path><path class="cls-2" d="M170.77,65.7h-5.43l-1.17,2.6h-1.07l4.45-9.74h1.02l4.45,9.74h-1.09l-1.17-2.6Zm-.38-.83l-2.34-5.23-2.34,5.23h4.67Z"></path><path class="cls-2" d="M178.76,58.56h1.03v8.85h5.45v.89h-6.48v-9.74Z"></path><path class="cls-2" d="M194.41,64.93v3.37h-1.02v-3.37l-3.9-6.37h1.1l3.34,5.47,3.34-5.47h1.03l-3.9,6.37Z"></path><path class="cls-2" d="M205.91,59.45h-3.42v-.89h7.87v.89h-3.42v8.85h-1.03v-8.85Z"></path><path class="cls-2" d="M216.12,58.56h1.03v9.74h-1.03v-9.74Z"></path><path class="cls-2" d="M226.06,67.74c-.77-.43-1.38-1.02-1.82-1.77s-.66-1.6-.66-2.54,.22-1.78,.66-2.54,1.05-1.35,1.83-1.77c.78-.43,1.65-.64,2.62-.64,.72,0,1.39,.12,2,.36s1.13,.59,1.56,1.06l-.65,.65c-.76-.77-1.72-1.15-2.88-1.15-.77,0-1.47,.18-2.1,.53-.63,.35-1.12,.83-1.48,1.45-.36,.61-.54,1.3-.54,2.06s.18,1.45,.54,2.06c.36,.61,.85,1.09,1.48,1.45s1.33,.53,2.1,.53c1.17,0,2.13-.39,2.88-1.17l.65,.65c-.43,.46-.95,.82-1.57,1.06s-1.29,.37-2.01,.37c-.96,0-1.83-.21-2.61-.64Z"></path><path class="cls-2" d="M239.17,68.03c-.66-.23-1.18-.54-1.54-.92l.4-.79c.35,.35,.82,.64,1.4,.86,.58,.22,1.19,.33,1.81,.33,.87,0,1.53-.16,1.96-.48,.44-.32,.65-.73,.65-1.25,0-.39-.12-.7-.36-.93-.24-.23-.53-.41-.87-.54-.34-.12-.82-.26-1.43-.41-.73-.19-1.32-.36-1.75-.54-.44-.17-.81-.43-1.12-.79-.31-.35-.47-.83-.47-1.43,0-.49,.13-.94,.39-1.34,.26-.4,.66-.73,1.2-.97,.54-.24,1.21-.36,2-.36,.56,0,1.1,.08,1.63,.23,.53,.15,.99,.36,1.38,.63l-.35,.82c-.41-.27-.84-.47-1.31-.61-.46-.13-.92-.2-1.36-.2-.85,0-1.5,.17-1.93,.49s-.65,.75-.65,1.27c0,.39,.12,.7,.35,.94,.24,.24,.53,.42,.89,.54,.36,.12,.84,.26,1.44,.41,.71,.18,1.29,.35,1.73,.52,.44,.17,.81,.43,1.12,.78,.31,.35,.46,.82,.46,1.41,0,.49-.13,.94-.4,1.34-.26,.4-.67,.72-1.22,.96-.55,.24-1.22,.35-2.02,.35-.72,0-1.42-.12-2.08-.35Z"></path></g><g><path class="cls-2" d="M52.12,50.72c-1.32-.5-2.36-1.16-3.1-1.96l.66-1.09c.7,.74,1.65,1.35,2.84,1.81,1.19,.47,2.44,.7,3.76,.7,1.91,0,3.34-.36,4.32-1.09s1.46-1.67,1.46-2.83c0-.9-.26-1.61-.77-2.14-.51-.53-1.15-.94-1.91-1.23-.76-.29-1.79-.58-3.09-.89-1.47-.36-2.64-.71-3.53-1.06-.89-.34-1.64-.87-2.26-1.59-.62-.71-.93-1.67-.93-2.87,0-.97,.26-1.86,.77-2.67,.51-.81,1.3-1.45,2.36-1.93,1.06-.48,2.38-.71,3.96-.71,1.11,0,2.19,.16,3.26,.49,1.07,.32,1.99,.76,2.77,1.31l-.54,1.17c-.8-.55-1.68-.97-2.64-1.26-.96-.29-1.91-.43-2.84-.43-1.85,0-3.25,.37-4.2,1.11-.95,.74-1.43,1.71-1.43,2.89,0,.9,.26,1.61,.77,2.14,.51,.53,1.15,.94,1.92,1.23,.76,.29,1.8,.59,3.12,.91,1.47,.36,2.64,.71,3.52,1.06,.88,.34,1.62,.86,2.24,1.56,.62,.7,.93,1.63,.93,2.81,0,.97-.26,1.86-.79,2.66s-1.33,1.44-2.42,1.91c-1.09,.48-2.42,.71-4,.71-1.47,0-2.86-.25-4.19-.76Z"></path><path class="cls-2" d="M81.54,33.12c1.43,1.19,2.14,2.84,2.14,4.96s-.71,3.74-2.14,4.93c-1.43,1.19-3.4,1.79-5.92,1.79h-5.72v6.54h-1.46V31.33h7.17c2.51,0,4.49,.6,5.92,1.79Zm-1.03,8.96c1.12-.93,1.69-2.27,1.69-4s-.56-3.07-1.69-4.02c-1.12-.94-2.75-1.41-4.89-1.41h-5.72v10.83h5.72c2.13,0,3.76-.47,4.89-1.4Z"></path><path class="cls-2" d="M88.89,31.33h1.46v20.01h-1.46V31.33Z"></path><path class="cls-2" d="M97.32,31.33h7.92c2.08,0,3.92,.43,5.53,1.29,1.61,.86,2.86,2.04,3.76,3.56s1.34,3.23,1.34,5.16-.45,3.64-1.34,5.16-2.15,2.7-3.76,3.56c-1.61,.86-3.45,1.29-5.53,1.29h-7.92V31.33Zm7.8,18.69c1.85,0,3.48-.37,4.89-1.1,1.41-.73,2.5-1.76,3.26-3.07,.76-1.31,1.14-2.82,1.14-4.52s-.38-3.2-1.14-4.52c-.76-1.31-1.85-2.34-3.26-3.07-1.41-.73-3.04-1.1-4.89-1.1h-6.34v17.38h6.34Z"></path><path class="cls-2" d="M134.73,50.02v1.31h-13.8V31.33h13.38v1.31h-11.92v7.89h10.66v1.29h-10.66v8.2h12.35Z"></path><path class="cls-2" d="M153.93,51.34l-4.77-6.69c-.71,.1-1.35,.14-1.94,.14h-5.72v6.54h-1.46V31.33h7.17c2.51,0,4.49,.6,5.92,1.79s2.14,2.84,2.14,4.96c0,1.58-.41,2.91-1.21,3.99-.81,1.08-1.97,1.83-3.47,2.27l5,7h-1.66Zm-6.72-7.83c2.13,0,3.76-.47,4.89-1.42,1.12-.94,1.69-2.28,1.69-4.02s-.56-3.07-1.69-4.02c-1.12-.94-2.75-1.41-4.89-1.41h-5.72v10.86h5.72Z"></path><path class="cls-2" d="M174.51,51.34l-4.77-6.69c-.71,.1-1.35,.14-1.94,.14h-5.72v6.54h-1.46V31.33h7.17c2.51,0,4.49,.6,5.92,1.79s2.14,2.84,2.14,4.96c0,1.58-.41,2.91-1.21,3.99-.81,1.08-1.97,1.83-3.47,2.27l5,7h-1.66Zm-6.72-7.83c2.13,0,3.76-.47,4.89-1.42,1.12-.94,1.69-2.28,1.69-4.02s-.56-3.07-1.69-4.02c-1.12-.94-2.75-1.41-4.89-1.41h-5.72v10.86h5.72Z"></path><path class="cls-2" d="M184.37,50.15c-1.58-.89-2.83-2.1-3.73-3.64-.91-1.54-1.36-3.27-1.36-5.17s.45-3.63,1.36-5.17c.9-1.54,2.15-2.76,3.73-3.64,1.58-.89,3.35-1.33,5.32-1.33s3.73,.44,5.32,1.31c1.58,.88,2.82,2.09,3.73,3.63,.9,1.54,1.36,3.28,1.36,5.2s-.45,3.66-1.36,5.2c-.91,1.54-2.15,2.75-3.73,3.63-1.58,.88-3.35,1.31-5.32,1.31s-3.73-.44-5.32-1.33Zm9.86-1.16c1.35-.76,2.42-1.81,3.2-3.16s1.17-2.84,1.17-4.5-.39-3.16-1.17-4.5c-.78-1.34-1.85-2.4-3.2-3.16-1.35-.76-2.87-1.14-4.54-1.14s-3.2,.38-4.56,1.14c-1.36,.76-2.43,1.81-3.21,3.16-.78,1.34-1.17,2.84-1.17,4.5s.39,3.16,1.17,4.5,1.85,2.4,3.21,3.16c1.36,.76,2.88,1.14,4.56,1.14s3.19-.38,4.54-1.14Z"></path><path class="cls-2" d="M207.85,50.17c-1.57-.88-2.81-2.09-3.71-3.63-.91-1.54-1.36-3.28-1.36-5.2s.45-3.66,1.36-5.2c.9-1.54,2.14-2.75,3.71-3.63,1.57-.88,3.34-1.31,5.3-1.31,1.45,0,2.78,.23,4,.7,1.22,.47,2.26,1.16,3.12,2.07l-.91,.94c-1.6-1.58-3.65-2.37-6.14-2.37-1.68,0-3.2,.38-4.57,1.14-1.37,.76-2.45,1.81-3.23,3.16-.78,1.34-1.17,2.84-1.17,4.5s.39,3.16,1.17,4.5,1.86,2.4,3.23,3.16c1.37,.76,2.9,1.14,4.57,1.14,2.48,0,4.52-.8,6.14-2.4l.91,.94c-.86,.91-1.9,1.61-3.13,2.09-1.23,.48-2.56,.71-3.99,.71-1.96,0-3.73-.44-5.3-1.31Z"></path><path class="cls-2" d="M231.1,41.48l-4.49,4.6v5.26h-1.46V31.33h1.46v12.86l12.49-12.86h1.77l-8.8,9.09,9.4,10.92h-1.77l-8.6-9.86Z"></path></g></g><g><path class="cls-3" d="M15.85,68.4l2.42-48.52-.02-.33c-.02-.34-.33-.61-.71-.61H3.03c-.38,0-.69,.27-.71,.62L0,67.72c-.02,.37,.3,.68,.71,.68H15.85Z"></path><path class="cls-1" d="M34.64,0h-12.74c-.44,0-.79,.26-.81,.58l-3.38,67.82h20.28c.46,0,.82-.28,.81-.62L35.45,.58c-.02-.32-.37-.58-.81-.58"></path></g></svg> 