<?xml version="1.0" encoding="UTF-8"?> <!-- Generator: Adobe Illustrator 25.2.1, SVG Export Plug-In . SVG Version: 6.00 Build 0) --> <svg xmlns="http://www.w3.org/2000/svg" xmlns:xlink="http://www.w3.org/1999/xlink" version="1.1" id="Layer_1" x="0px" y="0px" viewBox="0 0 600 600" style="enable-background:new 0 0 600 600;" xml:space="preserve"> <style type="text/css"> .st0{fill:#F79146;stroke:#F79146;stroke-width:10;stroke-miterlimit:10;} </style> <g> <g> <path class="st0" d="M87.9,361.2c4.1,0.4,7.2-2.2,9.2-7.7c11.1-128.2,146.3-215.2,267.3-173.4c4.4,1.5,9.2-0.8,10.8-5.2 c1.5-4.4-0.8-9.2-5.2-10.8c-14.8-5.1-30-8.6-45.5-10.4V134h9.1c4.7,0,8.5-3.8,8.5-8.5V98.1c21.5-5.4,33.2-19.7,35.1-42.8 c0-24-19.5-43.6-43.6-43.6h-70.2c-26.5,2.5-41.1,17-43.6,43.6c0,21.1,15.1,38.8,35.1,42.7v27.5c0,4.7,3.8,8.5,8.5,8.5h9.1v19.7 C170.8,165.8,89.1,250.3,80.2,352C79.8,356.7,83.3,360.8,87.9,361.2L87.9,361.2z M236.7,55.4c1.5-16.2,10.4-25.1,26.6-26.6h70.2 c14.7,0,26.6,11.9,26.6,26.6c-1,13.2-7.4,21.7-19.2,25.6c-4.4-19.5-21.8-34-42.5-34s-38.1,14.6-42.5,34 C244.9,77.7,236.7,67.5,236.7,55.4L236.7,55.4z M271.8,90.5L271.8,90.5L271.8,90.5c0-14.7,12-26.7,26.6-26.7 c14.7,0,26.6,11.9,26.6,26.6l0,0l0,0V117h-53.2V90.5z M289.4,134.1h18.1v18.3c-6-0.3-12.1-0.2-18.1,0V134.1z"></path> </g> <g> <path class="st0" d="M459.2,222.5l13-13l6.4,6.4c4,3.3,8,3.3,12,0l12.4-12.4c10.1-10.1,10.1-26.7,0-36.8 c-12.3-10.2-24.5-10.2-36.8,0l-12.4,12.4c-3.3,4-3.3,8,0,12l6.4,6.4l-12.9,12.9c-12.6-11.7-26.7-22-42.1-30.6 c-1-0.5-10.6-7-33.7-15c-4.8-1.6,22.3,28,25.5,29.8c64,35.7,103.7,103.4,103.7,176.6c0,111.4-90.7,202.1-202.1,202.1 c-103.9,0-192.3-81-201.3-184.4c-0.4-4.7-9.8-46.8-14.5-46.4s-2.8,43.2-2.4,47.9c9.7,111.7,106.2,199.8,218.2,199.8 c120.8,0,219-98.3,219-219.1C517.5,315.3,496.1,262.4,459.2,222.5L459.2,222.5z M478.1,178.7c4.3-3.5,8.6-3.5,12.8,0 c3.5,3.5,3.5,9.3,0,12.8l-6.4,6.4c-4.3-4.3-8.5-8.5-12.8-12.8L478.1,178.7z"></path> </g> <g> <g> <path class="st0" d="M230.9,557.2c-1.6,5.1,1.2,10.4,6.3,11.9c129.2,39.9,267.9-60,268.4-196.8 c0.3-129.2-104.2-208.3-207.1-208.3c-112.6,0-207.1,94.9-207.1,207.1c0,73.5,41.7,144.7,105.8,180.7c4.6,2.6,82,16.3,84.5,11.8 c-17.6-2-70.7-25.8-75.2-28.4c-12.4-7-23.8-15.2-34-24.6l21.1-21.1c3.7-3.7,3.7-9.8,0-13.5c-3.7-3.7-9.8-3.7-13.5,0L159,497.3 c-28.6-31.8-46.1-72.9-48.2-116.5h29.7c5.3,0,9.6-4.3,9.6-9.6s-4.3-9.6-9.6-9.6h-29.8c2.3-44.7,20.2-85.3,48.4-116.5l20.9,20.9 c4.5,3.7,9,3.7,13.5,0c3.7-3.7,3.7-9.8,0-13.5l-20.9-20.9c31.2-28.2,71.7-46.1,116.5-48.3v29.7c0,5.3,4.3,9.6,9.6,9.6 s9.6-4.3,9.6-9.6v-29.7c44.7,2.3,85.3,20.2,116.3,48.4l-20.8,20.8c-3.7,3.7-3.7,9.8,0,13.5c4.5,3.7,9,3.7,13.5,0l20.8-20.8 c28.2,31.2,46.1,71.7,48.3,116.5h-29.6c-5.3,0-9.6,4.3-9.6,9.6s4.3,9.6,9.6,9.6h29.6c-2.3,44.6-20.2,85.3-48.3,116.3l-20.8-20.8 c-3.7-3.7-9.8-3.7-13.5,0c-3.7,3.7-3.7,9.8,0,13.5l20.8,20.8c-31.2,28.2-71.7,46.1-116.5,48.3v-29.6c0-5.3-4.3-9.6-9.6-9.6 s-9.6,4.3-9.6,9.6v29.6c-15.7-0.8-31.1-3.5-46.1-8.1C237.8,549.3,232.5,552.2,230.9,557.2L230.9,557.2z"></path> </g> </g> <g> <path class="st0" d="M298.6,267.5c-4.3,0-7.8,3.5-7.8,7.8v65.2c-13.8,3.5-24,16-24,30.7c0,17.5,14.2,31.7,31.7,31.7 s31.7-14.2,31.7-31.7c0-14.9-10.2-27.4-24-30.7v-65.2C306.3,271,302.9,267.5,298.6,267.5L298.6,267.5z M314.8,371.2 c0,8.9-7.3,16.2-16.2,16.2s-16.2-7.3-16.2-16.2s7.3-16.2,16.2-16.2C307.5,355,314.8,362.2,314.8,371.2z"></path> </g> </g> </svg> 