<?xml version="1.0" encoding="UTF-8"?> <svg xmlns="http://www.w3.org/2000/svg" id="Layer_1" version="1.1" viewBox="0 0 252 81"><defs><style> .st0 { fill: #414344; } .st1 { isolation: isolate; } .st2 { fill: #3d6489; } .st3 { fill: #db4025; } </style></defs><g><g class="st1"><g class="st1"><g class="st1"><path class="st0" d="M49.5,67.6h4c1,0,1.9.2,2.7.6.8.4,1.4,1,1.8,1.7.4.7.7,1.6.7,2.5s-.2,1.8-.7,2.5c-.4.7-1,1.3-1.8,1.7-.8.4-1.7.6-2.7.6h-4v-9.7ZM53.4,76.4c.9,0,1.6-.2,2.2-.5.6-.3,1.1-.8,1.5-1.4.4-.6.5-1.3.5-2.1s-.2-1.5-.5-2.1c-.4-.6-.8-1.1-1.5-1.4-.6-.3-1.4-.5-2.2-.5h-2.9v8h2.9Z"></path></g><g class="st1"><path class="st0" d="M71.1,74.7h-5.4l-1.2,2.6h-1.1l4.5-9.7h1l4.5,9.7h-1.1l-1.2-2.6ZM70.7,73.9l-2.3-5.2-2.3,5.2h4.7Z"></path><path class="st0" d="M80,68.5h-3.4v-.9h7.9v.9h-3.4v8.8h-1v-8.8Z"></path></g><g class="st1"><path class="st0" d="M96.4,74.7h-5.4l-1.2,2.6h-1.1l4.5-9.7h1l4.5,9.7h-1.1l-1.2-2.6ZM96.1,73.9l-2.3-5.2-2.3,5.2h4.7Z"></path><path class="st0" d="M119.3,77.5l-1.3-1.4c-.8.9-1.9,1.3-3.3,1.3s-1.2-.1-1.7-.3-.9-.5-1.2-.9c-.3-.4-.4-.8-.4-1.3s.2-1.1.6-1.6c.4-.5,1-1,1.9-1.5-.5-.5-.8-.9-1-1.2-.2-.3-.3-.7-.3-1.1,0-.6.2-1.1.7-1.5.4-.4,1-.6,1.8-.6s1.2.2,1.7.5c.4.3.6.8.6,1.4s-.2.9-.5,1.3c-.3.4-.9.8-1.7,1.3l2.7,2.8c.3-.5.5-1.2.7-1.9l.8.3c-.2.9-.5,1.6-.9,2.2l1.4,1.4-.6.7ZM117.3,75.5l-2.9-3c-.8.4-1.3.8-1.6,1.2-.3.4-.4.7-.4,1.2s.2,1,.6,1.3c.4.3,1,.5,1.7.5,1.1,0,1.9-.4,2.6-1.1ZM113.9,68.6c-.3.2-.4.6-.4,1s0,.6.2.8.4.6.9,1.1c.7-.4,1.2-.8,1.5-1s.4-.6.4-.9-.1-.7-.4-.9c-.3-.2-.6-.3-1-.3s-.9.1-1.1.4Z"></path><path class="st0" d="M139.7,74.7h-5.4l-1.2,2.6h-1.1l4.5-9.7h1l4.5,9.7h-1.1l-1.2-2.6ZM139.3,73.9l-2.3-5.2-2.3,5.2h4.7Z"></path><path class="st0" d="M155.9,67.6v9.7h-.8l-6.3-7.9v7.9h-1v-9.7h.8l6.3,7.9v-7.9h1Z"></path><path class="st0" d="M169.3,74.7h-5.4l-1.2,2.6h-1.1l4.5-9.7h1l4.5,9.7h-1.1l-1.2-2.6ZM168.9,73.9l-2.3-5.2-2.3,5.2h4.7Z"></path></g><g class="st1"><path class="st0" d="M177.4,67.6h1v8.8h5.5v.9h-6.5v-9.7Z"></path></g><g class="st1"><path class="st0" d="M192,74v3.4h-1v-3.4l-3.9-6.4h1.1l3.3,5.5,3.3-5.5h1l-3.9,6.4Z"></path></g><g class="st1"><path class="st0" d="M203.5,68.5h-3.4v-.9h7.9v.9h-3.4v8.8h-1v-8.8Z"></path><path class="st0" d="M213.8,67.6h1v9.7h-1v-9.7Z"></path></g><g class="st1"><path class="st0" d="M223.8,76.8c-.8-.4-1.4-1-1.8-1.8s-.7-1.6-.7-2.5.2-1.8.7-2.5,1-1.3,1.8-1.8,1.7-.6,2.6-.6,1.4.1,2,.4,1.1.6,1.6,1.1l-.7.7c-.8-.8-1.7-1.2-2.9-1.2s-1.5.2-2.1.5c-.6.4-1.1.8-1.5,1.4-.4.6-.5,1.3-.5,2.1s.2,1.4.5,2.1c.4.6.9,1.1,1.5,1.4.6.4,1.3.5,2.1.5,1.2,0,2.1-.4,2.9-1.2l.7.7c-.4.5-.9.8-1.6,1.1-.6.2-1.3.4-2,.4s-1.8-.2-2.6-.6Z"></path></g><g class="st1"><path class="st0" d="M236.9,77.1c-.7-.2-1.2-.5-1.5-.9l.4-.8c.4.4.8.6,1.4.9.6.2,1.2.3,1.8.3s1.5-.2,2-.5c.4-.3.7-.7.7-1.2s-.1-.7-.4-.9c-.2-.2-.5-.4-.9-.5s-.8-.3-1.4-.4c-.7-.2-1.3-.4-1.8-.5-.4-.2-.8-.4-1.1-.8-.3-.4-.5-.8-.5-1.4s.1-.9.4-1.3.7-.7,1.2-1,1.2-.4,2-.4,1.1,0,1.6.2,1,.4,1.4.6l-.3.8c-.4-.3-.8-.5-1.3-.6s-.9-.2-1.4-.2c-.9,0-1.5.2-1.9.5-.4.3-.6.8-.6,1.3s.1.7.4.9c.2.2.5.4.9.5.4.1.8.3,1.4.4.7.2,1.3.4,1.7.5.4.2.8.4,1.1.8.3.3.5.8.5,1.4s-.1.9-.4,1.3c-.3.4-.7.7-1.2,1s-1.2.4-2,.4-1.4-.1-2.1-.3Z"></path></g></g></g><g class="st1"><g class="st1"><g class="st1"><path class="st0" d="M51.3,59.8c-1.3-.5-2.4-1.2-3.1-2l.7-1.1c.7.7,1.7,1.3,2.8,1.8,1.2.5,2.4.7,3.8.7,1.9,0,3.3-.4,4.3-1.1,1-.7,1.5-1.7,1.5-2.8s-.3-1.6-.8-2.1c-.5-.5-1.2-.9-1.9-1.2-.8-.3-1.8-.6-3.1-.9-1.5-.4-2.6-.7-3.5-1.1-.9-.3-1.6-.9-2.3-1.6-.6-.7-.9-1.7-.9-2.9s.3-1.9.8-2.7c.5-.8,1.3-1.5,2.4-1.9,1.1-.5,2.4-.7,4-.7s2.2.2,3.3.5c1.1.3,2,.8,2.8,1.3l-.5,1.2c-.8-.6-1.7-1-2.6-1.3-1-.3-1.9-.4-2.8-.4-1.8,0-3.2.4-4.2,1.1-1,.7-1.4,1.7-1.4,2.9s.3,1.6.8,2.1c.5.5,1.2.9,1.9,1.2s1.8.6,3.1.9c1.5.4,2.6.7,3.5,1.1.9.3,1.6.9,2.2,1.6.6.7.9,1.6.9,2.8s-.3,1.9-.8,2.7c-.5.8-1.3,1.4-2.4,1.9s-2.4.7-4,.7-2.9-.3-4.2-.8Z"></path></g><g class="st1"><path class="st0" d="M80.7,42.2c1.4,1.2,2.1,2.8,2.1,5s-.7,3.7-2.1,4.9c-1.4,1.2-3.4,1.8-5.9,1.8h-5.7v6.5h-1.5v-20h7.2c2.5,0,4.5.6,5.9,1.8ZM79.7,51.1c1.1-.9,1.7-2.3,1.7-4s-.6-3.1-1.7-4c-1.1-.9-2.8-1.4-4.9-1.4h-5.7v10.8h5.7c2.1,0,3.8-.5,4.9-1.4Z"></path></g><g class="st1"><path class="st0" d="M87.8,40.4h1.5v20h-1.5v-20Z"></path><path class="st0" d="M96.2,40.4h7.9c2.1,0,3.9.4,5.5,1.3,1.6.9,2.9,2,3.8,3.6.9,1.5,1.3,3.2,1.3,5.2s-.4,3.6-1.3,5.2c-.9,1.5-2.1,2.7-3.8,3.6-1.6.9-3.5,1.3-5.5,1.3h-7.9v-20ZM104,59.1c1.8,0,3.5-.4,4.9-1.1,1.4-.7,2.5-1.8,3.3-3.1.8-1.3,1.1-2.8,1.1-4.5s-.4-3.2-1.1-4.5c-.8-1.3-1.8-2.3-3.3-3.1-1.4-.7-3-1.1-4.9-1.1h-6.3v17.4h6.3Z"></path><path class="st0" d="M133.6,59.1v1.3h-13.8v-20h13.4v1.3h-11.9v7.9h10.7v1.3h-10.7v8.2h12.3Z"></path><path class="st0" d="M152.8,60.4l-4.8-6.7c-.7,0-1.4.1-1.9.1h-5.7v6.5h-1.5v-20h7.2c2.5,0,4.5.6,5.9,1.8,1.4,1.2,2.1,2.8,2.1,5s-.4,2.9-1.2,4c-.8,1.1-2,1.8-3.5,2.3l5,7h-1.7ZM146.1,52.5c2.1,0,3.8-.5,4.9-1.4,1.1-.9,1.7-2.3,1.7-4s-.6-3.1-1.7-4c-1.1-.9-2.8-1.4-4.9-1.4h-5.7v10.9h5.7Z"></path><path class="st0" d="M173.4,60.4l-4.8-6.7c-.7,0-1.4.1-1.9.1h-5.7v6.5h-1.5v-20h7.2c2.5,0,4.5.6,5.9,1.8,1.4,1.2,2.1,2.8,2.1,5s-.4,2.9-1.2,4c-.8,1.1-2,1.8-3.5,2.3l5,7h-1.7ZM166.7,52.5c2.1,0,3.8-.5,4.9-1.4,1.1-.9,1.7-2.3,1.7-4s-.6-3.1-1.7-4c-1.1-.9-2.8-1.4-4.9-1.4h-5.7v10.9h5.7Z"></path><path class="st0" d="M183.3,59.2c-1.6-.9-2.8-2.1-3.7-3.6-.9-1.5-1.4-3.3-1.4-5.2s.5-3.6,1.4-5.2c.9-1.5,2.1-2.8,3.7-3.6,1.6-.9,3.4-1.3,5.3-1.3s3.7.4,5.3,1.3c1.6.9,2.8,2.1,3.7,3.6.9,1.5,1.4,3.3,1.4,5.2s-.5,3.7-1.4,5.2c-.9,1.5-2.1,2.8-3.7,3.6-1.6.9-3.4,1.3-5.3,1.3s-3.7-.4-5.3-1.3ZM193.1,58c1.4-.8,2.4-1.8,3.2-3.2.8-1.3,1.2-2.8,1.2-4.5s-.4-3.2-1.2-4.5c-.8-1.3-1.8-2.4-3.2-3.2-1.4-.8-2.9-1.1-4.5-1.1s-3.2.4-4.6,1.1c-1.4.8-2.4,1.8-3.2,3.2-.8,1.3-1.2,2.8-1.2,4.5s.4,3.2,1.2,4.5c.8,1.3,1.9,2.4,3.2,3.2,1.4.8,2.9,1.1,4.6,1.1s3.2-.4,4.5-1.1Z"></path><path class="st0" d="M207.2,59.2c-1.6-.9-2.8-2.1-3.7-3.6-.9-1.5-1.4-3.3-1.4-5.2s.5-3.7,1.4-5.2c.9-1.5,2.1-2.8,3.7-3.6s3.3-1.3,5.3-1.3,2.8.2,4,.7,2.3,1.2,3.1,2.1l-.9.9c-1.6-1.6-3.6-2.4-6.1-2.4s-3.2.4-4.6,1.1-2.4,1.8-3.2,3.2c-.8,1.3-1.2,2.8-1.2,4.5s.4,3.2,1.2,4.5c.8,1.3,1.9,2.4,3.2,3.2,1.4.8,2.9,1.1,4.6,1.1,2.5,0,4.5-.8,6.1-2.4l.9.9c-.9.9-1.9,1.6-3.1,2.1-1.2.5-2.6.7-4,.7s-3.7-.4-5.3-1.3Z"></path><path class="st0" d="M230.4,50.5l-4.5,4.6v5.3h-1.5v-20h1.5v12.9l12.5-12.9h1.8l-8.8,9.1,9.4,10.9h-1.8l-8.6-9.9Z"></path></g></g></g></g><g><path class="st2" d="M17,77.4l2.4-48.5v-.3c0-.3-.4-.6-.7-.6H4.2c-.4,0-.7.3-.7.6l-2.3,48.2c0,.4.3.7.7.7h15.1Z"></path><path class="st3" d="M35.8,9h-12.7c-.4,0-.8.3-.8.6l-3.4,67.8h20.3c.5,0,.8-.3.8-.6l-3.3-67.2c0-.3-.4-.6-.8-.6"></path></g><g class="st1"><g class="st1"><path class="st0" d="M247,34.6c.5.3.9.7,1.1,1.1.3.5.4,1,.4,1.6s-.1,1.1-.4,1.6c-.3.5-.7.9-1.2,1.2-.5.3-1,.4-1.6.4s-1.1-.1-1.6-.4c-.5-.3-.9-.7-1.1-1.2s-.4-1-.4-1.6.1-1.1.4-1.6.7-.9,1.1-1.2c.5-.3,1-.4,1.6-.4s1.1.1,1.6.4ZM246.8,39.8c.4-.3.8-.6,1.1-1.1s.4-.9.4-1.5-.1-1-.4-1.5c-.3-.4-.6-.8-1-1-.4-.3-.9-.4-1.5-.4s-1,.1-1.5.4c-.4.3-.8.6-1,1.1-.3.4-.4.9-.4,1.5s.1,1,.4,1.5c.3.4.6.8,1,1.1.4.3.9.4,1.5.4s1-.1,1.5-.4ZM246.7,37.4c-.1.2-.4.3-.6.4l.9,1.4h-.4l-.8-1.3s-.1,0-.2,0h-1v1.3h-.4v-3.7h1.4c.4,0,.8.1,1,.3.3.2.4.5.4.9s0,.5-.2.7ZM246.3,37.4c.2-.2.3-.4.3-.7s0-.5-.3-.7c-.2-.2-.5-.2-.8-.2h-1v1.8h1c.3,0,.6,0,.8-.2Z"></path></g></g></svg> 